<svg width="30" height="30" viewBox="0 0 30 30" fill="none" xmlns="http://www.w3.org/2000/svg">
<rect width="30" height="30" rx="15" fill="#C9A854"/>
<path d="M10.0532 21.8V20.396L15.3992 15.086C16.2512 14.246 16.8632 13.52 17.2352 12.908C17.6072 12.284 17.7932 11.642 17.7932 10.982C17.7932 10.238 17.5352 9.65 17.0192 9.218C16.5152 8.786 15.8072 8.57 14.8952 8.57C13.3472 8.57 12.2792 9.542 11.6912 11.486L9.98123 11.072C10.3052 9.896 10.8812 8.918 11.7092 8.138C12.5492 7.346 13.6112 6.95 14.8952 6.95C15.8312 6.95 16.6472 7.112 17.3432 7.436C18.0512 7.748 18.5972 8.204 18.9812 8.804C19.3772 9.404 19.5752 10.106 19.5752 10.91C19.5752 11.834 19.3472 12.686 18.8912 13.466C18.4352 14.246 17.7272 15.11 16.7672 16.058L12.6452 20.144H19.9172V21.8H10.0532Z" fill="white"/>
</svg>
