<svg width="30" height="30" viewBox="0 0 30 30" fill="none" xmlns="http://www.w3.org/2000/svg">
<rect width="30" height="30" rx="15" fill="#C9A854"/>
<path d="M11.2542 17.858C11.9142 19.586 13.1442 20.45 14.9442 20.45C15.9762 20.45 16.7922 20.21 17.3922 19.73C18.0042 19.238 18.3102 18.602 18.3102 17.822C18.3102 17.018 17.9922 16.358 17.3562 15.842C16.7322 15.326 15.8382 15.068 14.6742 15.068H12.8382V13.502H14.6742C15.7302 13.502 16.5402 13.268 17.1042 12.8C17.6802 12.332 17.9682 11.72 17.9682 10.964C17.9682 10.22 17.6922 9.638 17.1402 9.218C16.5882 8.786 15.8442 8.57 14.9082 8.57C13.3962 8.57 12.3222 9.356 11.6862 10.928L10.0662 10.316C10.4382 9.332 11.0262 8.528 11.8302 7.904C12.6342 7.268 13.6602 6.95 14.9082 6.95C15.8442 6.95 16.6722 7.112 17.3922 7.436C18.1242 7.748 18.6942 8.198 19.1022 8.786C19.5222 9.374 19.7322 10.07 19.7322 10.874C19.7322 11.726 19.5102 12.44 19.0662 13.016C18.6342 13.592 18.0642 14.012 17.3562 14.276C18.1722 14.528 18.8322 14.972 19.3362 15.608C19.8402 16.244 20.0922 17.006 20.0922 17.894C20.0922 18.722 19.8762 19.448 19.4442 20.072C19.0122 20.708 18.4062 21.2 17.6262 21.548C16.8462 21.896 15.9522 22.07 14.9442 22.07C13.5522 22.07 12.4122 21.734 11.5242 21.062C10.6362 20.39 10.0122 19.514 9.65224 18.434L11.2542 17.858Z" fill="white"/>
</svg>
