<svg width="30" height="30" viewBox="0 0 30 30" fill="none" xmlns="http://www.w3.org/2000/svg">
<rect width="30" height="30" rx="15" fill="#C9A854"/>
<path d="M15.2192 12.476C16.1312 12.476 16.9412 12.68 17.6492 13.088C18.3692 13.496 18.9272 14.066 19.3232 14.798C19.7312 15.518 19.9352 16.346 19.9352 17.282C19.9352 18.218 19.7252 19.052 19.3052 19.784C18.8852 20.504 18.2912 21.062 17.5232 21.458C16.7672 21.866 15.8912 22.07 14.8952 22.07C13.8032 22.07 12.7952 21.83 11.8712 21.35C10.9592 20.87 10.3052 20.18 9.90923 19.28L11.4392 18.416C11.7272 19.076 12.1712 19.574 12.7712 19.91C13.3712 20.246 14.0492 20.414 14.8052 20.414C15.8252 20.414 16.6352 20.132 17.2352 19.568C17.8472 18.992 18.1532 18.23 18.1532 17.282C18.1532 16.334 17.8532 15.572 17.2532 14.996C16.6532 14.42 15.8672 14.132 14.8952 14.132C14.1992 14.132 13.6052 14.306 13.1132 14.654C12.6332 14.99 12.2612 15.476 11.9972 16.112H10.3412L11.2592 7.22H19.4132V8.876H12.8072L12.2492 13.772C12.6092 13.352 13.0472 13.034 13.5632 12.818C14.0792 12.59 14.6312 12.476 15.2192 12.476Z" fill="white"/>
</svg>
