<svg width="374" height="523" viewBox="0 0 374 523" fill="none" xmlns="http://www.w3.org/2000/svg">
<path opacity="0.6" d="M282.625 392.332C282.632 430.579 254.815 467.034 223.254 485.427C219.416 487.786 219.512 487.369 218.406 487.99C215.346 489.665 213.652 490.952 211.446 492.105C200.529 497.775 189.947 502.202 178.649 506.071C166.903 509.939 172.211 507.231 168.081 508.343C159.973 510.361 167.091 509.371 164.002 510.539C154.787 513.152 145.331 515.289 135.946 517.001C138.225 516.452 140.49 515.884 142.763 515.294C138.709 516.155 132.813 517.135 139.594 515.481C138.072 515.716 136.644 515.909 135.071 516.135C134.723 516.626 127.442 517.977 126.835 518.298C126.216 518.645 130.269 517.892 130.25 517.911C130.086 518.334 113.136 520.535 111.935 520.552C108.718 520.864 111.47 520.032 108.746 520.391C104.05 520.978 107.294 521.646 100.76 520.972C98.2475 521.644 98.0102 521.445 94.8008 521.682C94.378 521.712 94.7261 521.935 94.5407 521.957C89.6879 522.521 93.3945 521.767 93.3664 521.744C92.8942 521.36 87.6822 521.919 86.5715 521.935C72.7076 522.216 62.5772 522.032 47.9917 521.479C44.8473 521.38 35.2452 521.051 32.2059 520.731C29.21 520.441 30.8432 520.251 29.2858 519.983C26.7155 520.52 24.2936 520.419 18.7099 519.354C16.5561 519.668 16.8711 519.275 12.8399 518.913C9.48727 518.614 3.57624 518.477 0.00163284 517.366C4.1897 518.038 3.79314 517.719 8.54961 518.188C10.1254 518.429 26.6266 520.129 25.4487 519.403C24.8328 519.069 19.348 518.807 19.1428 518.723C17.9484 518.287 21.0281 518.231 23.7143 518.611C23.0358 518.611 22.2194 518.597 21.4902 518.589C27.5218 519.543 23.4773 517.681 27.9804 519.371C28.5385 519.576 28.3036 519.725 29.2326 519.968C29.4317 519.914 28.293 519.649 29.2879 519.697C30.3021 519.746 32.202 520.215 32.5086 519.957C32.9651 519.589 28.7611 519.436 28.4478 519.381C28.4442 519.383 28.4407 519.385 28.4371 519.388C25.667 518.949 31.4902 519.392 31.7713 519.365C33.5903 519.241 32.3761 518.965 35.0913 518.937C36.6397 518.923 40.5612 519.212 42.012 519.238C43.453 519.267 41.2232 518.97 42.1933 518.975C43.1628 518.98 44.3619 519.178 45.5 519.175C45.9872 519.173 45.9705 518.959 46.206 518.96C48.7315 518.969 47.0613 519.356 49.3512 519.402C50.8416 519.436 55.8358 519.122 52.4024 518.927C54.0548 518.922 55.6646 518.917 57.3057 518.901C56.2715 518.827 55.2026 518.768 54.194 518.675C57.2813 518.83 58.6806 518.472 60.6114 518.452C62.5435 518.43 64.2713 518.862 66.4003 518.625C70.9373 518.124 59.704 518.444 58.3105 518.311C57.7675 518.275 59.8562 517.948 60.1766 517.938C61.6022 517.901 63.2881 518.142 64.3862 518.124C68.3238 518.053 70.7446 517.682 74.4874 517.504C87.2251 516.928 103.05 515.419 114.952 513.67C119.428 513.026 122.149 512.955 124.137 512.622C128.771 511.827 129.283 511.408 133.346 510.626C139.37 509.47 147.829 507.842 152.803 506.608C156.238 505.773 159.19 504.624 160.102 504.358C172.405 500.832 186.965 495.459 196.512 491.012C200.965 488.968 203.287 488.152 204.184 487.695C208.076 485.653 206.892 485.932 210.003 484.283C211.678 483.379 212.156 483.425 212.382 483.312C214.419 482.259 214.62 481.708 216.132 480.793C224.709 475.567 232.893 469.982 240.31 463.343C240.844 462.864 240.906 463.027 241.243 462.707C242.689 461.313 241.841 461.758 243.357 460.284C246.507 457.186 249.536 454.02 252.542 450.434C252.835 450.082 253.132 450.057 253.788 449.239C254.442 448.418 254.777 447.673 255.768 446.373C258.343 442.978 260.913 439.53 263.151 435.6C263.521 434.949 263.752 434.009 264.279 433.017C265.957 429.92 268.298 425.209 269.34 422.387C272.883 413.031 274.538 403.831 275.094 394.493C275.226 392.272 275.496 390.247 275.507 389.143C275.517 386.578 275.313 388.52 275.267 385.908C274.741 364.36 267.807 342.94 257.861 323.239C254.073 315.643 248.223 306.128 243.88 299.388C242.001 296.459 241.888 295.751 240.478 293.665C237.939 289.956 237.049 289.378 234.397 285.773C232.237 282.848 229.99 279.202 227.533 276.085C226.131 274.307 225.042 273.143 223.819 271.804C222.894 270.789 221.906 269.675 220.675 268.119C218.305 265.132 215.341 260.837 213.024 257.574C191.232 227.001 175.715 191.464 174.287 153.096C173.755 139.643 175.03 124.596 178.772 111.166C179.129 109.911 178.969 111.929 179.969 107.852C180.53 105.666 181.055 102.564 182.773 97.6412C192.858 68.2288 215.229 41.6933 241.742 25.0553C281.045 -0.963917 334.405 -6.71616 372.572 7.78805C374.468 8.47629 373.175 9.09112 371.957 9.04934C370.932 8.59386 369.994 8.13273 368.92 7.65973C367.245 8.46303 367.561 8.17083 362.385 6.99303C359.205 6.30094 361.659 7.28393 359.936 7.09595C357.638 6.75709 347.075 5.84725 349.193 5.38937C348.527 5.43841 347.914 5.49179 347.269 5.54732C339.567 4.7716 332.159 4.59048 324.647 4.92005C323.359 4.98046 323.305 5.22134 321.983 5.29819C318.435 5.5186 315.527 5.5364 311.874 5.8943C309.883 6.09975 309.658 6.39465 307.046 6.68995C304.432 7.0087 304.425 6.61708 300.956 7.57457C303.315 7.63241 293.065 9.04424 289.482 10.0401C288.947 10.1604 284.85 11.6314 282.585 12.2571C280.319 12.8614 276.84 13.6637 273.509 15.0262C271.944 15.6671 271.083 16.3395 269.392 17.0218C268.202 17.5035 266.664 17.814 265.168 18.4419C263.669 19.0569 260.576 20.7397 259.996 21.0297C257.904 22.0507 260.13 20.7523 258.691 21.4356C251.762 24.7224 244.006 29.1947 237.925 33.7284C237.177 34.2825 238.365 33.7316 238.269 33.8106C233.346 37.749 235.888 35.5281 234.39 36.3685C232.866 37.0867 223.723 45.0451 224.034 45.4921C223.399 45.3543 221.724 47.4984 221.244 48.0002C219.361 49.9481 219.41 49.2514 217.686 51.2441C217.058 51.9779 218.575 50.8315 217.854 51.5746C216.083 53.4115 214.155 54.7855 211.907 57.3666C211.367 57.9916 211.361 58.3359 210.43 59.4674C209.47 60.5779 205.554 65.3306 207.634 63.3434C205.111 66.1103 204.825 66.8403 202.408 70.444C201.804 71.3591 200.73 72.3524 199.605 74.412C199.227 75.1094 199.53 75.2641 198.928 76.2898C197.56 78.6398 195.999 80.7142 194.427 83.7922C191.479 89.5724 189.062 96.0159 186.872 102.401C186.287 104.13 186.087 103.586 185.309 106.14C185.191 106.515 184.591 109.69 184.119 111.484C183.798 112.55 182.348 118.086 182.141 119.244C181.754 121.131 182.029 121.531 181.787 122.562C181.118 125.541 180.998 123.054 181.14 126.752C180.606 127.886 180.39 130.016 179.865 130.653C180.23 131.947 179.584 133.53 179.578 135.966C179.575 138.374 180.471 140.382 179.406 140.927C179.47 142.056 179.63 146.895 179.675 147.721C179.752 150.085 179.442 148.824 179.525 150.613C179.543 150.929 179.721 150.59 179.781 152.619C179.739 153.943 180.56 163.775 180.672 164.311C181.198 170.952 180.011 160.763 179.748 159.314C179.782 159.051 179.817 158.792 179.85 158.513C179.718 155.534 179.396 157.254 179.401 158.617C179.404 160.003 179.846 162.44 179.83 163.56C179.822 164.118 179.243 163.838 179.132 162.166C179.157 163.965 178.726 161.55 178.646 162.271C178.502 163.049 179.552 171.154 179.9 171.159C179.664 169.639 179.38 167.758 179.196 166.234C179.457 164.174 181.9 170.019 182.27 175.544C182.573 179.57 180.768 173.15 183.232 182.408C182.916 180.962 182.696 179.736 182.445 178.43C182.79 178.212 182.823 180.411 183.197 181.48C183.371 181.99 182.913 178.703 183.631 181.485C183.651 184.007 184.647 185.823 185.736 189.712C185.334 188.644 184.944 187.574 184.565 186.507C185.957 193.303 181.675 177.716 184.972 190.854C184.504 189.284 184.094 187.753 183.655 186.153C183.663 186.993 182.765 185.876 182.826 186.615C182.973 188.513 183.895 191.116 184.533 193.333C184.812 194.303 184.479 193.75 184.502 193.831C184.889 195.161 185.023 194.8 185.402 195.958C185.866 197.416 187.094 201.727 187.354 202.342C188.029 204.036 187.445 201.024 187.541 201.18C188.128 202.195 188.77 204.49 189.004 204.271C186.705 199.066 182.259 182.887 187.109 197.175C186.308 193.063 187.226 194.021 189.19 199.681C190.824 204.202 189.544 201.361 190.133 203.829C190.182 204.143 192.45 210.323 192.799 210.565C192.262 210.494 192.715 212.663 191.708 211.5C191.555 211.329 190.553 208.781 190.551 209.811C190.547 210.327 190.679 211.764 190.366 211.654C190.742 212.113 191.151 212.587 191.542 213.049C193.196 216.793 193.258 217.325 193.894 219.492C193.974 219.342 193.625 217.247 194.778 220.143C194.838 220.292 194.708 220.503 195.304 221.985C196.526 224.982 196.791 225.627 195.151 223.645C198.487 229.608 198.49 231.024 202.045 236.942C202.04 235.368 200.635 233.391 197.658 227.978C197.692 227.648 197.793 227.45 197.826 227.112C201.295 234.628 199.428 230.979 202.017 234.92C202.634 235.879 205.711 241.298 205.1 239.244C204.944 238.759 203.011 235.44 203.401 235.727C203.462 235.782 205.899 239.776 206.085 240.159C208.289 244.892 202.993 237.353 210.729 249.085C210.949 249.408 211.209 249.4 211.657 250.02C212.502 251.185 212.299 251.344 213.073 252.382C213.843 253.411 215.177 254.737 216.012 256.473C217.566 259.677 212.441 253.053 210.676 249.742C209.262 249.132 221.283 266.436 225.109 270.771C225.518 271.274 225.794 271.613 225.907 271.743C228.784 275.105 227.131 272.984 225.283 270.631C224.077 269.102 222.846 267.48 222.762 267.235C222.677 266.975 223.639 266.383 221.217 264.424C220.497 263.842 222.549 267 221.091 265.293C219.64 263.583 220.446 264.088 220.365 263.944C220.091 263.453 218.582 261.635 218.442 261.361C216.279 257.164 217.368 256.867 219.773 262.817C221.691 264.775 218.429 259.438 220.64 261.991C223.327 265.088 224.821 267.799 225.128 268.228C225.661 268.966 226.04 269.47 226.309 269.81C227.904 271.844 225.585 268.057 229.532 273.401C232.057 276.863 225.207 268.658 231.23 276.335C236.131 282.719 233.702 279.097 234.541 279.205C234.734 279.23 237.498 282.637 233.868 277.894C233.641 277.853 233.284 277.722 232.939 277.504C232.142 276.263 231.238 273.815 230.765 273.167C228.704 270.342 228.305 270.356 227.474 268.876C227.377 268.703 227.273 268.509 227.161 268.287C227.777 269.892 226.355 267.613 225.658 266.899C223.088 264.246 225.851 268.141 221.329 261.308C221.767 262.303 222.157 263.217 222.592 264.189C221.987 263.411 221.388 262.632 220.796 261.853C220.342 260.361 217.273 256.256 220.453 259.692C217.288 255.116 215.914 253.265 214.846 252.459C214.645 252.307 214.131 251.613 213.562 250.781C213.571 251.005 213.406 251.411 213.28 251.304C212.153 250.34 211.517 248.135 212.144 248.617C211.77 248.026 211.481 247.556 211.38 247.389C210.742 246.333 212.256 248.233 211.778 247.351C211.613 247.06 209.71 244.177 209.762 244.071C210.071 243.366 212.654 248.51 206.989 238.533C206.366 238.596 209.255 243.112 208.037 242.243C206.754 241.378 205.874 238.243 204.882 238.079C204.867 237.8 204.904 237.652 204.923 237.395C202.276 233.491 202.852 233.121 202.289 231.815C201.203 229.392 195.388 217.923 200.11 228.435C199.315 227.039 198.469 225.439 197.687 223.97C198.587 223.116 198.491 224.219 195.327 216.944C194.648 215.342 194.893 214.633 193.665 213.315C194.288 213.297 191.938 208.584 191.846 208.106C191.096 205.048 196.093 215.529 195.792 217.19C196.968 218.774 196.471 218.993 197.471 220.928C198.935 223.716 199.232 224.092 200.6 227.609C202.747 230.705 194.363 214.524 199.907 224.072C202.926 229.543 215.069 250.615 229.218 267.479C239.725 280.269 248.048 292.521 251.433 297.816C265.96 321.042 272.576 334.423 278.958 358.511C279.83 360.613 282.662 379.364 281.378 375.51C281.267 374.986 279.928 367.181 280.339 373.962C280.473 372.566 281.142 376.471 281.19 376.791C282.481 384.564 282.707 380.084 282.625 392.332ZM269.595 425.822C275.031 411.605 270.755 421.953 270.896 418.678C270.29 420.513 269.631 422.317 268.917 424.102C269.161 423.655 269.399 423.212 269.637 422.761C269.638 422.759 269.639 422.757 269.639 422.755C269.643 423.771 269.628 424.793 269.595 425.822ZM49.7536 518.233C50.3615 518.121 50.9615 518.008 51.6182 517.898C53.6601 517.988 55.6938 518.062 57.7342 518.123C57.4898 518.208 57.2535 518.294 57.0087 518.379C54.5925 518.347 52.1819 518.294 49.7536 518.233ZM209.364 247.992C208.1 245.356 207.685 245.918 205.937 242.52C205.775 243.163 205.653 243.848 205.515 244.516C207.121 246.963 207.628 247.429 209.293 250.191C209.214 249.793 209.132 249.388 209.061 248.998C208.742 248.567 208.402 248.11 208.099 247.691C208.007 246.772 210.849 251.033 209.371 248C209.369 247.998 209.366 247.995 209.364 247.992ZM194.537 221.955C193.88 220.494 191.58 214.802 191.085 214.083C189.281 211.765 196.834 227.488 191.006 216.002C190.944 216.093 190.837 216.076 190.753 216.113C191.66 218.268 192.613 220.42 193.625 222.599C193.902 222.324 194.266 222.245 194.537 221.955ZM275.579 371.684C275.413 369.279 272.686 358.315 273.059 361.993C273.181 362.974 274.795 367.891 275.053 369.802C275.232 371.032 274.699 369.714 275.181 372.105C275.31 371.977 275.46 371.888 275.577 371.678C275.578 371.68 275.579 371.682 275.579 371.684ZM278.053 375.82C277.725 373.409 277.3 370.94 276.809 368.461C276.768 370.345 277.491 373.828 276.982 374.097C276.858 373.436 276.729 372.782 276.594 372.119C276.634 371.59 276.673 371.066 276.708 370.54C276.074 368.463 276.186 369.79 275.522 365.795C275.167 368.35 274.956 368.875 276.596 375.389C276.007 374.218 274.788 375.464 276.128 379.09C276.38 379.779 276.236 376.82 276.256 376.816C276.581 376.34 276.977 377.892 277.279 377.389C277.419 377.164 277.228 375.418 277.412 375.128C277.506 374.993 277.998 376.63 278.053 375.82ZM276.623 380.901C276.344 380.154 276.009 382.801 276.181 385.013C276.438 388.473 276.829 383.001 276.623 380.901ZM49.7402 518.233C49.7446 518.233 49.7492 518.233 49.7536 518.233C49.7514 518.233 49.7491 518.234 49.7469 518.234C49.7446 518.234 49.7425 518.233 49.7402 518.233ZM197.968 229.396C196.953 227.881 195.7 225.315 195.529 225.649C195.173 224.801 194.82 223.947 194.478 223.102C194.4 223.15 194.325 223.205 194.247 223.252C195.373 225.717 196.631 228.322 197.803 230.658C197.862 230.246 197.934 229.857 197.968 229.396ZM186.29 202.186C185.214 199.002 185.748 201.799 185.317 201.167C184.875 200.521 184.055 197.518 183.9 197.955C184.523 199.912 185.202 201.923 185.873 203.812C185.985 203.205 186.16 202.749 186.287 202.179C186.288 202.182 186.289 202.184 186.29 202.186ZM230.297 473.253C232.163 471.964 231.59 472.844 234.924 469.743C234.921 469.745 234.919 469.747 234.916 469.75C231.394 472.248 226.939 475.208 223.071 478.043C225.685 476.712 227.358 475.24 230.297 473.253ZM213.128 255.287C213.893 255.963 211.446 252.032 210.707 251.32C209.482 250.164 211.933 254.252 213.128 255.287ZM146.858 511.606C143.575 513.138 150.362 512.542 156.964 510.385C157.538 510.204 153.141 511.098 154.388 510.618C154.516 510.572 156.897 509.967 157.452 509.704C158.009 509.443 157.331 509.368 158.259 509.008C159.865 508.389 163.84 507.603 165.018 506.994C165.176 506.916 162.717 507.292 162.563 507.321C160.061 507.836 157.849 508.884 157.478 508.987C155.559 509.517 155.76 509.106 155.253 509.157C154.296 509.253 152.708 509.813 152.59 509.831C149.574 510.284 156.316 508.666 157.168 508.288C159.501 507.302 157.156 507.662 162.953 505.805C163.505 505.629 170.099 503.691 161.677 505.779C177.714 500.162 153.396 507.82 150.725 508.418C149.505 508.802 151.46 508.655 150.743 508.983C149.109 509.736 146.163 510.485 146.533 510.882C147.333 511.72 151.074 510.166 153.754 509.643C153.529 509.923 153.475 510.154 153.011 510.49C153.744 510.026 147.106 511.507 146.858 511.604C146.858 511.604 146.858 511.605 146.858 511.606ZM187.618 497.748C191.304 496.575 190.808 496.1 194.157 495.045C196.745 493.299 191.212 495.759 190.529 495.989C187.481 497.096 187.279 496.517 184.327 497.872C185.509 497.803 186.467 497.819 187.618 497.748ZM156.07 507.877C158.436 506.917 154.058 508.09 153.86 508.071C151.78 507.984 164.878 504.562 156.07 507.877ZM273.829 356.977C273.516 355.716 273.436 356.591 273.049 355.507C272.675 354.429 271.775 350.52 271.612 350.667C271.487 350.838 273.075 357.957 270.883 350.973C270.855 351.243 270.755 351.186 270.698 351.329C271.29 353.262 271.839 355.195 272.338 357.092C272.359 355.973 272.371 354.811 272.362 353.712C272.908 354.728 272.771 355.417 272.787 355.474C272.787 355.474 272.788 355.474 272.788 355.474C273.364 357.47 274.503 359.797 273.829 356.977ZM253.831 452.127C254.174 452.912 255.453 450.021 256.121 448.985C256.807 447.953 258.037 446.759 257.396 447.075C256.052 448.546 253.807 452.043 253.832 452.128C253.831 452.127 253.831 452.127 253.831 452.127ZM206.5 489.161C209.243 487.526 208.697 487.604 212.199 485.936C211.976 485.849 211.747 485.762 211.532 485.674C208.853 487.136 209.297 487.511 206.022 488.963C205.481 489.198 206.414 488.253 204.105 489.569C204.899 489.426 205.712 489.298 206.5 489.161ZM219.895 480.792C216.823 482.719 215.09 485.505 220.493 481.414C221.283 480.8 222.187 479.323 219.895 480.792ZM278.133 390.329C278.199 384.227 277.976 391.1 277.635 392.812C277.601 378.431 277.824 394.418 276.765 395.857C276.863 397.624 277.02 400.946 277.498 397.315C277.678 395.791 277.404 396.331 277.413 396.239C277.655 393.421 278.023 393.768 278.133 390.329ZM181.481 500.155C181.698 500.063 181.264 499.95 181.946 499.642C182.629 499.334 184.267 498.901 184.365 498.693C184.466 498.489 181.264 499.574 180.32 500.035C179.38 500.501 179.519 500.984 181.481 500.155ZM203.77 491.287C206.499 489.726 201.486 491.159 200.864 491.446C195.48 494.042 203.799 490.975 203.77 491.287ZM278.452 405.016C279.02 397.412 277.561 402.821 276.193 407.388C276.176 408.018 276.151 408.664 276.124 409.285C276.041 406.369 276.512 401.5 274.738 412.267C276.214 406.486 275.273 411.395 275.292 411.442C276.326 412.388 277.517 403.437 278.451 405.023C278.452 405.021 278.452 405.018 278.452 405.016ZM171.787 503.25C168.735 504.293 160.576 506.897 164.546 506.239C166.995 505.269 169.404 504.275 171.787 503.25ZM242.333 289.04C240.947 286.551 239.564 284.611 237.631 281.996C239.02 284.603 237.853 283.077 237.189 282.34C236.184 281.221 238.331 284.141 238.308 284.163C237.945 284.336 236.582 282.522 239.605 286.735C238.755 285.773 237.904 284.823 237.035 283.857C239.329 287.058 239.709 288.055 240.971 290.415C240.117 287.858 241.693 290.93 243.701 293.234C244.709 294.388 243.033 290.287 242.327 289.032C242.329 289.034 242.331 289.037 242.333 289.04ZM279.551 397.233C279.479 396.438 279.345 395.706 279.235 394.935C279.27 394.105 279.298 393.269 279.314 392.432C279.439 392.333 279.569 392.251 279.689 392.133C279.759 391.025 279.576 391.452 279.569 391.122C279.57 391.122 279.57 391.122 279.571 391.122C279.43 386.541 279.374 384.688 279.527 380.988C279.157 381.012 278.786 381.037 278.415 381.062C278.505 381.879 278.586 382.701 278.657 383.512C278.876 383.935 279.092 384.361 279.306 384.787C279.228 385.732 279.138 386.66 279.035 387.59C279.114 388.334 279.186 389.225 279.247 389.866C278.168 393.524 278.945 385.18 278.439 385.085C278.233 385.057 278.21 393.489 278.231 394.789C278.245 394.969 279.143 393.157 278.531 396.279C278.421 396.769 276.785 396.797 277.775 400.248C277.909 400.744 279.146 399.212 279.551 397.233ZM278.232 365.819C278.21 370.745 275.5 353.123 276.333 360.786C275.356 358.789 275.464 359.191 275.527 361.397C275.533 361.592 275.063 360.167 275.074 360.294C275.313 362.326 275.914 364.627 275.497 364.78C275.633 365.334 275.756 365.855 275.885 366.407C275.839 364.004 276.838 367.653 277.405 369.018C277.669 369.641 277.466 368.139 277.694 368.663C277.783 368.86 278.016 370.957 278.167 371.019C278.514 371.146 278.77 369.781 278.61 367.488C278.61 367.488 278.61 367.487 278.611 367.487C278.489 366.927 278.362 366.382 278.232 365.819ZM248.807 461.234C247.792 461.404 245.399 463.63 249.591 458.916C249.292 459.061 248.987 459.212 248.687 459.354C247.959 460.122 247.243 460.86 246.478 461.626C245.359 465.218 239.613 467.661 243.254 466.064C243.652 465.89 245.393 464.076 243.817 466.024C243.82 466.022 243.823 466.02 243.826 466.018C246.318 463.563 246.504 463.078 248.807 461.234ZM263.184 442.79C266.547 435.423 256.372 451.559 258.339 449.062C258.591 448.907 263.074 441.974 263.184 442.79ZM216.295 486.765C219.463 484.944 219.293 484.227 218.862 484.212C218.428 484.196 216.395 485.683 216.091 485.811C215.112 486.233 217.011 485.035 215.737 485.575C215.314 485.785 209.708 488.615 209.474 488.745C208.147 489.63 210.457 489.033 210.086 489.301C208.877 490.184 206.943 490.854 206.689 491.312C206.144 492.299 209.211 489.984 209.756 489.671C211.429 488.745 211.449 489.134 212.736 488.509C214.032 487.874 214.821 487.289 215.944 486.672C216.319 486.465 216.133 486.855 216.295 486.765ZM225.686 479.245C222.808 481.798 230.812 477.059 231.569 476.275C233.938 474.11 227.1 478.068 225.686 479.245ZM278.342 378.032C279.028 381.449 278.598 373.465 278.04 371.227C277.98 371.695 278.138 376.871 278.342 378.032ZM278.088 407.119C278.525 403.934 277.016 408.002 276.441 410.552C276.628 412.178 276.861 410.744 277.232 409.048C277.594 407.35 277.709 409.592 278.088 407.119ZM180.414 502.613C181.107 502.426 191.113 498.043 185.206 500.146C184.777 500.327 177.577 503.056 177.026 503.307C175.962 503.856 178.747 503.196 180.414 502.613ZM274.92 422.176C275.041 420.412 275.546 418.83 274.538 420.137C274.538 420.139 274.537 420.141 274.536 420.143C275.686 416.03 276.762 416.117 276.999 415.216C277.731 412.083 276.188 414.827 276.423 412.819C275.498 417.374 275.3 415.982 274.218 419.358C273.979 420.119 273.225 423.233 273.237 423.74C273.262 424.25 274.407 422.93 274.92 422.176ZM165.647 507.615C169.277 506.711 172.264 504.949 167.325 506.369C164.907 507.047 163.428 508.158 165.647 507.615ZM194.751 215.99C194.794 216.579 194.848 217.185 194.917 217.815C194.311 216.604 193.718 215.392 193.141 214.182C193.619 215.129 194.107 216.077 194.606 217.032C193.634 214.692 193.517 213.498 194.748 215.984C194.749 215.986 194.75 215.988 194.751 215.99ZM180.455 127.46C180.789 126.36 180.53 124.069 180.443 124.341C179.77 126.4 179.99 128.994 180.455 127.46ZM279.577 372.816C279.04 368.526 278.537 371.63 278.794 374.212C278.776 372.604 279.843 375.234 279.577 372.816ZM179.748 159.314C179.698 159.704 179.65 160.102 179.607 160.537C179.597 159.174 179.66 158.932 179.748 159.314ZM182.359 502.815C183.009 502.666 187.534 500.995 188.098 500.658C189.285 499.975 185.603 500.871 183.589 501.798C183.369 501.902 181.722 502.972 182.368 502.811C182.365 502.812 182.362 502.814 182.359 502.815ZM192.827 210.564C192.821 210.575 192.811 210.574 192.799 210.565C192.809 210.566 192.816 210.561 192.827 210.564ZM224.091 45.4998C224.062 45.5063 224.041 45.5047 224.034 45.4921C224.051 45.4956 224.076 45.4928 224.091 45.4998ZM213.919 489.35C215.824 489.362 218.859 487.029 216.037 488.128C215.882 488.192 214.272 489.158 213.919 489.35Z" fill="#B59F84"/>
</svg>
