<svg width="462" height="375" viewBox="0 0 462 375" fill="none" xmlns="http://www.w3.org/2000/svg">
<path d="M333.546 177.538C351.752 194.925 370.557 215.206 386.13 235.152C388.045 237.603 387.693 237.599 388.203 238.306C389.588 240.237 390.713 241.177 391.75 242.568C396.787 249.335 401.412 255.757 406.039 262.602C410.787 269.691 407.804 266.839 409.298 269.404C412.184 274.44 410.355 269.738 411.822 271.5C415.427 277.055 418.908 282.756 422.262 288.515C421.332 287.177 420.398 285.845 419.453 284.501C420.962 286.973 422.971 290.608 420.2 286.615C420.694 287.569 421.137 288.471 421.642 289.454C422.146 289.507 424.8 293.886 425.231 294.168C425.671 294.45 424.163 292.006 424.188 292.012C424.563 292.004 430.133 302.418 430.492 303.2C431.516 305.211 430.124 303.723 431.083 305.384C432.722 308.246 432.55 305.838 433.514 310.403C434.739 311.768 434.611 312.002 435.632 313.994C435.766 314.257 435.88 313.938 435.947 314.049C437.687 316.964 436.064 314.873 436.05 314.9C435.817 315.37 437.663 318.506 437.973 319.21C441.894 328.024 444.635 334.537 448.639 343.838C449.513 345.844 452.312 351.948 453.044 353.942C453.771 355.894 453.06 354.979 453.336 356.042C454.68 357.379 455.392 358.897 456.37 362.742C457.405 363.913 456.934 363.893 458.038 366.484C458.955 368.64 460.985 372.264 461.333 374.898C460.375 372.083 460.232 372.46 458.925 369.387C458.521 368.342 454.32 357.608 454.102 358.627C454.004 359.145 455.651 362.59 455.652 362.749C455.674 363.661 454.55 361.816 453.977 360.02C454.208 360.433 454.476 360.935 454.719 361.382C453.517 357.307 453.215 360.562 453.22 357.099C453.218 356.671 453.43 356.751 453.34 356.081C453.224 355.983 453.366 356.79 453.077 356.163C452.783 355.524 452.579 354.165 452.245 354.088C451.76 353.967 453.014 356.597 453.073 356.81C453.076 356.811 453.079 356.813 453.082 356.814C453.613 358.689 452.066 354.952 451.953 354.791C451.242 353.731 451.394 354.6 450.473 352.932C449.948 351.981 448.939 349.426 448.501 348.513C448.067 347.605 448.511 349.117 448.205 348.513C447.9 347.908 447.698 347.078 447.336 346.37C447.181 346.068 446.993 346.169 446.92 346.022C446.136 344.444 447.008 345.321 446.337 343.873C445.902 342.932 444.1 339.947 444.969 342.173C444.459 341.144 443.968 340.14 443.463 339.118C443.705 339.798 443.974 340.491 444.195 341.161C443.401 339.166 442.662 338.439 442.073 337.234C441.483 336.03 441.369 334.758 440.542 333.514C438.776 330.853 442.313 337.82 442.628 338.739C442.757 339.095 441.838 337.923 441.735 337.725C441.28 336.845 441.005 335.682 440.67 334.997C439.465 332.544 438.434 331.15 437.226 328.831C433.116 320.917 427.804 311.294 423.559 303.997C421.988 301.285 421.353 299.477 420.634 298.269C418.948 295.447 418.472 295.274 416.97 292.811C414.737 289.151 411.774 283.898 409.889 280.872C408.588 278.774 407.105 277.079 406.747 276.549C401.734 269.11 395.512 260.27 391.08 254.307C389.006 251.506 388.279 249.983 387.838 249.414C385.934 246.978 386.202 247.817 384.7 245.814C383.887 244.734 383.955 244.362 383.853 244.212C382.949 242.897 382.462 242.875 381.686 241.906C377.205 236.319 373.012 230.819 368.455 225.41C368.124 225.017 368.278 224.946 368.056 224.698C367.097 223.639 367.335 224.313 366.344 223.188C364.279 220.851 362.205 218.417 360.035 215.934C359.82 215.688 359.879 215.438 359.381 214.881C358.882 214.323 358.355 214.034 357.577 213.156C355.54 210.858 353.685 208.483 351.463 206.083C351.096 205.688 350.455 205.373 349.903 204.782C348.174 202.926 345.748 200.054 344.244 198.49C339.293 193.339 334.495 188.764 329.641 184.081C328.501 182.98 327.649 181.841 327.056 181.269C325.719 179.98 326.582 181.105 325.216 179.813C314.024 169.236 302.452 158.947 290.408 149.121C285.648 145.232 279.67 140.785 275.046 137.146C273.114 135.624 272.938 135.105 271.552 134.046C269.075 132.162 268.388 132.137 265.743 130.211C263.632 128.676 261.461 126.589 259.258 125.018C257.054 123.449 255.793 123.009 253.222 121.232C251.103 119.767 248.266 117.561 245.957 115.994C224.725 101.588 203.163 88.4082 180.747 75.6043C172.93 71.1355 163.855 66.358 155.695 61.7781C154.917 61.3419 156.299 61.6297 153.716 60.4056C152.33 59.7508 150.278 59.0682 147.126 57.5228C128.321 48.2952 108.201 38.5252 88.3566 30.7544C58.6668 19.0869 26.516 11.3228 0.605172 1.2946C-0.627625 0.811328 0.272171 0.0733557 1.10227 -0.000345588C1.77358 0.351058 2.38615 0.726384 3.09304 1.11504C4.32544 0.228606 4.05931 0.461574 7.6516 1.46804C9.87943 2.09882 8.20673 1.16516 9.44267 1.33552C11.1806 1.5779 18.2397 2.88402 16.7204 3.26992C17.1954 3.26171 17.6366 3.25064 18.1028 3.24409C23.4192 4.58473 28.3287 5.81367 33.478 7.15071C34.3682 7.38202 34.479 7.16508 35.4035 7.40926C37.9506 8.08512 39.6689 8.79016 42.148 9.55705C43.4853 9.97228 43.7543 9.76691 45.5106 10.3567C47.2714 10.9511 47.1111 11.2903 49.6716 11.7123C48.2893 10.7529 55.0612 13.379 57.5113 14.2093C57.8656 14.3267 60.9347 14.9497 62.4953 15.5565C64.0667 16.1635 66.361 17.2711 68.7609 17.9846C69.8978 18.3232 70.6882 18.2635 71.9031 18.6925C72.7578 18.9946 73.6796 19.6486 74.7584 20.0658C75.8349 20.4806 78.2761 21.1489 78.7122 21.3118C80.2822 21.8937 78.4829 21.4266 79.5495 21.845C84.5686 23.8114 90.3483 26.2128 95.4648 28.1525C96.0872 28.3883 95.3259 27.8166 95.4097 27.8421C99.6218 29.2446 97.3117 28.641 98.3349 29.2951C99.311 29.9105 107.245 33.1244 107.481 32.7791C107.517 33.3665 109.443 33.7539 109.91 33.939C111.728 34.6583 111.192 34.9226 112.937 35.5281C113.578 35.7511 112.494 34.9431 113.156 35.2416C114.795 35.9805 116.081 37.0844 118.266 38.109C118.794 38.3571 119.057 38.2324 120.003 38.6633C120.948 39.0905 124.836 41.1447 123.182 39.8868C125.442 41.319 126.078 41.3836 128.82 42.657C129.518 42.9827 130.269 43.7203 131.807 44.3161C132.328 44.5179 132.458 44.2006 133.22 44.5544C134.964 45.3636 136.456 46.4588 138.67 47.5313C142.851 49.5576 147.271 51.4372 151.503 53.6484C152.653 54.25 152.209 54.4114 153.895 55.2664C154.143 55.3905 156.314 56.153 157.473 56.7757C158.18 57.1516 161.705 59.197 162.407 59.5828C163.589 60.2256 163.957 60.0424 164.582 60.4414C166.39 61.5981 164.641 61.2344 167.234 61.8393C167.811 62.5624 169.163 63.2356 169.377 63.8668C170.389 63.8368 171.171 64.7975 172.759 65.4592C174.348 66.1208 176.051 65.9401 175.92 67.0568C176.7 67.3333 179.737 68.7456 180.249 69.0106C181.74 69.7802 180.814 69.6002 181.942 70.1786C182.141 70.2812 182.032 69.9939 183.276 70.7068C184.091 71.1653 190.125 74.5741 190.474 74.812C194.44 77.429 188.132 73.7007 187.139 73.3959C187.01 73.2586 186.882 73.1221 186.742 72.9796C184.97 71.8786 185.787 72.8479 186.559 73.4007C187.332 73.9531 188.969 74.6502 189.582 75.1673C189.887 75.4253 189.411 75.7693 188.412 75.129C189.434 75.8975 187.841 75.1954 188.201 75.5773C188.594 75.9882 193.54 78.8779 193.686 78.6272C192.789 78.0982 191.621 77.4396 190.692 76.8956C189.717 75.7503 194.329 76.359 197.322 78.9131C199.506 80.7756 195.282 78.762 201.267 81.7857C200.39 81.2442 199.663 80.7619 198.868 80.2713C198.976 79.8893 200.071 81.0203 200.807 81.3129C201.162 81.4521 199.302 80.0419 201.083 80.9849C202.295 82.3383 203.724 82.5398 206.232 84.0342C205.486 83.701 204.739 83.3686 203.994 83.0388C208.016 85.9021 198.134 80.1594 206.235 85.2567C205.238 84.678 204.256 84.0862 203.249 83.5186C203.627 83.9782 202.555 84.0288 202.922 84.3924C203.883 85.3458 205.655 86.1756 207.017 87.032C207.614 87.4063 207.158 87.3174 207.208 87.3488C208.024 87.8628 207.963 87.5522 208.695 87.9787C209.627 88.52 212.083 90.2889 212.52 90.529C213.642 91.1411 212.074 89.6343 212.196 89.6695C213.007 89.9035 214.326 90.9356 214.405 90.6408C210.939 88.7164 201.058 82.47 210.341 87.5134C208.093 85.5964 209.19 85.4905 212.738 87.5978C215.681 89.3544 213.66 88.4194 215.029 89.6006C215.206 89.7488 219.043 92.2975 219.351 92.2547C218.946 92.5531 219.996 93.7015 218.887 93.5755C218.725 93.5566 217.138 92.5318 217.491 93.2103C217.667 93.55 218.243 94.4114 217.982 94.5409C218.402 94.6006 218.849 94.6521 219.279 94.7096C221.703 96.177 221.945 96.554 223.081 97.659C223.094 97.5079 222.186 96.2592 223.933 97.5769C224.022 97.646 223.994 97.8682 224.873 98.5512C226.656 99.9354 226.997 100.232 225.241 99.8087C229.285 102.013 229.744 103.104 233.79 105.544C233.43 104.39 231.939 103.621 228.246 101.396C228.188 101.141 228.213 100.942 228.151 100.683C232.737 104.162 230.381 102.577 233.309 104.059C234.026 104.42 237.524 106.867 236.624 105.649C236.412 105.36 234.195 103.905 234.554 103.915C234.623 103.915 237.36 105.624 237.569 105.825C240.197 108.329 234.663 105.092 242.949 110.44C243.175 110.586 243.378 110.455 243.829 110.726C244.678 111.237 244.542 111.457 245.303 111.908C246.065 112.36 247.271 112.771 248.182 113.794C249.846 115.663 244.944 112.661 243.016 110.976C241.744 110.974 256.701 121.442 257.649 122.117C261.847 124.797 255.042 120.086 254.815 119.677C254.724 119.503 255.454 118.626 253.323 118.018C252.693 117.839 254.632 119.567 253.306 118.774C251.98 117.981 252.671 118.062 252.593 117.978C252.327 117.691 250.917 116.849 250.77 116.689C248.509 114.228 249.38 113.503 252 117.309C253.753 118.101 250.543 115.131 252.604 116.282C255.111 117.683 256.51 119.324 256.789 119.552C260.131 122.294 256.541 118.773 260.666 122.053C262.941 123.872 256.85 119.9 262.251 123.768C266.767 127.028 264.497 125.04 265.179 124.796C265.339 124.74 267.903 126.417 264.513 123.996C264.326 124.052 264.026 124.086 263.728 124.046C262.973 123.35 262.059 121.719 261.637 121.379C259.568 119.718 259.422 120.115 258.426 118.811C259.034 119.89 257.732 118.567 257.11 118.259C254.802 117.113 257.435 119.162 253.081 115.441C253.547 116.069 253.957 116.653 254.403 117.268C253.841 116.879 253.277 116.491 252.714 116.105C252.193 115.076 249.181 113.052 252.183 114.494C249.035 112.098 247.655 111.296 246.708 111.15C246.527 111.122 246.022 110.813 245.446 110.427C245.487 110.598 245.42 110.993 245.304 110.968C244.276 110.738 243.409 109.324 243.981 109.402C243.587 109.118 243.271 108.885 243.162 108.803C242.465 108.28 244.007 109.046 243.469 108.583C243.292 108.429 241.236 107.096 241.25 106.992C241.346 106.326 244.443 108.928 237.93 104.13C237.46 104.482 240.643 106.47 239.514 106.423C238.303 106.371 237.025 104.495 236.211 104.888C236.14 104.687 236.136 104.556 236.094 104.354C233.194 102.835 233.514 102.277 232.762 101.611C231.304 100.308 223.864 95.5482 230.217 100.333C229.213 99.7459 228.206 99.1236 227.21 98.5406C227.615 97.4249 227.973 98.1863 223.327 95.0144C222.304 94.3186 222.236 93.6717 220.889 93.5386C221.345 93.121 218.064 91.4863 217.814 91.2481C216.21 89.6898 223.433 93.4406 223.75 94.9013C225.128 95.2938 224.833 95.7473 226.165 96.5152C228.096 97.6327 228.39 97.6953 230.361 99.4527C232.834 100.376 222.031 93.781 228.89 97.3133C235.896 100.539 272.859 125.979 280.992 132.638C296.039 144.139 303.79 150.47 316.533 161.783C317.802 162.872 327.213 171.42 324.82 170.117C324.479 169.924 320.29 166.414 323.393 169.958C322.896 169.09 325.054 170.814 325.245 170.95C329.618 174.05 327.506 171.792 333.546 177.538ZM346.862 199.041C339.468 191.195 344.668 197.185 342.407 196.265C343.369 197.253 344.325 198.242 345.281 199.239C345.074 198.935 344.869 198.634 344.661 198.331C344.66 198.33 344.659 198.329 344.658 198.327C345.391 198.562 346.128 198.803 346.862 199.041ZM445.154 344.119C444.866 343.788 444.578 343.462 444.277 343.099C443.733 341.787 443.184 340.484 442.629 339.18C442.779 339.297 442.928 339.408 443.078 339.526C443.774 341.053 444.46 342.581 445.154 344.119ZM241.683 110.239C240.204 108.801 239.996 109.432 237.925 107.687C237.935 108.264 237.981 108.852 238.007 109.435C239.744 110.521 240.231 110.634 242.008 111.985C241.88 111.714 241.746 111.437 241.622 111.168C241.297 110.986 240.95 110.794 240.636 110.616C240.401 109.941 243.385 111.896 241.689 110.242C241.687 110.241 241.685 110.24 241.683 110.239ZM224.298 98.9886C223.412 98.3431 219.887 95.8321 219.284 95.6877C217.244 95.1752 227.754 101.35 219.858 97.0355C219.843 97.1363 219.76 97.1916 219.71 97.2695C221.075 98.1707 222.437 99.0711 223.814 99.9849C223.938 99.6276 224.183 99.3539 224.298 98.9886ZM318.912 171.827C317.721 170.648 311.6 165.573 313.246 167.617C313.732 168.213 316.768 170.142 317.748 171.074C318.382 171.676 317.436 171.258 318.791 172.334C318.834 172.175 318.908 172.024 318.908 171.824C318.909 171.825 318.91 171.826 318.912 171.827ZM322.522 172.539C321.209 171.405 319.864 170.272 318.533 169.146C319.221 170.279 321.228 171.793 320.978 172.283C320.6 171.99 320.226 171.7 319.847 171.408C319.657 171.076 319.47 170.748 319.283 170.421C317.985 169.626 318.56 170.338 316.555 168.411C317.264 170.134 317.208 170.646 321.26 173.279C320.305 172.989 319.969 174.596 322.589 175.653C323.079 175.852 321.653 174.355 321.655 174.318C321.675 173.83 322.676 174.435 322.665 173.946C322.661 173.725 321.734 172.871 321.744 172.581C321.753 172.443 322.842 173.033 322.522 172.539ZM323.768 176.27C323.226 176.071 324.19 177.7 325.411 178.705C327.316 180.275 324.843 177.236 323.768 176.27ZM445.159 344.127C445.157 344.124 445.156 344.122 445.154 344.119C445.156 344.12 445.157 344.121 445.158 344.122C445.158 344.124 445.158 344.125 445.159 344.127ZM228.854 102.241C227.682 101.705 226.116 100.661 226.068 100.992C225.583 100.608 225.084 100.217 224.588 99.8274C224.544 99.9075 224.504 99.9909 224.46 100.07C226.017 101.138 227.526 102.183 229.06 103.252C228.997 102.92 228.95 102.596 228.854 102.241ZM211.723 91.1553C209.743 89.9051 211.201 91.2837 210.658 91.1854C210.116 91.0866 208.424 89.865 208.484 90.2374C209.652 90.961 210.87 91.7199 212.053 92.4607C211.904 92.0023 211.851 91.5973 211.719 91.1529C211.721 91.1537 211.722 91.1545 211.723 91.1553ZM375.848 232.139C374.905 230.852 375.565 231.148 373.27 228.965C373.271 228.966 373.273 228.968 373.274 228.97C374.993 231.434 377.255 234.56 379.519 236.987C378.511 235.199 377.331 234.168 375.848 232.139ZM245.75 114.157C246.445 114.333 243.99 112.385 243.29 112.189C242.158 111.869 244.693 113.886 245.75 114.157ZM415.392 283.099C417.338 284.757 415.627 280.365 412.676 276.516C412.423 276.182 413.911 278.934 413.283 278.24C413.22 278.169 412.306 276.722 411.985 276.427C411.664 276.131 411.698 276.639 411.232 276.115C410.418 275.199 409.181 272.714 408.471 272.084C408.378 272.002 409.049 273.612 409.097 273.709C409.898 275.283 411.178 276.45 411.329 276.677C412.1 277.835 411.699 277.845 411.823 278.184C412.057 278.823 412.815 279.723 412.85 279.799C413.738 281.737 411.204 277.632 410.741 277.158C409.503 275.872 410.145 277.399 407.668 273.992C407.432 273.667 404.792 269.668 407.819 274.908C400.585 265.5 410.745 280.087 411.864 281.641C412.41 282.345 411.961 281.037 412.374 281.412C413.32 282.268 414.49 284.014 414.79 283.604C415.414 282.73 413.387 280.741 412.496 279.054C412.786 279.105 413.004 279.056 413.382 279.253C412.838 278.925 415.253 282.977 415.39 283.1C415.391 283.1 415.391 283.1 415.392 283.099ZM397.711 258.844C396.406 256.514 396.01 257.037 394.86 254.851C393.134 253.445 395.673 256.853 395.931 257.271C397.13 259.175 396.602 259.488 398.087 261.25C397.925 260.397 397.849 259.66 397.711 258.844ZM410.534 278.089C409.302 276.775 411.035 279.432 411.052 279.575C411.279 281.093 406.2 273.077 410.534 278.089ZM312.058 163.957C311.397 163.342 311.624 163.949 310.969 163.49C310.312 163.028 308.44 161.041 308.362 161.226C308.296 161.417 311.716 165.072 307.883 161.853C307.941 162.045 307.846 162.067 307.845 162.194C308.878 163.1 309.915 164.019 310.943 164.933C310.581 164.204 310.214 163.45 309.864 162.749C310.605 163.076 310.724 163.599 310.755 163.626C310.755 163.626 310.755 163.625 310.756 163.625C311.851 164.56 313.543 165.339 312.058 163.957ZM361.809 214.809C362.557 214.504 360.504 213.479 359.85 212.894C359.196 212.307 358.6 211.229 358.66 211.782C359.44 212.979 361.726 214.841 361.809 214.808C361.809 214.808 361.809 214.808 361.809 214.809ZM389.125 247.21C387.627 245.548 387.687 245.949 386.203 243.655C386.122 243.851 386.038 244.049 385.959 244.243C387.275 245.957 387.607 245.512 388.953 247.635C389.172 247.984 388.303 247.54 389.529 248.935C389.386 248.367 389.258 247.779 389.125 247.21ZM381.824 238.915C383.432 240.902 385.857 241.577 382.409 238.292C381.894 237.805 380.608 237.418 381.824 238.915ZM329.48 179.934C326.357 176.9 329.775 180.482 330.431 181.435C322.976 174.576 331.31 182.171 331.498 183.433C332.538 184.138 334.546 185.404 332.791 183.51C332.057 182.722 332.181 183.158 332.136 183.112C330.751 181.697 331.182 181.595 329.48 179.934ZM400.411 262.586C400.308 262.458 400.245 262.816 399.903 262.419C399.561 262.021 399.025 260.952 398.829 260.948C398.633 260.944 399.9 262.95 400.411 263.48C400.923 264.009 401.345 263.744 400.411 262.586ZM391.084 248.69C389.626 247.061 391.013 250.474 391.297 250.851C393.822 254.158 390.777 248.769 391.084 248.69ZM337.873 185.848C333.773 182.492 335.95 185.788 337.936 188.466C338.316 188.701 338.705 188.945 339.081 189.177C337.238 188.217 334.364 186.203 340.193 191.268C337.319 188.182 339.932 190.564 339.975 190.559C341.114 190.084 336.298 186.037 337.877 185.851C337.876 185.85 337.874 185.849 337.873 185.848ZM404.217 268.556C405.515 270.434 408.977 275.286 407.848 272.698C406.643 271.307 405.434 269.929 404.217 268.556ZM272.553 129.598C271.226 128.24 269.839 127.205 267.975 125.842C269.397 127.414 268.273 126.635 267.651 126.298C266.708 125.786 268.78 127.312 268.769 127.339C268.497 127.626 267.147 126.688 270.145 128.922C269.323 128.476 268.511 128.04 267.691 127.597C269.961 129.313 270.343 129.923 271.597 131.261C270.656 129.596 272.213 131.366 274.113 132.339C275.063 132.825 273.23 130.289 272.548 129.594C272.55 129.595 272.551 129.597 272.553 129.598ZM334.084 181.924C333.599 181.645 333.114 181.433 332.628 181.182C332.206 180.796 331.785 180.409 331.363 180.024C331.396 179.888 331.441 179.755 331.463 179.614C330.944 179.068 331.039 179.393 330.866 179.249C330.867 179.249 330.867 179.248 330.867 179.248C328.395 177.194 327.46 176.28 325.886 174.291C325.632 174.562 325.378 174.834 325.124 175.105C325.559 175.463 325.998 175.827 326.431 176.188C326.786 176.247 327.142 176.308 327.497 176.369C327.896 176.896 328.29 177.42 328.687 177.949C329.115 178.257 329.622 178.635 329.998 178.897C331.164 181.445 327.37 176.853 327.032 177.135C326.82 177.307 331.137 181.403 331.883 181.868C331.992 181.934 331.602 180.481 332.891 182.288C333.092 182.573 332.014 183.852 334.643 184.525C335.018 184.623 334.906 183.059 334.084 181.924ZM318.608 166.685C320.389 169.723 311.923 160.604 315.318 164.827C313.854 164.178 314.07 164.362 314.922 165.71C314.997 165.829 314.117 165.223 314.173 165.296C315.081 166.43 316.45 167.492 316.166 167.825C316.469 168.067 316.754 168.297 317.057 168.54C316.135 167.15 318.227 168.667 319.197 169.082C319.639 169.271 318.901 168.533 319.276 168.688C319.414 168.745 320.422 169.802 320.564 169.736C320.876 169.579 320.499 168.634 319.511 167.411C319.512 167.411 319.512 167.411 319.512 167.41C319.209 167.165 318.912 166.93 318.608 166.685ZM368.285 218.539C368.214 219.361 369.589 221.199 366.482 218.066C366.537 218.307 366.597 218.552 366.652 218.793C367.147 219.346 367.626 219.882 368.126 220.447C370.937 221.028 372.096 225.436 371.331 222.628C371.247 222.321 369.992 221.084 371.396 222.165C371.394 222.163 371.393 222.161 371.392 222.159C369.736 220.395 369.369 220.292 368.285 218.539ZM357.159 206.705C352.474 203.44 361.845 212.862 360.588 211.012C360.48 210.838 356.426 206.789 357.159 206.705ZM387.039 240.262C385.512 238.273 384.879 238.562 384.846 238.909C384.812 239.257 386.074 240.469 386.181 240.67C386.53 241.322 385.513 240.155 385.959 241.006C386.111 241.285 388.586 244.881 388.727 245.025C389.529 245.809 388.983 244.183 389.227 244.397C390.022 245.092 390.644 246.388 391.061 246.45C391.954 246.586 389.84 244.893 389.561 244.55C388.724 243.507 389.076 243.384 388.521 242.548C387.965 241.712 387.469 241.27 386.946 240.559C386.772 240.322 387.116 240.364 387.039 240.262ZM380.772 234.637C382.815 236.362 379.234 231.038 378.654 230.533C376.97 229.034 379.803 233.807 380.772 234.637ZM323.724 173.569C325.735 174.935 321.837 170.903 320.554 169.939C320.671 170.251 323.034 173.097 323.724 173.569ZM338.913 186.88C337.263 185.407 338.761 188.055 340.07 189.349C341.219 189.729 340.425 189.084 339.588 188.218C338.751 187.352 340.199 188.032 338.913 186.88ZM402.738 262.525C402.481 262.12 397.681 256.152 400.075 259.839C400.262 260.115 403.402 264.453 403.697 264.745C404.302 265.321 403.421 263.543 402.738 262.525ZM346.925 193.828C345.773 193.32 344.976 192.497 345.328 193.65C345.329 193.652 345.33 193.653 345.331 193.654C343.15 191.666 343.862 190.782 343.398 190.345C341.773 188.826 342.682 190.889 341.513 190.088C343.969 192.212 342.928 191.935 344.628 193.716C345.009 194.115 346.785 195.475 347.155 195.568C347.526 195.66 347.175 194.424 346.925 193.828ZM408.952 271.408C407.659 269.149 405.694 267.618 407.603 270.663C408.53 272.15 409.738 272.788 408.952 271.408ZM222.59 94.7055C222.817 95.0871 223.054 95.4745 223.307 95.8707C222.473 95.3975 221.637 94.9268 220.803 94.4586C221.475 94.8081 222.148 95.1602 222.826 95.5164C221.346 94.4947 220.846 93.7481 222.586 94.703C222.587 94.7038 222.588 94.7047 222.59 94.7055ZM167.457 62.6185C166.838 62.0734 165.166 61.8722 165.321 62.0065C166.49 63.0108 168.315 63.3743 167.457 62.6185ZM322.349 169.824C320.202 167.743 321.063 169.847 322.362 171.135C321.664 170.239 323.565 171.007 322.349 169.824ZM187.139 73.3959C187.332 73.6003 187.527 73.8059 187.747 74.0266C186.981 73.4608 186.877 73.3129 187.139 73.3959ZM402.742 261.034C402.543 260.617 400.647 257.836 400.306 257.522C399.6 256.869 400.688 259.311 401.711 260.477C401.824 260.606 402.941 261.447 402.738 261.028C402.739 261.03 402.74 261.032 402.742 261.034ZM219.371 92.2362C219.37 92.2468 219.363 92.2529 219.351 92.2547C219.358 92.2492 219.362 92.2411 219.371 92.2362ZM107.474 32.728C107.485 32.7491 107.488 32.7668 107.481 32.7791C107.48 32.7634 107.472 32.744 107.474 32.728ZM389.289 241.403C389.337 239.946 387.355 238.21 388.25 240.102C388.301 240.207 389.125 241.186 389.289 241.403Z" fill="#B59F84"/>
</svg>
