<svg width="21" height="24" viewBox="0 0 21 24" fill="none" xmlns="http://www.w3.org/2000/svg">
<path d="M20.3298 16.5818C19.7965 16.5818 19.2851 16.3749 18.9081 16.0067C18.531 15.6384 18.3191 15.139 18.3191 14.6182V5.89091C18.3191 4.32854 17.6836 2.83017 16.5524 1.72541C15.4212 0.620648 13.887 0 12.2872 0C10.6875 0 9.15323 0.620648 8.02203 1.72541C6.89082 2.83017 6.25532 4.32854 6.25532 5.89091V6.98182H3.85707C3.58724 6.98269 3.32217 7.05139 3.0874 7.18131C2.85264 7.31124 2.65607 7.49801 2.51665 7.72364L0.223404 11.4545C0.0772486 11.6921 2.23481e-05 11.964 0 12.2411V22.4727C0 22.8778 0.16476 23.2663 0.458035 23.5527C0.75131 23.8391 1.14908 24 1.56383 24H12.2872C12.702 24 13.0998 23.8391 13.393 23.5527C13.6863 23.2663 13.8511 22.8778 13.8511 22.4727V12.2422C13.851 11.9651 13.7738 11.6932 13.6277 11.4556L11.3355 7.72364C11.1961 7.49801 10.9995 7.31124 10.7648 7.18131C10.53 7.05139 10.2649 6.98269 9.99511 6.98182H7.59574V5.89091C7.59574 4.67574 8.09002 3.51033 8.96985 2.65107C9.84968 1.79182 11.043 1.30909 12.2872 1.30909C13.5315 1.30909 14.7248 1.79182 15.6046 2.65107C16.4844 3.51033 16.9787 4.67574 16.9787 5.89091V14.6182C16.9787 15.4862 17.3318 16.3186 17.9602 16.9324C18.5887 17.5461 19.441 17.8909 20.3298 17.8909C20.5075 17.8909 20.678 17.8219 20.8037 17.6992C20.9294 17.5764 21 17.41 21 17.2364C21 17.0628 20.9294 16.8963 20.8037 16.7735C20.678 16.6508 20.5075 16.5818 20.3298 16.5818ZM9.99399 8.29091C10.033 8.29114 10.0712 8.30133 10.1049 8.32047C10.1386 8.33961 10.1666 8.36702 10.1861 8.4L12.4794 12.1331C12.4994 12.1661 12.5102 12.2038 12.5106 12.2422V22.4727C12.5106 22.5306 12.4871 22.5861 12.4452 22.627C12.4033 22.6679 12.3465 22.6909 12.2872 22.6909H1.56383C1.50458 22.6909 1.44776 22.6679 1.40586 22.627C1.36396 22.5861 1.34043 22.5306 1.34043 22.4727V12.2422C1.34117 12.2037 1.35235 12.166 1.37282 12.1331L3.66495 8.4C3.68444 8.36702 3.71243 8.33961 3.74614 8.32047C3.77984 8.30133 3.81809 8.29114 3.85707 8.29091H6.25532V13.7455C6.25532 13.9191 6.32593 14.0855 6.45162 14.2083C6.57731 14.331 6.74778 14.4 6.92553 14.4C7.10328 14.4 7.27375 14.331 7.39944 14.2083C7.52513 14.0855 7.59574 13.9191 7.59574 13.7455V8.29091H9.99399Z" fill="#25282B"/>
</svg>
