<svg width="179" height="124" viewBox="0 0 179 124" fill="none" xmlns="http://www.w3.org/2000/svg">
<path d="M0.679093 97.5413C-0.266382 98.5475 -0.21717 100.13 0.789031 101.075C1.79523 102.021 3.37738 101.971 4.32285 100.965L2.50097 99.2532L0.679093 97.5413ZM151.889 25.8312C152.755 24.7554 152.584 23.1817 151.508 22.3162L133.977 8.21292C132.901 7.34748 131.327 7.51801 130.462 8.59381C129.597 9.66962 129.767 11.2433 130.843 12.1088L146.426 24.645L133.89 40.2284C133.025 41.3042 133.195 42.8779 134.271 43.7434C135.347 44.6088 136.92 44.4383 137.786 43.3625L151.889 25.8312ZM2.50097 99.2532L4.32285 100.965C24.6743 79.3067 82.4599 34.0913 150.211 26.7496L149.941 24.2641L149.672 21.7787C80.2979 29.2963 21.4858 75.3984 0.679093 97.5413L2.50097 99.2532Z" fill="white"/>
<path d="M89.0053 79.2388C85.2763 76.66 78.699 70.6813 82.222 67.3966C79.032 59.4702 78.4727 56.9828 79.4606 56.4591C80.4484 55.9355 85.6615 64.8142 85.6734 65.314C85.6853 65.8139 84.5549 60.3391 85.5427 59.8155C86.5306 59.2919 89.1368 63.7312 89.1487 64.2311C89.1606 64.731 88.53 59.2444 89.0299 59.2325C89.5297 59.2206 92.1122 62.6602 92.6358 63.6481C93.1594 64.6359 91.0056 58.1853 93.0406 59.6373C95.0757 61.0894 98.3362 72.015 98.4075 75.0142" stroke="white" stroke-width="2"/>
<circle cx="12.5" cy="12.5" r="11.5" transform="matrix(-1 0 0 1 85.5 37.001)" fill="white" fill-opacity="0.5" stroke="white" stroke-width="2"/>
<g filter="url(#filter0_d_6213_6403)">
<path d="M57.708 92.17C56.532 93.778 54.57 95.218 51.822 96.49L50.994 94.942C53.154 93.91 54.732 92.848 55.728 91.756C56.724 90.652 57.222 89.47 57.222 88.21V86.932H59.022V88.21C59.022 89.062 58.866 89.872 58.554 90.64L65.07 94.996L64.098 96.49L57.708 92.17ZM50.184 101.512V99.874H65.88V101.512H50.184ZM79.0964 91.99C79.1924 90.898 79.2404 90.028 79.2404 89.38V89.002H69.0884V87.364H81.0404V88.894C81.0404 90.154 80.9564 91.606 80.7884 93.25C80.6204 94.882 80.3984 96.46 80.1224 97.984L78.3404 97.696C78.5924 96.304 78.7904 94.948 78.9344 93.628C77.7104 93.736 76.2584 93.826 74.5784 93.898C72.8984 93.97 71.4284 94.006 70.1684 94.006H69.0884L68.9984 92.404H70.3304C71.5304 92.404 72.9944 92.368 74.7224 92.296C76.4504 92.212 77.9084 92.11 79.0964 91.99ZM67.2524 101.53V99.874H82.9484V101.53H67.2524ZM93.0687 92.746V93.916H100.017V95.284H84.3207V93.916H91.2867V92.746H86.4087V88.894H96.1287V87.706H86.3367V86.338H97.9287V90.226H88.2087V91.396H98.2707V92.746H93.0687ZM98.1087 100.234H88.0467V101.458H98.5407V102.862H86.2467V98.866H96.3087V97.678H86.1567V96.31H98.1087V100.234ZM110.137 96.742V99.874H117.085V101.53H101.389V99.874H108.355V96.742H103.315V91.162H113.377V88.804H103.225V87.184H115.177V92.746H105.115V95.158H115.519V96.742H110.137ZM135.398 92.35V86.068H137.18V102.772H135.398V93.988H130.556V92.35H135.398ZM127.118 98.416C128.054 98.416 129.074 98.374 130.178 98.29C131.294 98.194 132.374 98.062 133.418 97.894L133.616 99.496C132.584 99.664 131.474 99.802 130.286 99.91C129.11 100.006 127.958 100.054 126.83 100.054H123.95V87.292H132.158V88.948H125.768V98.416H127.118ZM153.098 96.31V99.874H160.046V101.53H144.35V99.874H151.316V96.31H146.276V87.094H148.076V90.154H156.338V87.094H158.138V96.31H153.098ZM156.338 91.774H148.076V94.69H156.338V91.774ZM173.946 102.772V86.068H175.728V102.772H173.946ZM162.534 89.02V87.382H170.598V88.858C170.598 91.198 169.962 93.382 168.69 95.41C167.418 97.438 165.606 99.226 163.254 100.774L162.174 99.352C164.298 97.996 165.93 96.418 167.07 94.618C168.222 92.818 168.798 91.018 168.798 89.218V89.02H162.534Z" fill="white"/>
</g>
<defs>
<filter id="filter0_d_6213_6403" x="49.1875" y="86.0684" width="127.539" height="18.7939" filterUnits="userSpaceOnUse" color-interpolation-filters="sRGB">
<feFlood flood-opacity="0" result="BackgroundImageFix"/>
<feColorMatrix in="SourceAlpha" type="matrix" values="0 0 0 0 0 0 0 0 0 0 0 0 0 0 0 0 0 0 127 0" result="hardAlpha"/>
<feOffset dy="1"/>
<feGaussianBlur stdDeviation="0.5"/>
<feComposite in2="hardAlpha" operator="out"/>
<feColorMatrix type="matrix" values="0 0 0 0 0 0 0 0 0 0 0 0 0 0 0 0 0 0 0.25 0"/>
<feBlend mode="normal" in2="BackgroundImageFix" result="effect1_dropShadow_6213_6403"/>
<feBlend mode="normal" in="SourceGraphic" in2="effect1_dropShadow_6213_6403" result="shape"/>
</filter>
</defs>
</svg>
