<svg width="22" height="25" viewBox="0 0 22 25" fill="none" xmlns="http://www.w3.org/2000/svg">
<path d="M18.3574 10.104V5.90261C18.3574 2.91929 16.2328 0.5 13.6125 0.5C10.9922 0.5 8.86768 2.91929 8.86768 5.90261V10.104M13.6125 8.90392V7.10385" stroke="#25282B" stroke-width="2" stroke-linecap="round"/>
<path d="M0.676292 11.4525L5.38333 18.3815C5.42368 18.4408 5.44681 18.513 5.4495 18.588L5.54401 21.4501C5.56086 21.9349 5.71477 22.4005 5.98269 22.7769C6.25061 23.1534 6.6181 23.4205 7.03006 23.5381L7.28946 23.6125C11.4714 24.813 15.8509 24.7883 20.0222 23.5405C20.4191 23.4225 20.7715 23.1598 21.026 22.7923C21.2805 22.4248 21.4233 21.9726 21.4326 21.5041L21.4956 18.1547C21.586 13.4362 20.248 12.4185 19.5948 11.7345C18.0804 10.148 15.8277 9.76642 13.6642 9.76642C9.91184 9.76642 8.10653 10.9845 7.26846 11.8137C7.18009 11.9053 7.06867 11.9628 6.95007 11.9779C6.83146 11.993 6.71172 11.9649 6.60788 11.8977L2.43434 9.08719C2.25873 8.96877 2.05157 8.92687 1.85105 8.96921C1.65053 9.01155 1.47016 9.13528 1.34318 9.3176L0.681543 10.268C0.564879 10.4364 0.500963 10.6445 0.500011 10.8592C0.499059 11.0739 0.561126 11.2828 0.676292 11.4525Z" stroke="#25282B" stroke-width="2" stroke-linecap="round" stroke-linejoin="round"/>
</svg>
