<svg width="374" height="798" viewBox="0 0 374 798" fill="none" xmlns="http://www.w3.org/2000/svg">
<path opacity="0.6" d="M280.56 558.788C286.718 604.298 280.647 657.371 256.705 697.911C253.817 702.868 253.727 702.376 252.864 703.73C250.453 707.41 249.24 709.765 247.398 712.367C238.324 725.08 228.451 735.867 216.907 745.85C204.822 755.873 209.949 750.39 205.569 753.602C196.805 759.572 204.716 755.118 201.48 757.767C191.516 764.797 180.786 770.928 169.747 776.069C172.388 774.694 174.986 773.276 177.609 771.781C172.898 774.261 166.008 777.363 173.826 773.204C172.045 774.017 170.365 774.737 168.515 775.529C168.216 776.163 159.629 780.02 158.922 780.514C158.223 781.07 163.065 778.957 163.041 778.974C162.921 779.611 142.512 786.99 140.962 787.187C137.006 788.351 140.306 786.801 136.969 787.865C131.21 789.615 135.315 789.526 127.111 790.351C124.083 791.568 123.753 791.429 119.744 792.32C119.216 792.436 119.68 792.587 119.45 792.646C113.401 794.159 117.984 792.685 117.946 792.668C117.301 792.392 110.823 793.905 109.434 794.093C91.996 796.643 79.1439 797.471 60.6398 797.392C56.6468 797.424 44.4558 797.087 40.6114 796.639C36.8117 796.257 38.8795 796.117 36.9043 795.793C33.6475 796.224 30.5815 796.04 23.5314 794.566C20.8053 794.713 21.2038 794.36 16.1225 793.628C11.9115 793.025 4.46361 792.207 -0.00122815 790.578C5.25225 791.818 4.76426 791.454 10.7391 792.464C12.6841 792.999 33.5338 795.924 32.0434 795.04C31.2664 794.687 24.3435 794.077 24.0842 793.966C22.5803 793.438 26.4687 793.621 29.8555 794.151C28.9997 794.113 27.9694 794.049 27.0492 793.993C34.6624 795.308 29.5434 793.216 35.247 795.127C35.9548 795.356 35.6581 795.496 36.8368 795.776C37.0886 795.729 35.6443 795.42 36.9049 795.506C38.1894 795.597 40.6002 796.124 40.9853 795.872C41.5583 795.521 36.2366 795.232 35.8388 795.157C35.8344 795.159 35.8297 795.161 35.8254 795.163C32.3155 794.608 39.6906 795.291 40.0454 795.258C42.3445 795.183 40.8067 794.882 44.235 794.909C46.1883 794.93 51.1454 795.241 52.989 795.252C54.8147 795.271 51.9827 794.989 53.2112 794.987C54.439 794.986 55.9622 795.17 57.4024 795.146C58.0187 795.135 57.9902 794.921 58.288 794.918C61.4813 794.867 59.3839 795.297 62.2808 795.275C64.1538 795.272 70.4546 794.726 66.1039 794.687C68.1938 794.611 70.2281 794.523 72.3 794.408C70.99 794.396 69.6366 794.396 68.3574 794.352C72.2668 794.352 74.0131 793.896 76.4462 793.74C78.8821 793.578 81.0792 793.868 83.7558 793.433C89.4349 792.518 75.3057 793.859 73.5365 793.756C72.8499 793.756 75.4656 793.292 75.8682 793.258C77.6623 793.121 79.8001 793.227 81.1814 793.114C86.1447 792.697 89.1507 792.072 93.8299 791.441C109.819 789.361 129.289 784.67 143.592 779.531C148.948 777.643 152.24 776.715 154.596 775.759C160.072 773.482 160.633 772.873 165.327 770.691C172.304 767.457 181.979 762.44 187.438 759.036C191.251 756.71 194.4 754.17 195.343 753.504C208.604 744.368 222.948 730.967 231.419 720.684C235.422 715.914 237.44 713.704 238.218 712.668C241.485 708.154 240.373 709.176 242.932 705.507C244.296 703.506 244.771 703.271 244.96 703.006C246.593 700.645 246.577 699.957 247.734 698.036C254.301 687.018 259.763 675.854 264.008 663.775C264.311 662.91 264.438 663.039 264.622 662.473C265.396 660.032 264.781 661.085 265.581 658.523C267.233 653.152 268.765 647.615 270.071 641.859C270.201 641.285 270.466 641.073 270.745 639.749C271.021 638.421 271.034 637.375 271.441 635.269C272.485 629.818 273.503 624.587 274.155 618.648C274.261 617.677 274.136 616.399 274.267 614.972C274.698 610.532 275.296 603.792 275.387 599.796C275.73 586.968 274.931 574.909 273.565 562.826C273.241 559.957 273.127 557.303 272.932 555.841C272.485 552.578 272.621 555.075 272.13 551.758C267.967 524.211 260.18 496.872 250.074 470.664C245.983 460.01 240.647 448.135 236.011 438.041C234.192 434.078 234.117 433.221 232.766 430.4C230.323 425.355 229.519 424.611 226.766 419.25C225.72 417.224 224.669 415.007 223.587 412.749C222.382 410.237 221.198 407.691 220 405.326C217.74 400.84 216.384 398.931 213.922 393.782C211.911 389.573 209.307 383.306 207.297 378.595C188.721 335.247 177.02 289.089 174.739 241.493C173.914 224.658 174.158 205.926 176.252 188.658C176.453 187.037 176.544 189.601 177.031 184.344C177.308 181.521 177.438 177.54 178.392 171.155C184.102 132.849 198.391 93.0051 221.545 60.8383C253.004 10.4512 325.626 -16.2187 372.631 10.6258C374.956 11.7542 373.305 12.0841 371.794 11.7744C370.545 11.0873 369.404 10.4239 368.094 9.73312C365.978 10.2405 366.382 9.93065 360.037 7.93061C355.982 6.73345 359.103 8.10705 356.899 7.65961C354.034 6.8797 340.832 5.2089 343.44 4.91769C342.588 4.92913 341.804 4.95309 340.981 4.98279C331.398 3.92406 321.846 4.16703 312.495 5.67488C310.885 5.94117 310.847 6.18903 309.2 6.50056C304.773 7.3716 301.231 8.02092 296.763 9.34105C294.343 10.0818 294.093 10.4354 290.967 11.5038C287.862 12.6197 287.763 12.2216 283.761 14.3559C286.616 13.5466 274.539 18.6374 270.643 21.2189C270.053 21.5432 265.566 24.7989 263.113 26.4763C260.663 28.102 256.912 30.5172 253.449 33.5923C251.812 35.0477 251.085 36.1061 249.379 37.6551C248.186 38.7423 246.554 39.8523 245.054 41.2867C243.526 42.7218 240.609 46.0698 240.07 46.6674C238.081 48.8208 240.137 46.3124 238.763 47.7776C232.056 54.9249 225.065 63.9374 220.022 72.0434C219.393 73.0487 220.486 71.8018 220.407 71.9392C216.332 78.9011 218.382 75.1122 217.04 76.8558C215.667 78.4154 208.368 92.0928 208.822 92.4007C208.137 92.5774 207.003 95.8061 206.643 96.6173C205.227 99.7677 205.097 98.961 203.843 102.104C203.387 103.26 204.648 101.175 204.099 102.39C202.73 105.441 201.166 107.854 199.519 111.906C199.125 112.883 199.203 113.279 198.531 115.033C197.822 116.801 194.986 124.113 196.612 120.864C194.725 125.196 194.609 126.164 192.962 131.48C192.556 132.814 191.668 134.535 190.987 137.384C190.755 138.359 191.092 138.42 190.701 139.877C189.814 143.214 188.663 146.305 187.654 150.659C185.81 158.609 184.429 167.517 183.174 175.89C182.832 178.202 182.561 177.572 182.127 180.965C182.061 181.454 181.868 185.627 181.612 187.953C181.433 189.332 180.598 196.598 180.498 198.093C180.302 200.544 180.612 201.007 180.467 202.352C180.07 206.237 179.73 203.147 180.191 207.787C179.754 209.289 179.704 212.005 179.227 212.868C179.686 214.466 179.156 216.515 179.301 219.622C179.447 222.734 180.445 225.277 179.409 226.01C179.537 227.429 179.901 233.53 179.967 234.568C180.126 237.618 179.773 235.997 179.912 238.305C179.939 238.713 180.11 238.275 180.224 240.893C180.25 242.7 181.165 254.994 181.262 255.785C181.785 264.335 180.604 251.157 180.307 249.364C180.338 249.037 180.371 248.713 180.401 248.365C180.231 244.631 179.932 246.781 179.952 248.483C179.969 250.184 180.431 253.345 180.417 254.776C180.409 255.49 179.831 255.099 179.71 252.957C179.744 255.257 179.3 252.15 179.224 253.067C179.101 254.057 180.117 264.436 180.447 264.438C180.234 262.525 179.961 260.097 179.78 258.15C180.043 255.536 182.508 263.175 182.746 270.16C182.952 275.306 181.322 266.966 183.527 278.967C183.258 277.105 183.072 275.529 182.854 273.844C183.208 273.61 183.182 276.399 183.521 277.794C183.682 278.461 183.322 274.249 183.958 277.857C183.897 281.049 184.828 283.425 185.753 288.525C185.398 287.114 185.05 285.703 184.711 284.294C185.826 293.065 182.18 272.824 184.928 289.829C184.534 287.79 184.184 285.778 183.81 283.721C183.783 284.77 182.925 283.243 182.955 284.174C183.024 286.562 183.836 289.982 184.359 292.847C184.589 294.101 184.282 293.355 184.301 293.46C184.618 295.179 184.774 294.755 185.09 296.259C185.477 298.147 186.434 303.692 186.669 304.582C187.246 306.857 186.843 302.938 186.928 303.148C187.471 304.595 187.957 307.545 188.21 307.33C186.252 300.236 182.629 279.471 186.74 298.084C186.168 292.833 187.057 294.191 188.686 301.593C190.084 307.727 188.949 303.812 189.384 307.028C189.42 307.436 191.25 315.553 191.575 315.922C191.037 315.711 191.316 318.458 190.392 316.804C190.252 316.561 189.443 313.22 189.358 314.478C189.313 315.106 189.327 316.884 189.018 316.676C189.361 317.321 189.735 317.992 190.091 318.645C191.457 323.639 191.507 324.447 191.952 327.227C192.047 327.067 191.886 324.433 192.791 328.247C192.838 328.443 192.686 328.665 193.15 330.611C194.1 334.546 194.298 335.383 192.831 332.568C195.582 340.497 195.545 342.558 198.51 350.642C198.692 348.797 197.467 345.97 194.931 338.425C195.002 338.041 195.126 337.833 195.196 337.44C198.005 347.635 196.472 342.686 198.712 348.233C199.242 349.568 201.747 356.898 201.365 354.289C201.266 353.672 199.672 349.153 200.037 349.61C200.096 349.697 202.123 355.166 202.264 355.669C203.964 361.981 199.375 351.203 206.054 367.971C206.244 368.434 206.514 368.513 206.896 369.385C207.616 371.027 207.386 371.144 208.047 372.609C208.711 374.075 209.883 376.001 210.54 378.365C211.749 382.693 207.302 373.149 205.922 368.737C204.222 367.244 217.607 398.123 218.819 399.749C223.056 407.765 216.286 394.29 216.211 393.505C216.158 393.174 217.248 392.854 215 389.724C214.334 388.799 216.027 393.169 214.753 390.689C213.464 388.162 214.235 389.039 214.171 388.844C213.948 388.166 212.599 385.459 212.486 385.082C210.74 379.296 211.92 379.36 213.695 387.295C215.453 390.319 212.712 382.803 214.703 386.642C217.147 391.345 218.253 394.853 218.522 395.478C221.659 402.632 218.392 394.192 222.39 402.888C224.662 407.735 218.352 395.946 223.88 406.86C225.049 409.133 225.805 410.527 226.276 411.344C227.714 413.846 226.538 411.025 227.2 411.323C227.394 411.412 229.812 415.727 227.241 410.84C227.043 410.466 226.816 410.037 226.557 409.548C226.319 409.427 225.948 409.158 225.598 408.791C224.832 407.064 224.122 403.926 223.707 403.029C221.673 398.642 221.425 399.027 220.623 396.268C221.029 398.317 219.884 395.214 219.262 394.148C216.956 390.16 219.343 395.758 215.51 386.09C215.842 387.428 216.141 388.665 216.463 389.949C215.939 388.83 215.405 387.674 214.884 386.537C214.598 384.608 211.886 378.576 214.792 383.847C212.023 377.186 210.855 374.575 209.863 373.289C209.676 373.045 209.238 372.067 208.76 370.906C208.74 371.17 208.517 371.589 208.401 371.422C207.368 369.929 206.987 367.122 207.574 367.901C207.254 367.061 207.009 366.396 206.924 366.16C206.382 364.668 207.735 367.479 207.34 366.252C207.203 365.848 205.553 361.708 205.618 361.594C206.026 360.882 208.091 367.853 203.385 354.032C202.73 353.886 205.183 360.214 204.03 358.783C202.777 357.242 202.286 353.369 201.281 352.847C201.298 352.513 201.353 352.349 201.402 352.05C199.146 346.62 199.762 346.329 199.313 344.55C198.4 341.093 193.648 325.706 197.399 339.712C196.7 337.701 196.034 335.641 195.379 333.643C196.372 332.845 196.207 334.218 193.634 324.475C193.07 322.288 193.372 321.451 192.221 319.478C192.86 319.613 190.867 313.301 190.806 312.689C190.291 308.756 194.513 322.78 194.089 324.909C195.151 327.174 194.622 327.296 195.458 329.914C196.682 333.692 196.935 334.185 197.978 338.839C199.846 343.115 192.93 321.343 197.631 334.375C200.634 343.605 214.762 382.386 229.747 409.531C236.593 422.422 241.518 432.816 244.056 438.287C258.297 469.675 264.753 487.172 272.661 517.164C273.632 520.198 278.356 542.727 276.722 538.206C276.519 537.509 274.259 527.676 275.478 536.259C275.433 534.461 276.607 539.451 276.705 539.86C279.078 549.35 278.485 543.661 280.56 558.788ZM276.752 603.894C277.355 584.234 276.604 598.649 275.699 594.587C275.686 596.981 275.635 599.605 275.544 602.106C275.628 601.446 275.71 600.793 275.789 600.129C275.789 600.126 275.789 600.123 275.79 600.12C276.12 601.376 276.441 602.64 276.752 603.894ZM62.741 794.094C63.5011 793.962 64.2506 793.827 65.0712 793.691C67.647 793.7 70.2236 793.67 72.7993 793.604C72.4956 793.705 72.2019 793.805 71.8976 793.904C68.8483 794.016 65.7901 794.075 62.741 794.094ZM204.766 366.189C203.757 362.583 203.267 363.124 201.828 358.407C201.592 359.136 201.391 359.925 201.175 360.687C202.564 364.187 203.036 364.922 204.438 368.797C204.402 368.295 204.365 367.783 204.336 367.291C204.056 366.665 203.757 366 203.492 365.394C203.502 364.259 205.953 370.347 204.772 366.201C204.77 366.197 204.768 366.193 204.766 366.189ZM192.373 330.372C191.869 328.501 189.982 320.783 189.537 319.785C187.896 316.429 194.266 337.867 189.302 322.143C189.231 322.24 189.123 322.191 189.034 322.215C189.791 325.153 190.57 328.032 191.382 330.906C191.69 330.649 192.069 330.649 192.373 330.372ZM270.415 533.472C269.956 530.616 266.258 516.623 266.954 521.308C267.182 522.694 269.225 528.8 269.688 531.147C269.995 532.669 269.317 531.04 270.061 534.003C270.176 533.842 270.317 533.728 270.413 533.464C270.414 533.466 270.414 533.469 270.415 533.472ZM273.428 538.754C272.765 535.59 272.049 532.488 271.325 529.481C271.45 531.764 272.585 536.128 272.122 536.542C271.912 535.688 271.694 534.812 271.483 533.985C271.466 533.33 271.449 532.684 271.43 532.036C270.586 529.49 270.812 531.112 269.789 526.216C269.678 529.408 269.402 529.774 271.906 538.249C271.155 536.698 270.102 538.516 271.95 543.067C272.296 543.922 271.747 540.193 271.763 540.141C272.021 539.5 272.639 541.523 272.869 540.845C272.977 540.541 272.543 538.261 272.69 537.876C272.767 537.697 273.483 539.815 273.428 538.754ZM272.7 545.3C272.313 544.383 272.356 547.74 272.891 550.52C273.718 554.857 273.191 547.906 272.7 545.3ZM62.724 794.095C62.7297 794.094 62.7354 794.094 62.741 794.094C62.7382 794.094 62.7354 794.095 62.7325 794.096C62.7297 794.095 62.7268 794.095 62.724 794.095ZM195.11 340.246C194.21 338.059 193.226 334.734 193.011 335.067C192.737 333.96 192.464 332.841 192.2 331.736C192.116 331.773 192.034 331.819 191.95 331.855C192.862 335.147 193.816 338.439 194.819 341.748C194.919 341.26 195.031 340.804 195.11 340.246ZM185.599 304.152C184.698 299.89 185.073 303.545 184.674 302.654C184.27 301.76 183.638 297.937 183.452 298.441C183.955 300.94 184.514 303.585 185.072 306.097C185.229 305.378 185.434 304.837 185.597 304.144C185.598 304.146 185.599 304.149 185.599 304.152ZM258.607 680.843C259.858 678.277 259.716 679.497 261.576 674.116C261.574 674.12 261.572 674.124 261.571 674.127C259.292 679.019 256.144 685.227 253.537 690.594C255.538 687.54 256.579 684.896 258.607 680.843ZM207.716 375.995C208.414 377.033 206.422 371.667 205.75 370.59C204.641 368.841 206.631 374.407 207.716 375.995ZM181.668 766.478C178.153 769.297 186.023 766.09 193.261 760.905C193.892 760.472 188.94 763.336 190.289 762.3C190.428 762.201 193.078 760.528 193.662 760.007C194.25 759.491 193.436 759.732 194.433 758.945C196.19 757.576 200.487 754.971 201.682 753.78C201.841 753.629 199.126 755.18 198.957 755.276C196.245 756.956 193.924 759.011 193.511 759.285C191.394 760.691 191.526 760.187 190.943 760.468C189.845 760.995 188.115 762.247 187.98 762.314C184.545 764.08 192.077 759.532 192.971 758.737C195.432 756.68 192.866 758.132 198.992 753.598C199.577 753.166 206.581 748.084 197.526 754.173C214.29 740.895 188.677 760.224 185.449 761.722C184.114 762.619 186.367 761.644 185.607 762.272C183.877 763.718 180.591 765.656 181.117 765.896C182.257 766.403 186.281 763.331 189.302 761.617C189.108 761.993 189.101 762.246 188.636 762.782C189.382 762.027 181.943 766.307 181.667 766.477C181.668 766.477 181.668 766.478 181.668 766.478ZM224.206 732.593C227.777 729.34 227.081 729.156 230.31 726.118C232.478 722.832 227.4 728.596 226.74 729.196C223.829 732.056 223.472 731.548 220.638 734.609C221.914 733.869 223.002 733.3 224.206 732.593ZM191.581 758.832C194.108 756.806 189.278 759.958 189.038 760.016C186.598 760.906 201.025 751.494 191.581 758.832ZM267.329 514.895C266.92 513.264 266.9 514.374 266.43 512.962C265.946 511.476 264.911 506.831 264.749 506.972C264.616 507.155 266.524 515.839 264.017 507.277C263.998 507.598 263.894 507.521 263.842 507.688C264.512 510.053 265.156 512.416 265.818 514.933C265.761 513.516 265.673 511.958 265.627 510.678C266.219 511.91 266.144 512.839 266.161 512.899C266.161 512.899 266.161 512.899 266.161 512.898C266.885 515.492 268.228 518.547 267.329 514.895ZM271.961 642.908C272.601 643.554 272.603 639.593 272.812 638.005C273.034 636.423 273.706 634.299 273.235 635.056C272.561 637.581 271.901 642.841 271.962 642.908C271.962 642.908 271.962 642.908 271.961 642.908ZM241.168 712.646C243.397 709.243 242.871 709.678 245.809 705.719C245.55 705.777 245.288 705.831 245.032 705.889C242.842 709.113 243.452 709.194 240.598 712.756C240.124 713.332 240.741 711.809 238.835 714.573C239.606 713.933 240.401 713.288 241.168 712.646ZM251.503 695.503C249.197 699.516 248.562 703.475 252.347 695.729C252.884 694.583 253.187 692.489 251.503 695.503ZM275.75 556.996C274.718 549.214 275.72 558.039 275.731 560.229C273.076 541.964 276.149 562.243 275.489 564.241C275.951 566.466 276.837 570.603 276.516 565.934C276.369 563.978 276.215 564.713 276.205 564.596C275.863 560.986 276.291 561.386 275.75 556.996ZM218.22 738.468C218.43 738.257 217.915 738.387 218.571 737.703C219.23 737.021 220.903 735.662 220.944 735.398C220.99 735.145 217.799 738.027 216.895 738.991C216 739.964 216.306 740.372 218.22 738.468ZM239.125 716.483C241.381 713.228 236.705 717.79 236.162 718.434C231.469 724.294 239.059 716.178 239.125 716.483ZM279.2 575.224C277.984 565.85 277.76 572.754 277.601 578.764C277.747 579.563 277.892 580.382 278.029 581.168C277.203 577.534 276.338 571.242 277.503 585.343C277.352 577.628 277.775 584.082 277.808 584.13C279.026 584.962 277.87 573.443 279.201 575.233C279.2 575.23 279.2 575.227 279.2 575.224ZM208.358 746.675C205.201 749.35 196.568 755.82 200.933 753.263C203.472 751.124 205.942 748.932 208.358 746.675ZM235.009 425.522C233.766 422.341 232.353 419.511 230.389 415.706C231.769 419.323 230.581 417.09 229.9 415.98C228.87 414.294 231.049 418.538 231.024 418.56C230.63 418.656 229.236 415.994 232.316 422.121C231.441 420.669 230.565 419.233 229.672 417.774C232.028 422.467 232.327 423.67 233.49 426.749C232.772 423.557 234.206 427.535 236.167 430.762C237.15 432.375 235.65 427.147 235.003 425.511C235.005 425.514 235.007 425.518 235.009 425.522ZM278.511 565.406C278.273 564.433 277.991 563.547 277.727 562.606C277.595 561.563 277.458 560.514 277.313 559.465C277.417 559.32 277.53 559.196 277.627 559.029C277.487 557.635 277.387 558.198 277.318 557.787C277.319 557.787 277.32 557.787 277.32 557.786C276.327 551.967 275.998 549.772 275.61 545.164C275.243 545.226 274.877 545.288 274.511 545.35C274.718 546.357 274.92 547.372 275.116 548.373C275.399 548.877 275.681 549.383 275.961 549.886C276.033 551.067 276.096 552.231 276.153 553.401C276.358 554.322 276.583 555.395 276.764 556.219C276.374 561.093 275.624 550.351 275.147 550.355C274.898 550.292 276.39 561.008 276.711 562.612C276.762 562.834 277.273 560.396 277.31 564.422C277.308 565.05 275.692 565.444 277.429 569.552C277.672 570.139 278.53 567.943 278.511 565.406ZM272.526 526.266C272.92 532.472 268.696 510.183 270.175 519.916C269.018 517.313 269.157 517.824 269.409 520.661C269.431 520.911 268.833 519.056 268.855 519.22C269.265 521.837 270.102 524.857 269.68 524.977C269.862 525.655 270.03 526.292 270.208 526.968C269.958 524.034 271.27 528.495 271.979 530.157C272.305 530.916 271.957 529.084 272.237 529.722C272.343 529.96 272.786 532.52 272.947 532.593C273.31 532.741 273.419 531.063 273.05 528.286C273.051 528.286 273.051 528.286 273.051 528.285C272.879 527.607 272.704 526.947 272.526 526.266ZM271.08 655.934C270.206 656.773 268.894 660.756 270.845 652.925C270.626 653.28 270.404 653.645 270.183 653.997C269.822 655.307 269.46 656.569 269.068 657.883C269.555 662.373 265.18 668.743 267.931 664.652C268.231 664.205 269.105 661.131 268.444 664.233C268.445 664.229 268.447 664.225 268.449 664.221C269.745 660.011 269.7 659.416 271.08 655.934ZM276.904 626.936C277.153 616.755 274.05 640.585 274.904 636.721C275.08 636.287 276.465 626.106 276.904 626.936ZM250.258 703.895C252.725 699.998 252.266 699.361 251.828 699.642C251.387 699.921 249.933 702.756 249.676 703.079C248.858 704.139 250.295 701.703 249.227 703.075C248.905 703.562 244.307 710.018 244.092 710.3C243.055 712.05 245.216 709.946 244.933 710.457C244.022 712.131 242.259 714.05 242.168 714.663C241.971 715.997 244.29 711.721 244.734 711.04C246.103 709.031 246.269 709.405 247.352 707.931C248.428 706.452 248.979 705.382 249.868 704.032C250.164 703.582 250.131 704.091 250.258 703.895ZM256.586 690.065C254.831 694.549 260.686 684.442 261.095 683.056C262.492 679.234 257.489 687.975 256.586 690.065ZM274.021 541.6C275.176 545.888 273.622 535.65 272.841 532.851C272.795 533.305 273.653 540.17 274.021 541.6ZM279.367 577.873C278.996 573.818 278.532 579.27 278.673 582.649C279.295 584.605 279.124 582.754 279.037 580.531C278.945 578.307 279.634 581.065 279.367 577.873ZM217.806 741.482C218.539 740.984 228.195 730.848 222.339 736.354C221.934 736.818 214.799 743.49 214.252 743.991C213.234 745.095 216.136 742.976 217.806 741.482ZM280.612 597.156C280.17 595.037 280.174 592.996 279.614 594.912C279.614 594.915 279.614 594.918 279.614 594.92C279.454 589.631 280.541 589.349 280.504 588.193C280.32 584.127 279.612 588.003 279.276 585.46C279.674 591.369 279.088 589.685 279.07 594.117C279.07 595.079 279.335 599.138 279.513 599.761C279.701 600.367 280.361 598.281 280.612 597.156ZM202.574 754.086C206.491 751.414 209.399 748.131 204.152 752.029C201.574 753.898 200.175 755.697 202.574 754.086ZM193.122 323.124C193.119 323.874 193.126 324.646 193.145 325.451C192.625 323.775 192.116 322.099 191.62 320.426C192.036 321.742 192.459 323.061 192.891 324.389C192.086 321.201 192.057 319.664 193.12 323.116C193.12 323.119 193.121 323.121 193.122 323.124ZM179.566 208.769C179.81 207.339 179.351 204.483 179.288 204.829C178.801 207.539 179.226 210.755 179.566 208.769ZM274.568 534.808C273.558 529.508 273.351 533.221 273.958 536.635C273.735 534.555 275.14 537.917 274.568 534.808ZM180.307 249.364C180.26 249.851 180.214 250.342 180.174 250.889C180.155 249.182 180.215 248.885 180.307 249.364ZM220.031 740.606C220.709 740.114 225.198 735.854 225.699 735.18C226.775 733.816 223.024 736.861 221.076 738.91C220.865 739.14 219.373 741.117 220.04 740.597C220.037 740.6 220.034 740.603 220.031 740.606ZM191.604 315.928C191.598 315.94 191.588 315.937 191.575 315.922C191.585 315.926 191.594 315.922 191.604 315.928ZM208.882 92.3794C208.854 92.4017 208.833 92.4106 208.822 92.4007C208.84 92.3959 208.865 92.3798 208.882 92.3794ZM248.883 707.993C250.809 706.797 252.941 702.481 250.536 705.419C250.405 705.585 249.165 707.582 248.883 707.993Z" fill="#B59F84"/>
</svg>
