<svg width="293" height="737" viewBox="0 0 293 737" fill="none" xmlns="http://www.w3.org/2000/svg">
<path opacity="0.6" d="M184.219 501.201C188.033 539.143 188.447 581.297 180.336 618.96C179.316 623.644 179.1 623.232 178.772 624.519C177.842 628.036 177.65 630.034 176.906 632.702C173.379 645.163 169.246 656.396 163.506 667.791C157.367 679.363 159.441 673.452 157.07 677.273C152.193 684.51 157.023 678.718 155.379 681.824C149.815 690.462 143.378 698.373 135.894 705.48C137.602 703.679 139.271 701.814 140.918 699.865C137.872 703.197 133.231 707.462 138.258 702.012C137.061 703.143 135.917 704.157 134.661 705.256C134.682 705.877 128.791 711.174 128.351 711.75C127.952 712.401 131.311 709.502 131.295 709.517C131.461 710.207 116.619 720.767 115.298 721.099C112.269 722.807 114.64 720.839 112.111 722.34C107.72 724.806 111.16 724.189 104.445 726.014C102.166 727.549 101.855 727.458 98.6714 728.742C98.2509 728.908 98.6699 729.009 98.4876 729.089C93.7007 731.157 97.2686 729.272 97.2314 729.26C96.6473 729.063 91.4846 731.126 90.3396 731.411C76.1432 735.245 65.3726 736.432 50.0153 736.393C46.6603 736.443 36.5977 735.992 33.3686 735.463C30.2533 735.021 31.9671 734.915 30.3532 734.558C27.6579 734.933 25.0165 734.675 19.3079 733.056C17.0291 733.139 17.3976 732.8 13.2057 731.945C9.71159 731.235 3.62136 730.253 0.00173616 728.524C4.30159 729.885 3.93437 729.514 8.81614 730.658C10.3783 731.239 27.5219 734.637 26.3645 733.715C25.7311 733.349 20.0082 732.587 19.8143 732.472C18.6226 731.916 21.7793 732.176 24.5948 732.783C23.8844 732.726 23.0118 732.637 22.2621 732.563C28.5297 734.04 24.4084 731.849 29.0205 733.865C29.5929 734.106 29.3392 734.24 30.2983 734.54C30.509 734.498 29.3326 734.164 30.3698 734.272C31.4266 734.385 33.3852 734.949 33.7142 734.704C34.2039 734.364 29.837 733.99 29.5086 733.905C29.5047 733.907 29.5009 733.909 29.497 733.911C26.6272 733.294 32.6844 734.108 32.9718 734.077C34.8667 734.037 33.6206 733.715 36.47 733.792C38.0983 733.843 42.1848 734.206 43.6873 734.226C45.1813 734.256 42.8694 733.956 43.8748 733.963C44.8673 733.969 46.15 734.162 47.3398 734.142C47.8506 734.133 47.8288 733.919 48.0753 733.916C50.7152 733.87 48.9811 734.299 51.3731 734.274C52.9259 734.273 58.0775 733.68 54.5117 733.671C56.2148 733.583 57.9127 733.475 59.6116 733.332C58.532 733.338 57.4153 733.352 56.3576 733.32C59.5873 733.283 61.0055 732.797 62.993 732.598C64.9721 732.39 66.8178 732.626 68.9871 732.114C73.5924 731.039 62.0621 732.775 60.6065 732.663C60.0435 732.673 62.1718 732.169 62.4984 732.126C63.9629 731.958 65.7025 732.018 66.8475 731.867C70.9107 731.318 73.2938 730.594 77.0715 729.757C89.9763 727.024 105.089 720.533 115.287 713.492C119.096 710.93 121.543 709.466 123.142 708.194C126.878 705.135 127.156 704.439 130.214 701.572C134.797 697.283 140.8 690.758 144.016 686.447C146.202 683.595 147.794 680.637 148.313 679.83C155.581 668.79 162.183 653.975 165.692 643.411C167.344 638.546 168.332 636.296 168.639 635.251C169.887 630.777 169.276 631.837 170.266 628.225C170.775 626.316 171.135 626.014 171.211 625.759C171.863 623.491 171.609 622.94 172.012 621.121C174.329 610.534 176.172 600.299 177.332 589.883C177.417 589.113 177.573 589.198 177.617 588.697C177.796 586.534 177.44 587.516 177.637 585.243C178.047 580.361 178.406 575.943 178.699 570.892C178.727 570.398 178.949 570.188 179.002 569.05C179.054 567.909 178.893 567.035 178.969 565.226C179.162 560.597 179.483 556.211 179.502 551.237C179.505 550.418 179.25 549.402 179.245 548.163C179.233 544.129 179.342 538.815 179.23 535.487C178.866 524.459 178.062 514.95 177.082 504.513C176.849 502.04 176.882 500.064 176.758 498.819C176.478 496.068 176.481 498.171 176.175 495.374C173.581 472.036 169.875 449.384 164.995 426.145C163.154 417.334 160.301 405.848 158.326 397.499C157.481 393.915 157.613 393.184 156.979 390.63C155.833 386.06 155.24 385.325 153.932 380.454C153.714 379.643 153.505 378.801 153.301 377.939C152.521 374.642 151.863 371.107 151.049 367.921C150.025 363.902 149.203 362.143 148.086 357.594C147.188 353.943 146.094 348.291 145.189 344.165C136.832 306.095 131.657 267.44 132.647 227.909C132.985 214.162 134.087 198.369 136.541 184.322C136.776 182.988 136.82 185.098 137.415 180.739C137.744 178.407 137.95 175.103 138.95 169.884C144.934 138.229 158.011 105.804 176.871 78.987C204.262 38.2983 249.566 7.37479 291.701 0.0694698C293.739 -0.303616 292.905 0.885307 291.795 1.47135C290.646 1.60235 289.566 1.68479 288.35 1.82805C287.24 3.38015 287.368 2.97213 282.026 4.61822C278.745 5.66006 281.507 5.24322 279.818 5.97101C277.573 6.85428 267.432 11.4488 269.138 9.97348C268.545 10.3576 268 10.7192 267.425 11.0997C260.04 14.3071 253.039 17.9139 246.265 21.9301C245.099 22.6251 245.162 22.8645 243.963 23.5943C240.735 25.5742 238.115 26.9822 234.859 29.1061C233.098 30.2666 232.984 30.6661 230.702 32.1931C228.433 33.7349 228.258 33.3844 225.442 35.9261C227.669 34.843 218.728 41.0539 215.788 43.6547C215.329 44.0275 212.125 47.301 210.271 48.9246C208.397 50.5431 205.485 52.8825 202.899 55.6813C201.685 56.9963 201.159 58.0014 199.833 59.4141C198.916 60.3934 197.601 61.3691 196.44 62.6277C195.274 63.8757 193.005 66.8404 192.568 67.3702C191 69.2413 192.581 67.0584 191.5 68.3216C186.263 74.434 180.56 82.0088 176.39 88.7907C175.876 89.6217 176.81 88.6153 176.746 88.7294C173.443 94.4939 175.079 91.3408 173.941 92.755C172.724 94.1434 166.674 105.259 167.053 105.628C166.39 105.753 165.478 108.431 165.172 109.094C163.971 111.673 163.804 110.971 162.743 113.551C162.356 114.501 163.478 112.826 163.005 113.818C161.837 116.275 160.373 118.322 158.943 121.592C158.597 122.388 158.69 122.73 158.099 124.163C157.49 125.574 154.896 131.649 156.412 128.968C154.677 132.529 154.61 133.291 153.114 137.647C152.741 138.751 151.924 140.073 151.276 142.506C151.066 143.303 151.399 143.38 151.039 144.569C150.222 147.291 149.128 149.79 148.163 153.365C146.386 159.943 145.015 167.222 143.66 174.123C143.292 176.015 143.034 175.474 142.549 178.26C142.477 178.668 142.216 182.093 141.9 184.059C141.692 185.238 140.684 191.129 140.531 192.372C140.261 194.388 140.554 194.791 140.365 195.897C139.831 199.11 139.611 196.46 139.887 200.442C139.396 201.644 139.236 203.871 138.722 204.55C139.113 205.893 138.495 207.544 138.488 210.12C138.482 212.696 139.338 214.876 138.262 215.45C138.313 216.723 138.323 221.661 138.318 222.538C138.284 225.053 138.036 223.699 138.024 225.607C138.023 225.945 138.225 225.593 138.161 227.759C138.082 229.224 138.052 239.56 138.064 240.157C137.86 247.205 137.805 236.315 137.626 234.848C137.683 234.584 137.739 234.322 137.796 234.041C137.906 230.869 137.448 232.682 137.339 234.108C137.229 235.494 137.438 238.104 137.305 239.276C137.238 239.86 136.696 239.501 136.749 237.743C136.597 239.625 136.406 237.057 136.256 237.802C136.068 238.597 136.177 247.171 136.494 247.228C136.457 245.611 136.402 243.613 136.388 242C136.871 239.888 138.689 246.234 138.243 252.22C137.928 256.427 137.175 249.506 138.112 259.458C138.045 257.915 138.026 256.615 137.982 255.227C138.357 255.06 138.045 257.333 138.233 258.498C138.322 259.054 138.409 255.586 138.66 258.58C138.258 261.198 138.922 263.159 139.254 267.572C139.064 266.351 138.88 265.132 138.701 263.92C138.816 271.383 137.49 254.111 138.283 268.611C138.131 266.857 138.012 265.12 137.871 263.378C137.725 264.237 137.046 262.921 136.971 263.687C136.772 265.691 137.188 268.675 137.359 271.101C137.432 272.134 137.22 271.507 137.226 271.594C137.327 273.012 137.534 272.679 137.658 273.924C137.807 275.486 138.021 280.084 138.129 280.834C138.392 282.758 138.523 279.496 138.578 279.681C138.921 280.883 139.003 283.423 139.281 283.261C138.369 277.19 137.279 259.997 139.059 275.534C139.157 271.22 139.886 272.376 140.526 278.547C141.084 283.681 140.489 280.389 140.484 283.107C140.471 283.434 141.141 290.497 141.391 290.771C140.893 290.556 140.752 292.805 140.091 291.388C139.995 291.205 139.681 288.338 139.415 289.385C139.282 289.929 139.03 291.367 138.756 291.173C138.997 291.723 139.264 292.297 139.516 292.855C140.096 297.028 140.003 297.66 140.001 300.016C140.119 299.891 140.381 297.676 140.663 300.947C140.677 301.116 140.494 301.286 140.634 302.96C140.923 306.349 140.974 307.072 139.999 304.568C141.393 311.572 140.957 313.03 142.357 320.039C142.87 318.495 142.24 316.11 141.08 309.696C141.214 309.38 141.371 309.218 141.507 308.894C142.468 317.564 141.827 313.273 143.003 318.058C143.283 319.216 144.331 325.602 144.457 323.385C144.481 322.858 143.774 318.921 144.043 319.342C144.089 319.418 145.033 324.197 145.068 324.637C145.471 330.067 143.22 320.701 146.273 335.241C146.359 335.634 146.605 335.729 146.791 336.495C147.143 337.937 146.894 338.007 147.221 339.298C147.549 340.591 148.268 342.331 148.38 344.377C148.589 348.122 146.411 339.637 145.982 335.846C144.777 334.348 150.756 361.686 151.325 363.158C153.378 370.355 150.262 358.305 150.353 357.667C150.382 357.391 151.51 357.255 150.097 354.411C149.678 353.569 150.26 357.36 149.627 355.163C148.991 352.938 149.519 353.735 149.505 353.572C149.449 352.975 148.772 350.54 148.748 350.213C148.372 345.173 149.513 345.368 149.405 352.217C150.403 354.973 149.494 348.339 150.53 351.806C151.797 356.038 151.986 359.038 152.094 359.598C153.336 365.925 152.308 358.507 153.958 366.248C154.899 370.579 151.862 359.932 154.368 369.747C156.529 378.018 155.644 373.484 156.373 373.933C156.546 374.041 157.895 378.547 156.227 372.369C156.032 372.233 155.748 371.955 155.508 371.598C155.229 370.053 155.354 367.353 155.183 366.552C154.345 362.634 154.005 362.922 153.918 360.534C153.802 362.28 153.47 359.562 153.13 358.602C151.87 355.003 152.854 359.959 151.436 351.452C151.446 352.605 151.455 353.716 151.45 354.777C151.221 353.822 150.967 352.753 150.729 351.742C150.903 350.091 149.645 344.713 151.258 349.485C150.099 343.568 149.515 341.269 148.835 340.08C148.707 339.856 148.494 338.991 148.277 337.973C148.202 338.19 147.896 338.51 147.819 338.358C147.137 336.996 147.358 334.643 147.763 335.349C147.633 334.637 147.536 334.074 147.503 333.875C147.293 332.613 148.011 335.025 147.888 333.993C147.847 333.668 147.098 330.097 147.175 329.982C147.704 329.439 148.37 335.502 146.478 323.393C145.872 323.195 147.031 328.769 146.185 327.442C145.269 326.007 145.534 322.717 144.649 322.173C144.73 321.897 144.815 321.766 144.919 321.522C143.735 316.75 144.38 316.593 144.273 315.107C144.07 312.373 141.97 298.863 143.277 311.011C142.946 309.29 142.636 307.456 142.326 305.72C143.427 305.16 143.072 306.24 142.095 297.895C141.887 296.064 142.316 295.408 141.487 293.709C142.101 293.872 141.088 288.586 141.1 288.002C141.175 284.725 143.27 296.617 142.473 298.288C143.158 300.261 142.62 300.327 143.017 302.598C143.602 305.887 143.772 306.326 144 310.357C145.129 314.136 141.958 295.14 144.417 306.56C145.959 314.61 153.048 351.073 160.167 376.128C162.918 386.235 164.965 394.409 166.011 398.636C172.796 426.582 175.803 441.09 179.834 466.613C180.291 469.123 182.88 487.969 181.7 484.165C181.545 483.611 180.185 475.276 180.63 482.513C180.741 481.022 181.478 485.195 181.549 485.537C183.221 493.428 182.927 488.89 184.219 501.201ZM180.835 538.755C180.405 522.498 180.402 534.462 179.294 531.122C179.383 533.225 179.458 535.302 179.518 537.368C179.563 536.823 179.607 536.284 179.65 535.737C179.65 535.734 179.65 535.732 179.65 535.729C180.048 536.738 180.443 537.751 180.835 538.755ZM51.7477 733.092C52.3713 732.958 52.985 732.821 53.6549 732.68C55.7389 732.678 57.8898 732.624 59.9959 732.522C59.7499 732.626 59.5119 732.73 59.2645 732.834C56.7531 732.985 54.2499 733.065 51.7477 733.092ZM145.403 333.668C145.183 330.673 144.58 330.962 144.11 326.877C143.738 327.46 143.386 328.097 143.025 328.709C143.684 331.799 143.999 332.478 144.529 335.733C144.603 335.325 144.676 334.908 144.752 334.51C144.613 333.976 144.464 333.409 144.333 332.894C144.585 331.98 145.673 337.143 145.406 333.678C145.405 333.675 145.404 333.672 145.403 333.668ZM139.908 302.685C139.721 301.024 139.088 294.569 138.795 293.734C137.721 290.827 140.59 308.938 138.198 295.627C138.113 295.7 138.015 295.651 137.923 295.662C138.208 298.099 138.515 300.546 138.847 303.036C139.192 302.851 139.564 302.888 139.908 302.685ZM175.849 479.99C175.607 477.594 173.539 465.83 173.695 469.742C173.751 470.901 175.11 476.059 175.349 478.028C175.508 479.308 174.987 477.919 175.448 480.425C175.576 480.286 175.728 480.2 175.847 479.983C175.848 479.986 175.848 479.988 175.849 479.99ZM178.381 484.523C177.986 481.887 177.552 479.213 177.139 476.711C177.025 478.59 177.766 482.328 177.271 482.64C177.136 481.917 177.001 481.2 176.863 480.474C176.902 479.89 176.95 479.379 176.992 478.834C176.405 476.689 176.456 478.043 175.955 473.941C175.52 476.593 175.151 476.837 176.91 484.055C176.3 482.737 175.078 484.222 176.571 488.08C176.849 488.804 176.589 485.672 176.612 485.63C176.92 485.102 177.373 486.809 177.656 486.249C177.785 485.999 177.54 484.085 177.721 483.768C177.811 483.623 178.348 485.408 178.381 484.523ZM177.155 489.967C176.835 489.19 176.636 492.002 177.006 494.346C177.579 498 177.448 492.158 177.155 489.967ZM51.7338 733.093C51.7384 733.092 51.743 733.092 51.7477 733.092C51.7453 733.093 51.7431 733.093 51.7407 733.094C51.7384 733.093 51.7361 733.093 51.7338 733.093ZM140.939 311.232C140.441 309.329 140.028 306.417 139.761 306.681C139.678 305.725 139.594 304.761 139.516 303.81C139.427 303.832 139.339 303.863 139.251 303.885C139.604 306.707 140 309.663 140.385 312.417C140.571 312.033 140.762 311.675 140.939 311.232ZM137.129 280.398C136.808 276.847 136.691 279.861 136.415 279.102C136.136 278.339 136.007 275.18 135.757 275.577C135.934 277.652 136.134 279.831 136.345 281.961C136.597 281.368 136.873 280.945 137.128 280.391C137.129 280.393 137.129 280.395 137.129 280.398ZM176.723 604.822C177.18 602.443 177.366 603.475 177.67 598.638C177.67 598.641 177.669 598.644 177.669 598.648C176.795 603.196 175.636 608.91 174.959 613.694C175.844 610.844 175.986 608.546 176.723 604.822ZM146.166 342.062C146.618 343.007 145.852 338.322 145.424 337.357C144.719 335.783 145.467 340.612 146.166 342.062ZM142.205 694.289C140.365 697.596 145.786 692.855 149.694 686.641C150.04 686.122 147.085 689.764 147.782 688.554C147.856 688.438 149.378 686.368 149.654 685.776C149.932 685.19 149.345 685.599 149.856 684.679C150.752 683.092 153.359 679.682 153.841 678.409C153.92 678.229 152.263 680.251 152.156 680.385C150.543 682.538 149.453 684.863 149.22 685.2C148.027 686.921 147.928 686.455 147.556 686.836C146.856 687.551 145.941 689.021 145.842 689.129C143.673 691.497 148.121 685.757 148.531 684.868C149.745 682.496 148.163 684.413 151.472 678.95C151.796 678.414 155.538 672.401 150.461 679.828C158.988 664.418 145.527 687.207 143.451 689.25C142.691 690.356 144.196 688.955 143.811 689.687C142.937 691.374 140.968 693.825 141.507 693.91C142.659 694.1 144.829 690.431 146.667 688.207C146.661 688.576 146.773 688.778 146.593 689.367C146.914 688.534 142.356 694.097 142.203 694.288C142.204 694.289 142.204 694.289 142.205 694.289ZM164.219 654.971C165.975 651.437 165.285 651.468 166.903 648.149C167.49 644.899 165.325 650.938 165.011 651.582C163.636 654.67 163.159 654.23 161.934 657.572C162.746 656.61 163.472 655.831 164.219 654.971ZM147.398 685.291C148.666 682.953 145.939 686.808 145.768 686.907C144.078 688.278 152.258 676.714 147.398 685.291ZM174.847 464.466C174.652 463.1 174.49 464.013 174.209 462.824C173.931 461.638 173.499 457.441 173.327 457.573C173.164 457.72 173.93 465.395 172.564 457.782C172.502 458.059 172.41 457.985 172.336 458.126C172.685 460.229 173.024 462.337 173.35 464.413C173.471 463.226 173.601 462.003 173.712 460.851C174.144 461.987 173.941 462.694 173.951 462.756C173.951 462.756 173.952 462.756 173.952 462.756C174.327 464.933 175.278 467.525 174.847 464.466ZM180.742 571.513C181.482 571.964 180.797 568.688 180.754 567.34C180.716 565.997 181.06 564.147 180.709 564.834C180.415 567.021 180.664 571.469 180.743 571.513C180.743 571.513 180.742 571.513 180.742 571.513ZM171.316 634.492C172.052 631.206 171.767 631.532 172.985 627.725C172.768 627.83 172.548 627.935 172.334 628.04C171.532 631.099 172.081 631.148 170.838 634.725C170.629 635.309 170.598 633.924 169.937 636.635C170.387 635.925 170.862 635.205 171.316 634.492ZM174.662 618.191C173.869 621.994 174.648 625.335 175.527 618.179C175.65 617.108 175.242 615.302 174.662 618.191ZM179.51 499.775C178.877 493.333 179.415 500.683 179.34 502.351C177.612 487.471 179.593 503.903 178.958 505.711C179.351 507.593 180.148 511.083 179.936 507.139C179.842 505.488 179.67 506.109 179.663 506.01C179.436 502.968 179.838 503.262 179.51 499.775ZM161.457 661.402C161.55 661.172 161.156 661.417 161.437 660.679C161.719 659.943 162.612 658.368 162.537 658.139C162.467 657.92 160.892 661.159 160.527 662.184C160.168 663.216 160.605 663.473 161.457 661.402ZM170.945 638.1C171.717 634.917 169.262 639.758 169.044 640.402C167.192 646.24 170.735 637.885 170.945 638.1ZM182.471 514.954C181.362 507.042 181.02 512.967 180.863 517.9C181.01 518.54 181.156 519.196 181.299 519.825C180.476 516.921 179.545 511.865 180.819 523.206C180.578 516.989 181.07 522.181 181.107 522.218C182.3 522.857 181.132 513.591 182.472 514.961C182.472 514.959 182.471 514.957 182.471 514.954ZM156.469 670.763C154.872 673.868 150.395 681.392 152.982 678.166C154.196 675.759 155.356 673.297 156.469 670.763ZM160.303 386.843C159.877 384.012 159.215 381.453 158.292 378.007C158.706 381.215 158.128 379.188 157.755 378.167C157.192 376.617 158.212 380.46 158.186 380.475C157.787 380.501 157.102 378.083 158.545 383.629C158.061 382.294 157.577 380.973 157.086 379.63C158.174 383.877 158.175 384.926 158.548 387.664C158.63 384.892 159.039 388.42 160.168 391.392C160.733 392.878 160.524 388.289 160.301 386.833C160.302 386.837 160.303 386.84 160.303 386.843ZM181.943 506.687C181.731 505.869 181.476 505.124 181.244 504.331C181.147 503.455 181.047 502.557 180.951 501.741C181.061 501.625 181.179 501.526 181.283 501.394C181.208 500.286 181.083 500.733 181.034 500.406C181.035 500.406 181.035 500.406 181.036 500.406C180.331 495.706 180.132 493.742 180.061 489.92C179.692 489.964 179.323 490.007 178.954 490.051C179.09 490.896 179.224 491.748 179.355 492.588C179.605 493.014 179.854 493.442 180.103 493.868C180.103 494.855 180.099 495.829 180.094 496.809C180.249 497.577 180.421 498.499 180.56 499.159C179.924 503.107 179.717 494.298 179.263 494.246C179.001 494.274 179.924 502.947 180.229 504.336C180.274 504.522 180.86 502.468 180.771 505.861C180.754 506.39 179.114 506.731 180.768 510.19C181.002 510.683 181.892 508.822 181.943 506.687ZM178.662 474.101C178.345 479.242 176.718 460.657 177.046 468.753C176.212 466.549 176.285 466.975 176.2 469.329C176.192 469.536 175.819 467.976 175.822 468.112C175.913 470.292 176.412 472.829 175.981 472.909C176.087 473.479 176.185 474.014 176.29 474.582C176.356 472.141 177.177 475.892 177.72 477.297C177.969 477.939 177.805 476.407 178.019 476.947C178.099 477.148 178.291 479.287 178.445 479.353C178.792 479.489 179.053 478.102 178.971 475.791C178.972 475.791 178.972 475.791 178.972 475.791C178.871 475.223 178.766 474.671 178.662 474.101ZM182.431 582.192C181.76 583.07 181.326 586.411 181.563 579.852C181.422 580.163 181.282 580.483 181.14 580.793C181.067 581.858 180.984 582.979 180.891 584.135C182.332 587.788 179.68 593.763 181.344 589.927C181.525 589.509 181.648 586.827 181.741 589.495C181.741 589.491 181.742 589.488 181.743 589.484C182.007 585.796 181.837 585.306 182.431 582.192ZM183.201 557.794C182.112 549.44 182.244 569.237 182.615 566.019C182.684 565.585 182.627 557.171 183.201 557.794ZM176.42 625.246C177.313 621.567 176.692 621.149 176.377 621.477C176.059 621.804 175.708 624.413 175.59 624.728C175.214 625.764 175.671 623.485 175.174 624.828C175.026 625.3 173.201 631.469 173.104 631.848C172.807 633.54 174.002 631.274 173.934 631.762C173.717 633.367 172.846 635.354 172.999 635.873C173.329 637.002 173.806 632.963 173.968 632.292C174.48 630.293 174.78 630.528 175.219 629.122C175.657 627.703 175.774 626.726 176.109 625.445C176.22 625.017 176.373 625.432 176.42 625.246ZM177.652 612.64C177.441 616.557 179.711 607.338 179.742 606.129C179.934 602.741 177.782 610.818 177.652 612.64ZM178.743 486.911C179.558 490.503 178.808 481.981 178.315 479.563C178.226 480.005 178.472 485.696 178.743 486.911ZM182.629 517.141C182.275 513.854 181.773 518.295 181.954 520.999C182.597 522.552 182.399 521.069 182.303 519.285C182.204 517.5 182.896 519.697 182.629 517.141ZM162.393 663.982C162.769 663.417 167.018 652.376 164.17 658.543C163.983 659.059 160.633 666.431 160.406 666.96C160.011 668.121 161.582 665.651 162.393 663.982ZM184.315 533.061C183.775 531.308 183.7 529.553 183.219 531.214C183.219 531.216 183.219 531.218 183.219 531.221C182.848 526.725 183.952 526.442 183.878 525.462C183.602 522.056 182.977 525.295 182.593 523.24C183.12 528.13 182.5 526.805 182.643 530.562C182.676 531.411 183.132 534.753 183.348 535.231C183.568 535.712 184.115 533.984 184.315 533.061ZM154.731 678.441C156.896 675.226 157.981 671.713 155.178 676.328C153.794 678.542 153.402 680.379 154.731 678.441ZM141.805 296.75C141.684 297.361 141.568 297.99 141.457 298.648C141.215 297.236 140.978 295.828 140.748 294.428C140.954 295.532 141.163 296.641 141.378 297.76C141.091 295.095 141.299 293.844 141.804 296.743C141.805 296.745 141.805 296.748 141.805 296.75ZM139.226 201.208C139.523 200.079 139.18 197.567 139.102 197.879C138.512 200.173 138.81 202.811 139.226 201.208ZM179.854 481.28C179.333 476.765 178.785 479.948 179.087 482.776C179.048 481.042 180.147 483.878 179.854 481.28ZM137.626 234.848C137.542 235.242 137.458 235.64 137.375 236.083C137.49 234.69 137.571 234.452 137.626 234.848ZM163.954 662.67C164.321 662.102 166.486 657.313 166.633 656.667C167.002 655.271 164.981 658.762 164.144 660.994C164.055 661.242 163.598 663.266 163.959 662.66C163.957 662.663 163.956 662.667 163.954 662.67ZM141.418 290.778C141.41 290.787 141.401 290.784 141.391 290.771C141.4 290.775 141.409 290.772 141.418 290.778ZM167.111 105.614C167.085 105.631 167.065 105.637 167.053 105.628C167.071 105.625 167.094 105.613 167.111 105.614ZM176.647 628.819C177.964 627.433 178.391 623.506 177.226 626.396C177.163 626.56 176.751 628.429 176.647 628.819Z" fill="#B59F84"/>
</svg>
