<svg width="644" height="137" viewBox="0 0 644 137" fill="none" xmlns="http://www.w3.org/2000/svg">
<path d="M388.427 105.493C413.168 91.3273 441.463 78.2073 468.863 69.8416C472.261 68.8032 472.109 69.1442 473.067 68.8899C475.683 68.209 477.139 67.4639 479.011 66.9629C488.332 64.4808 496.899 62.5261 506.222 60.9018C515.696 59.3387 511.401 60.96 514.724 60.6233C521.208 60.0664 515.589 59.791 518.078 59.1845C525.578 58.1959 533.092 57.5729 540.635 57.296C538.792 57.4946 536.941 57.7127 535.131 57.9428C538.313 57.7224 543.148 57.6357 537.604 58.246C538.839 58.2445 539.984 58.2701 541.233 58.2837C541.574 57.8528 547.279 57.6083 547.857 57.3779C548.387 57.1268 545.088 57.27 545.129 57.2534C545.334 56.8635 558.77 57.1903 559.725 57.3518C562.252 57.5201 560.023 57.9355 562.161 57.9834C565.913 58.1035 563.515 56.959 568.446 58.6038C570.44 58.315 570.639 58.5505 573.179 58.8087C573.513 58.8434 573.277 58.5703 573.425 58.5775C577.271 58.7681 574.284 58.9406 574.303 58.9677C574.614 59.4184 578.688 59.6713 579.58 59.8361C590.327 61.7615 598.128 63.6397 609.026 67.0216C611.456 67.7377 618.606 70.0811 620.784 71.1038C622.971 72.0809 621.665 71.8768 622.744 72.4928C624.792 72.5761 626.674 73.2682 630.421 75.7325C632.171 76.0443 631.691 76.2454 634.593 77.7696C636.864 78.9453 641.28 81.0398 643.191 83.2646C640.59 81.2485 640.656 81.6084 637.421 79.7009C636.46 78.8761 624.83 72.9135 625.412 73.9578C625.788 74.4237 629.7 76.035 629.855 76.1969C630.587 76.9245 628.237 76.1248 626.428 75.1295C626.931 75.2978 627.524 75.5132 628.049 75.7017C623.96 73.3194 626.264 76.0412 623.501 73.3715C623.161 73.0492 623.386 72.9648 622.778 72.5192C622.613 72.5242 623.368 73.0378 622.646 72.7616C621.914 72.4795 620.623 71.5928 620.302 71.765C619.847 72.0081 622.964 73.1301 623.161 73.2536C623.164 73.2524 623.167 73.2512 623.171 73.25C625.058 74.3045 620.922 72.5373 620.672 72.4969C619.262 72.1977 620.04 72.7121 618.047 72.1555C616.931 71.84 613.968 70.6901 612.946 70.3911C611.884 70.0705 613.454 70.8079 612.736 70.6061C612.019 70.4045 611.176 69.9708 610.308 69.7423C609.937 69.6452 609.89 69.8546 609.711 69.8054C607.776 69.2854 609.157 69.2479 607.458 68.7609C606.372 68.4421 602.477 67.7923 605.044 68.6361C603.789 68.3256 602.546 68.0238 601.331 67.7463C602.09 68.0069 602.85 68.2526 603.615 68.5389C601.31 67.8089 600.213 67.9175 598.729 67.5852C597.236 67.2552 596.033 66.5329 594.381 66.3997C590.846 66.1064 599.408 67.7346 600.437 68.1379C600.837 68.2707 599.188 68.2119 598.94 68.1642C597.855 67.9441 596.587 67.4012 595.783 67.2351C592.843 66.6306 590.83 66.5665 588.024 66.1359C578.24 64.5923 565.919 63.7369 556.529 63.7121C552.962 63.6879 550.954 63.3564 549.349 63.3903C545.612 63.4903 545.232 63.8275 542.025 63.987C537.186 64.2277 530.484 64.5201 526.535 64.9159C523.8 65.1773 521.319 65.8167 520.595 65.9222C510.724 67.3223 498.824 69.7055 490.721 71.7352C486.983 72.6593 485.079 72.8245 484.298 73.0413C480.921 74.0013 481.91 74.0379 479.226 74.7664C477.775 75.1661 477.421 74.9773 477.224 75.0229C475.482 75.4376 475.243 75.8966 473.901 76.3163C466.247 78.7226 458.878 81.0019 451.377 83.8129C450.829 84.0185 450.819 83.8472 450.467 83.9908C448.959 84.6138 449.771 84.576 448.227 85.1972C445.035 86.4872 441.66 87.8121 438.212 89.2366C437.879 89.3747 437.647 89.2436 436.884 89.5694C436.119 89.8966 435.619 90.3285 434.41 90.8427C431.275 92.1767 427.929 93.4231 424.703 94.9139C424.16 95.1655 423.594 95.7106 422.776 96.0944C420.231 97.2835 416.22 98.9855 414.1 100.042C406.936 103.599 400.446 107.233 393.798 110.981C393.072 111.39 392.358 111.738 391.718 112.04C390.961 112.398 390.307 112.685 389.855 112.932C387.959 113.962 389.494 113.378 387.573 114.417C371.92 122.821 354.909 128.778 337.335 132.381C330.436 133.824 321.974 135.276 315.18 135.82C312.354 136.048 311.818 135.773 309.83 135.911C306.279 136.135 305.654 136.563 301.889 136.737C298.874 136.867 295.443 136.516 292.328 136.512C289.212 136.502 287.76 136.854 284.163 136.759C281.221 136.679 277.12 136.257 273.911 136.019C244.537 133.854 216.139 126.993 188.471 116.879C178.708 113.31 167.956 109.102 158.28 104.462C157.371 104.025 158.929 104.31 155.942 103.078C154.34 102.413 151.995 101.72 148.351 100.057C126.653 90.1611 104.627 77.3399 84.0688 64.6709C53.2819 45.7759 21.1855 25.024 0.368618 1.08612C-0.617099 -0.0576259 0.604133 -0.19849 1.44614 0.206751C1.94074 0.904159 2.37187 1.58908 2.89527 2.33845C4.50943 2.2249 4.11811 2.29879 7.26104 5.18109C9.20626 6.95462 7.95209 5.21359 9.06828 5.99424C10.4454 6.97053 17.2639 11.9613 15.5424 11.5074C16.0282 11.7403 16.5063 11.9731 16.956 12.1778C21.5648 15.8539 26.3686 19.4646 31.1094 22.8797C31.9419 23.4792 32.1263 23.3188 32.9914 23.9401C35.3656 25.6426 36.9439 27.0452 39.2992 28.79C40.572 29.7306 40.9119 29.6405 42.5782 30.903C44.2496 32.1649 44.001 32.449 46.4865 33.7669C45.2844 32.3123 51.6631 37.3839 54.1246 39.0759C54.4924 39.3344 57.5144 40.9522 59.0043 42.0457C60.4897 43.1388 62.6546 44.9627 65.1411 46.4664C66.2804 47.1532 67.1302 47.3312 68.3342 48.1176C69.1808 48.6704 70.0315 49.5901 71.0995 50.3135C72.1645 51.0369 74.64 52.3765 75.0753 52.6546C76.6424 53.6583 74.8102 52.7083 75.8715 53.4124C80.8778 56.7332 86.9057 60.6616 92.0429 63.6258C92.6803 63.9946 91.9363 63.2581 92.0241 63.3021C96.4525 65.6447 94.0093 64.5276 95.0551 65.4133C96.0767 66.2959 104.381 71.0469 104.66 70.7033C104.65 71.3068 106.698 72.0215 107.188 72.2824C109.092 73.2998 108.499 73.4867 110.395 74.3958C111.091 74.7291 109.936 73.725 110.653 74.139C112.42 75.1591 113.758 76.4729 116.109 77.8209C116.676 78.1459 116.968 78.0551 117.986 78.6181C119 79.1852 123.188 81.735 121.416 80.2584C123.866 81.9893 124.473 82.082 127.515 83.6816C128.285 84.0859 129.117 84.9184 130.82 85.6672C131.396 85.92 131.535 85.6071 132.379 86.0334C134.309 87.0055 135.98 88.2421 138.422 89.4621C142.996 91.7471 148.057 93.8781 152.865 96.1666C154.176 96.7893 153.703 96.9547 155.627 97.8271C155.91 97.9554 158.356 98.72 159.683 99.3299C160.48 99.7038 164.577 101.695 165.418 102.063C166.806 102.678 167.185 102.475 167.927 102.855C170.075 103.948 168.107 103.667 171.037 104.145C171.777 104.849 173.36 105.446 173.694 106.072C174.794 105.972 175.803 106.893 177.645 107.43C179.488 107.968 181.294 107.616 181.355 108.757C182.234 108.959 185.868 110.081 186.475 110.282C188.263 110.886 187.216 110.812 188.569 111.259C188.808 111.338 188.627 111.065 190.138 111.624C191.125 112.01 198.444 114.526 198.878 114.679C203.786 116.616 196.088 113.974 194.942 113.789C194.77 113.67 194.6 113.553 194.414 113.43C192.24 112.582 193.348 113.437 194.316 113.879C195.283 114.322 197.22 114.765 198.008 115.181C198.4 115.388 197.974 115.812 196.736 115.329C198.03 115.936 196.136 115.485 196.619 115.811C197.147 116.181 203.205 118.204 203.334 117.923C202.196 117.553 200.78 117.108 199.639 116.722C198.307 115.743 203.376 115.583 207.355 117.525C210.249 118.925 205.114 117.822 212.444 119.546C211.34 119.204 210.416 118.882 209.416 118.56C209.419 118.16 210.931 119.052 211.808 119.18C212.229 119.242 209.814 118.249 212.003 118.797C213.712 119.866 215.291 119.75 218.439 120.605C217.539 120.461 216.638 120.313 215.739 120.162C220.946 122.026 208.567 118.717 218.846 121.8C217.595 121.48 216.354 121.132 215.099 120.806C215.648 121.17 214.521 121.468 215.028 121.74C216.366 122.459 218.537 122.85 220.274 123.34C221.035 123.554 220.521 123.583 220.585 123.601C221.627 123.894 221.455 123.607 222.378 123.831C223.537 124.117 226.825 125.172 227.374 125.274C228.793 125.551 226.566 124.534 226.711 124.533C227.657 124.536 229.436 125.152 229.411 124.845C224.963 124.043 212.43 120.404 223.954 122.943C220.929 121.67 222.005 121.296 226.523 122.375C230.264 123.248 227.792 122.913 229.673 123.661C229.917 123.766 234.93 125.053 235.233 124.901C234.929 125.314 236.487 126.078 235.279 126.309C235.102 126.345 233.029 125.854 233.67 126.395C233.99 126.667 234.942 127.311 234.721 127.516C235.187 127.442 235.676 127.35 236.149 127.267C239.282 127.884 239.687 128.147 241.336 128.806C241.283 128.658 239.815 127.793 242.178 128.434C242.301 128.468 242.362 128.688 243.573 129.022C246.017 129.689 246.529 129.841 244.51 130.074C249.724 130.683 250.724 131.526 256.049 132.135C255.108 131.218 253.228 131.155 248.364 130.466C248.185 130.251 248.118 130.056 247.933 129.837C254.293 131.339 251.129 130.759 254.827 130.969C255.722 131.024 260.499 131.788 258.971 131.055C258.61 130.887 255.644 130.472 256.015 130.331C256.078 130.309 259.7 130.729 260.01 130.815C263.923 131.918 256.73 131.514 267.768 132.562C268.072 132.587 268.202 132.377 268.797 132.407C269.916 132.461 269.901 132.719 270.907 132.754C271.916 132.789 273.332 132.567 274.811 133.005C277.53 133.803 270.965 133.637 268.13 133.007C266.838 133.811 287.601 135.306 288.919 135.052C294.556 134.877 285.181 134.857 284.703 134.588C284.505 134.489 284.653 133.367 282.267 133.991C281.559 134.176 284.46 134.601 282.715 134.639C280.967 134.674 281.674 134.373 281.549 134.344C281.121 134.243 279.262 134.259 279.024 134.195C275.378 133.228 275.79 132.187 280.577 134.086C282.725 133.844 277.878 132.988 280.533 132.894C283.748 132.776 286.074 133.364 286.482 133.402C291.332 133.808 285.755 132.932 291.671 133.278C294.967 133.443 286.728 133.741 294.263 133.747C300.561 133.667 297.153 133.417 297.604 132.821C297.708 132.679 301.144 132.457 296.467 132.584C296.336 132.741 296.088 132.949 295.792 133.094C294.64 132.99 292.729 132.202 292.122 132.167C289.149 132.002 289.281 132.4 287.537 131.878C288.778 132.434 286.743 132.065 285.972 132.146C283.109 132.434 286.822 132.773 280.482 131.928C281.298 132.22 282.037 132.498 282.83 132.78C282.065 132.752 281.298 132.721 280.532 132.686C279.419 132.089 275.358 131.882 279.068 131.585C274.663 131.146 272.867 131.08 271.858 131.415C271.668 131.478 270.994 131.449 270.218 131.381C270.353 131.513 270.507 131.893 270.38 131.926C269.244 132.212 267.611 131.359 268.218 131.162C267.676 131.093 267.247 131.032 267.096 131.009C266.137 130.864 268.05 130.836 267.278 130.672C267.024 130.622 264.308 130.363 264.266 130.259C264.013 129.6 268.414 130.629 259.512 129.123C259.22 129.65 263.399 130.069 262.256 130.515C261.025 131.001 258.791 129.84 258.171 130.536C257.998 130.382 257.928 130.265 257.785 130.097C254.112 129.908 254.17 129.245 253.091 128.933C250.999 128.349 241.168 126.621 249.896 128.736C248.595 128.571 247.271 128.364 245.977 128.177C245.9 126.972 246.567 127.612 240.469 126.223C239.127 125.91 238.794 125.319 237.346 125.633C237.649 125.095 233.589 124.577 233.232 124.415C230.959 123.434 239.927 124.747 240.856 125.972C242.433 125.87 242.314 126.399 244.011 126.651C246.462 127.008 246.815 126.968 249.635 127.863C252.567 127.834 238.566 125.595 247.152 126.417C255.613 128.356 305.28 131.222 316.669 128.436C337.357 125.809 348.053 122.956 365.523 116.454C367.274 115.934 379.929 110.093 377.559 111.865C377.257 112.133 371.865 114.895 376.785 113.176C375.715 113.349 378.351 111.883 378.562 111.738C383.364 108.523 380.457 109.924 388.094 105.683C388.203 105.621 388.314 105.558 388.427 105.493ZM415.648 97.5951C404.812 102.861 412.92 99.279 411.129 101.279C412.509 100.579 413.878 99.894 415.248 99.2174C414.861 99.3406 414.478 99.4625 414.091 99.5875C414.089 99.5882 414.087 99.589 414.086 99.5898C414.601 98.9256 415.1 98.2712 415.648 97.5951ZM606.851 69.8112C606.37 69.8033 605.893 69.7985 605.372 69.7804C603.862 69.3049 602.313 68.8455 600.824 68.4248C601.027 68.3861 601.224 68.3451 601.427 68.307C603.176 68.7622 605.085 69.2952 606.851 69.8112ZM266.415 132.966C264.183 132.353 264.313 133.019 261.326 132.348C261.636 132.865 261.99 133.376 262.324 133.89C264.644 134.103 265.189 133.987 267.685 134.37C267.409 134.188 267.126 134.004 266.858 133.821C266.437 133.808 265.989 133.796 265.582 133.779C264.989 133.288 268.99 133.66 266.423 132.966C266.421 132.966 266.418 132.966 266.415 132.966ZM243.17 129.636C241.966 129.354 237.248 128.155 236.556 128.198C234.205 128.409 247.78 130.736 237.718 129.296C237.745 129.396 237.681 129.476 237.662 129.567C239.472 129.978 241.272 130.367 243.108 130.745C243.078 130.365 243.212 130.021 243.17 129.636ZM376.558 118.14C374.815 118.949 366.537 122.668 369.431 121.939C370.292 121.737 373.806 119.61 375.224 118.992C376.146 118.597 375.256 119.364 377.012 118.433C376.872 118.337 376.755 118.213 376.553 118.143C376.555 118.142 376.556 118.141 376.558 118.14ZM378.962 114.895C377.258 115.778 375.457 116.689 373.687 117.536C375.156 117.308 377.635 115.895 378.009 116.299C377.536 116.565 377.065 116.828 376.589 117.091C376.164 117.159 375.744 117.222 375.325 117.284C373.894 118.235 374.893 117.965 371.961 119.135C374.017 119.112 374.577 119.401 379.137 116.362C378.402 117.186 379.888 118.072 382.138 115.833C382.557 115.417 380.402 116.34 380.365 116.321C379.881 116.144 380.94 115.365 380.44 115.218C380.216 115.152 378.942 115.77 378.656 115.66C378.523 115.606 379.6 114.749 378.962 114.895ZM383.281 114.862C382.839 115.338 384.942 114.877 386.499 113.925C388.921 112.44 384.742 114.109 383.281 114.862ZM606.861 69.8137C606.857 69.8129 606.854 69.812 606.851 69.8112C606.852 69.8112 606.854 69.8113 606.856 69.8113C606.858 69.8121 606.859 69.8129 606.861 69.8137ZM249.39 131.027C247.925 130.973 245.808 130.561 245.91 130.888C245.223 130.702 244.529 130.514 243.843 130.324C243.832 130.415 243.828 130.507 243.818 130.597C245.907 131.05 247.992 131.479 250.084 131.889C249.861 131.603 249.658 131.32 249.39 131.027ZM226.762 126.104C224.182 125.437 226.252 126.373 225.636 126.427C225.019 126.482 222.751 125.739 222.952 126.085C224.474 126.486 226.064 126.893 227.609 127.276C227.274 126.874 227.064 126.497 226.757 126.103C226.759 126.103 226.761 126.103 226.762 126.104ZM461.379 78.7402C459.625 79.2564 460.237 78.6979 457.053 80.2276C457.056 80.2267 457.058 80.2258 457.061 80.2249C460.235 79.3538 464.524 78.1239 467.933 76.7627C465.684 77.1423 464.124 77.943 461.379 78.7402ZM272.636 134.514C273.424 134.335 269.871 133.808 269.076 133.954C267.77 134.203 271.427 134.798 272.636 134.514ZM531.595 60.9438C534.294 59.9436 528.939 59.4894 523.599 60.5184C523.136 60.6027 526.66 60.4416 525.642 60.7104C525.54 60.7351 523.619 60.9407 523.154 61.1077C522.69 61.2731 523.221 61.4579 522.452 61.6592C521.086 62.0098 517.977 62.0956 517.009 62.4842C516.882 62.5338 518.815 62.5931 518.932 62.5913C520.888 62.521 522.776 61.8479 523.071 61.8091C524.635 61.6032 524.436 61.9738 524.84 62.0066C525.6 62.0689 526.881 61.7762 526.973 61.7781C529.348 61.8216 523.985 62.3188 523.255 62.547C521.336 63.1272 523.146 63.1841 518.512 64.0101C518.076 64.0877 512.805 64.8342 519.491 64.2568C506.545 66.9611 526.182 63.7035 528.293 63.4716C529.262 63.2899 527.748 63.119 528.326 62.912C529.643 62.4354 532.048 62.1574 531.784 61.7083C531.238 60.7571 528.161 61.7 526.053 61.7732C526.251 61.5342 526.313 61.3156 526.702 61.0609C526.087 61.4032 531.386 61.0069 531.596 60.9457C531.596 60.9451 531.595 60.9444 531.595 60.9438ZM498.409 67.1984C495.437 67.5413 495.781 68.1079 493.009 68.3843C490.761 69.4925 495.44 68.3514 495.98 68.2719C498.479 67.8607 498.55 68.4711 501.004 67.7642C500.075 67.5872 499.298 67.3778 498.409 67.1984ZM524.087 63.1321C522.138 63.6872 525.692 63.2531 525.837 63.3031C527.492 63.7347 516.813 64.938 524.087 63.1321ZM365.208 121.502C364.24 121.844 364.957 121.9 364.137 122.3C363.317 122.71 360.304 123.498 360.438 123.646C360.573 123.81 366.12 122.355 360.751 124.37C360.969 124.407 360.933 124.504 361.054 124.563C362.545 124.048 364.046 123.51 365.528 122.954C364.607 122.974 363.663 122.979 362.783 122.982C363.53 122.453 364.102 122.573 364.147 122.557C364.146 122.557 364.146 122.556 364.146 122.556C365.694 121.958 367.358 120.73 365.208 121.502ZM437.751 87.1812C437.731 86.363 435.888 88.0668 435.03 88.5419C434.172 89.0134 432.825 89.2958 433.419 89.393C434.964 88.9606 437.755 87.2693 437.751 87.1803C437.751 87.1806 437.751 87.1809 437.751 87.1812ZM482.611 71.055C480.192 71.9104 480.682 71.9753 477.684 72.5992C477.849 72.743 478.014 72.8908 478.178 73.0322C480.507 72.3712 480.144 71.9155 482.971 71.3653C483.43 71.2788 482.581 71.9461 484.571 71.2724C483.924 71.2089 483.26 71.1259 482.611 71.055ZM470.861 75.201C473.636 74.3102 475.414 72.2101 470.475 74.4368C469.766 74.7642 468.832 75.8618 470.861 75.201ZM389.405 110.161C385.739 112.15 388.72 110.704 390.5 109.904C390.839 109.752 391.135 109.627 391.333 109.556C391.06 109.716 390.803 109.868 390.561 110.011C384.645 113.427 387.709 111.67 390.673 110.207C392.046 109.522 393.392 108.925 393.815 108.956C394.935 108.078 396.987 106.375 394.375 107.676C393.284 108.222 393.783 108.203 393.718 108.238C392.041 109.126 391.817 108.943 390.361 109.659C390.09 109.792 389.778 109.955 389.405 110.161ZM503.49 66.1108C503.309 66.1581 503.645 66.3531 503.074 66.5189C502.503 66.6836 501.141 66.7786 501.044 66.9602C500.944 67.1403 503.621 66.7218 504.403 66.456C505.186 66.1862 505.123 65.6898 503.49 66.1108ZM485.024 69.7153C482.692 70.5223 486.823 70.4093 487.327 70.282C491.815 69.0953 484.981 70.0225 485.024 69.7153ZM398.652 103.17C393.695 106.428 397.906 105.059 401.36 103.773C401.738 103.455 402.124 103.133 402.498 102.82C400.879 104.39 397.687 106.771 405.105 102.221C400.788 104.338 404.269 102.308 404.281 102.264C404.179 101.022 398.276 104.783 398.657 103.167C398.655 103.168 398.654 103.169 398.652 103.17ZM511.341 64.9486C513.928 64.4855 520.443 63.355 517.315 63.307C515.336 63.8291 513.349 64.3754 511.341 64.9486ZM307.438 131.904C305.329 131.742 303.402 131.837 300.814 131.93C303.157 132.27 301.628 132.366 300.843 132.489C299.652 132.675 302.547 132.578 302.555 132.601C302.516 132.99 300.671 133.134 304.877 132.949C303.844 133.133 302.822 133.31 301.783 133.479C304.998 133.386 305.763 133.592 307.82 133.788C305.798 133.139 308.433 133.481 310.759 132.929C311.916 132.655 308.509 131.995 307.431 131.905C307.433 131.905 307.436 131.905 307.438 131.904ZM393.206 105.993C392.736 106.413 392.334 106.851 391.891 107.28C391.331 107.613 390.768 107.947 390.207 108.283C390.077 108.218 389.955 108.141 389.816 108.086C389.704 108.144 389.617 108.192 389.548 108.234C389.15 108.477 389.396 108.481 389.214 108.6C389.214 108.599 389.214 108.599 389.213 108.598C386.166 110.57 384.839 111.236 382.168 112.185C382.336 112.516 382.505 112.847 382.673 113.178C383.223 112.858 383.778 112.533 384.326 112.208C384.533 111.875 384.741 111.54 384.945 111.205C385.646 110.959 386.341 110.709 387.041 110.452C387.526 110.106 388.112 109.696 388.525 109.384C391.614 108.849 385.4 111.5 385.544 111.88C385.607 112.059 388.292 110.69 390.273 109.505C391.26 108.919 392.077 108.408 392.329 108.194C392.437 108.101 390.779 108.146 393.142 107.28C393.511 107.147 394.446 108.535 396.11 106.066C396.348 105.715 394.691 105.44 393.206 105.993ZM371.297 116.531C375.181 116.097 361.95 120.274 367.809 118.861C366.408 119.946 366.694 119.829 368.458 119.594C368.614 119.574 367.557 120.142 367.657 120.12C369.248 119.751 371.001 118.879 371.182 119.276C371.578 119.085 371.95 118.904 372.345 118.71C370.501 119.047 373.068 117.657 373.949 116.879C374.351 116.529 373.259 116.959 373.596 116.659C373.721 116.551 375.257 115.972 375.258 115.811C375.249 115.455 374.132 115.485 372.452 115.956C372.452 115.956 372.452 115.956 372.451 115.956C372.063 116.149 371.686 116.34 371.297 116.531ZM444.246 81.9204C445.06 82.2355 447.504 81.4382 443.032 83.5385C443.303 83.5549 443.58 83.5681 443.85 83.5853C444.618 83.266 445.361 82.9597 446.138 82.6435C447.802 80.1064 452.953 80.2677 449.686 80.1832C449.331 80.1739 447.502 81.0372 449.23 79.9838C449.227 79.9844 449.224 79.9851 449.222 79.9857C446.687 81.0791 446.493 81.3828 444.246 81.9204ZM427.55 89.4728C422.269 93.2178 435.824 86.5363 433.383 87.2849C433.173 87.3298 427.353 90.2111 427.55 89.4728ZM474.572 70.6541C471.839 71.4477 471.849 72.158 472.197 72.3021C472.544 72.4478 474.359 71.6441 474.612 71.6102C475.438 71.4957 473.786 72.0746 474.861 71.9344C475.224 71.8754 479.982 70.7545 480.18 70.6783C481.323 70.1931 479.44 70.1426 479.762 69.9872C480.799 69.4796 482.464 69.3253 482.708 68.955C483.263 68.1523 480.522 69.5809 480.063 69.724C478.64 70.1534 478.668 69.7787 477.571 70.0185C476.474 70.2602 475.8 70.5834 474.837 70.8425C474.516 70.929 474.711 70.6153 474.572 70.6541ZM466.064 74.7958C468.705 73.3945 461.714 75.1081 460.919 75.527C458.635 76.6843 464.817 75.4428 466.064 74.7958ZM380.523 114.067C382.754 112.557 377.068 115.031 375.455 115.894C375.833 115.903 379.758 114.6 380.523 114.067ZM400.087 102.397C397.989 103.66 401.21 102.859 403.055 101.87C403.89 100.811 402.904 101.452 401.698 102.07C400.514 102.678 401.729 101.415 400.087 102.397ZM504.55 63.9278C503.989 63.9984 495.659 66.2013 500.509 65.3775C500.883 65.298 506.845 64.0535 507.262 63.9084C508.133 63.5774 505.92 63.6869 504.55 63.9278ZM410.304 96.1622C409.351 97.1722 408.199 97.7543 409.524 97.7012C409.525 97.7004 409.527 97.6996 409.528 97.6988C406.654 99.3561 405.995 98.4311 405.366 98.7832C403.161 100.03 405.661 99.6343 404.378 100.606C407.53 98.6779 406.844 99.6497 409.329 98.414C409.887 98.1359 411.949 96.7314 412.18 96.3911C412.411 96.0486 411.013 96.0695 410.304 96.1622ZM516.57 61.765C513.665 62.0136 511.128 63.2043 515.155 62.6913C517.109 62.4534 518.335 61.6201 516.57 61.765ZM239.582 126.179C239.975 126.464 240.381 126.751 240.808 127.039C239.75 126.876 238.691 126.709 237.633 126.536C238.475 126.649 239.317 126.759 240.164 126.867C238.21 126.397 237.389 125.85 239.577 126.178C239.579 126.178 239.581 126.179 239.582 126.179ZM171.399 104.924C170.639 104.408 168.773 104.286 168.963 104.415C170.397 105.383 172.456 105.641 171.399 104.924ZM376.18 114.131C373.115 115.444 375.607 115.386 377.492 114.572C376.286 114.933 377.911 113.374 376.18 114.131ZM194.942 113.789C195.199 113.965 195.459 114.141 195.75 114.329C194.786 113.879 194.639 113.744 194.942 113.789ZM503.027 63.3494C502.494 63.3718 498.741 64.0812 498.279 64.281C497.304 64.6889 500.219 64.6092 501.954 64.0954C502.142 64.0383 503.548 63.3225 503.019 63.351C503.022 63.3504 503.024 63.3499 503.027 63.3494ZM235.246 124.877C235.25 124.887 235.245 124.895 235.233 124.901C235.238 124.893 235.239 124.885 235.246 124.877ZM104.657 70.6504C104.667 70.6737 104.669 70.6921 104.66 70.7033C104.66 70.6872 104.654 70.6663 104.657 70.6504ZM476.739 68.8968C475.271 68.353 472.593 69.6652 474.944 69.4458C475.075 69.4314 476.445 68.9788 476.739 68.8968Z" fill="#B59F84"/>
</svg>
