<svg width="677" height="403" viewBox="0 0 677 403" fill="none" xmlns="http://www.w3.org/2000/svg">
<path d="M381.458 306.159C415.836 301.977 453.642 300.681 488.241 304.27C492.513 304.712 492.2 304.965 493.39 305.127C496.641 305.585 498.614 305.509 500.943 305.831C512.528 307.449 523.036 309.322 534.215 311.916C545.531 314.649 540.015 314.248 543.898 315.41C551.43 317.793 545.223 315.035 548.278 315.593C557.117 318.043 565.814 320.907 574.365 324.174C572.218 323.494 570.064 322.837 567.937 322.21C571.588 323.475 577.043 325.656 570.585 323.633C571.966 324.203 573.242 324.761 574.635 325.358C575.195 325.12 581.669 327.578 582.407 327.645C583.098 327.664 579.36 326.239 579.411 326.243C579.798 325.961 594.66 332.673 595.65 333.307C598.396 334.688 595.756 333.989 598.114 335.073C602.233 337.015 600.013 334.78 604.851 338.726C607.171 339.443 607.3 339.758 610.011 341.26C610.367 341.459 610.209 341.088 610.37 341.168C614.546 343.262 611.182 341.933 611.193 341.967C611.368 342.539 615.768 344.815 616.687 345.42C627.795 352.642 635.631 358.441 646.153 367.465C648.519 369.436 655.317 375.536 657.258 377.723C659.229 379.86 657.922 378.954 658.847 380.142C660.972 381.339 662.713 383.03 665.767 387.529C667.472 388.799 666.912 388.729 669.381 391.852C671.321 394.277 675.089 398.822 676.23 402.162C674.313 398.664 674.259 399.066 671.62 395.352C670.964 393.96 660.922 381.667 661.149 383.034C661.387 383.693 664.922 387.433 665.023 387.679C665.537 388.805 663.369 386.714 661.814 384.743C662.283 385.184 662.829 385.722 663.311 386.196C659.851 381.607 661.336 385.549 659.343 381.414C659.096 380.913 659.362 380.953 658.875 380.187C658.699 380.101 659.318 381.015 658.653 380.352C657.979 379.677 656.921 378.112 656.523 378.106C655.96 378.095 658.863 380.884 659.026 381.114C659.03 381.114 659.034 381.115 659.038 381.116C660.663 383.177 656.915 379.192 656.663 379.021C655.275 377.965 655.92 378.884 654 377.263C652.927 376.35 650.166 373.636 649.176 372.8C648.152 371.92 649.575 373.475 648.877 372.894C648.18 372.314 647.428 371.444 646.578 370.76C646.213 370.468 646.09 370.645 645.915 370.501C644.019 368.968 645.513 369.667 643.858 368.296C642.803 367.41 638.824 364.726 641.299 366.892C640.053 365.93 638.814 364.983 637.596 364.079C638.326 364.726 639.063 365.364 639.789 366.042C637.552 364.124 636.322 363.651 634.827 362.555C633.322 361.458 632.27 360.144 630.515 359.158C626.76 357.036 635.522 363.043 636.486 363.979C636.874 364.316 635.103 363.391 634.85 363.215C633.749 362.435 632.561 361.256 631.744 360.679C628.753 358.571 626.573 357.466 623.648 355.614C613.472 349.109 600.103 342.172 589.602 337.615C585.624 335.869 583.499 334.605 581.686 333.871C577.451 332.182 576.895 332.316 573.223 330.951C567.684 328.893 560.012 326.068 555.4 324.637C552.206 323.63 549.136 323.096 548.274 322.867C536.547 319.694 522.067 316.694 512.019 315.112C507.384 314.368 505.158 313.722 504.179 313.591C499.929 313.051 501.048 313.502 497.683 313.048C495.864 312.809 495.55 312.491 495.307 312.451C493.152 312.108 492.676 312.429 490.97 312.259C481.25 311.306 471.9 310.417 462.144 310.02C461.431 309.991 461.5 309.83 461.037 309.822C459.069 309.798 459.987 310.084 457.962 310.045C453.772 309.97 449.34 309.865 444.815 309.837C444.374 309.834 444.177 309.623 443.166 309.627C442.153 309.632 441.386 309.836 439.785 309.842C435.63 309.861 431.303 309.726 426.973 309.874C426.244 309.899 425.349 310.188 424.249 310.232C420.833 310.363 415.513 310.425 412.653 310.608C402.926 311.215 393.939 312.19 384.7 313.252C383.776 313.359 382.889 313.421 382.086 313.467C380.977 313.533 380.032 313.557 379.366 313.625C376.764 313.882 378.748 313.908 376.113 314.16C354.678 316.145 332.875 314.756 311.565 310.401C303.186 308.723 293.076 306.257 285.241 303.627C281.981 302.535 281.497 302.035 279.214 301.237C275.149 299.787 274.277 299.886 270.001 298.269C266.582 296.963 262.901 295.004 259.433 293.499C255.968 291.987 254.212 291.607 250.262 289.766C247.027 288.255 242.647 285.846 239.19 284.031C207.553 267.433 179.295 246.025 153.372 221.389C144.227 212.696 134.317 202.782 125.745 192.968C124.941 192.045 126.477 193.173 123.766 190.339C122.313 188.814 120.09 186.857 116.847 183.232C97.5276 161.648 79.1566 136.755 62.4692 112.609C37.4441 76.5345 12.3805 37.576 0.147557 1.15135C-0.42858 -0.585413 0.817929 -0.0654892 1.50625 0.820008C1.75353 1.82114 1.94301 2.77401 2.20147 3.84429C3.82775 4.60885 3.41537 4.47408 5.52773 9.20552C6.84307 12.1284 6.19845 9.62019 7.03344 11.0479C8.05525 12.8237 13.1009 21.7611 11.5533 20.3424C11.9553 20.8522 12.3473 21.3526 12.7272 21.8207C16.0407 28.1703 19.5966 34.5649 23.1648 40.6991C23.7918 41.7765 24.03 41.7126 24.6826 42.8303C26.4728 45.8903 27.5844 48.2219 29.3483 51.3119C30.304 52.9814 30.6744 53.0763 31.9169 55.2931C33.1628 57.5072 32.8265 57.6779 34.8726 60.3979C34.1562 58.2424 38.8479 66.9655 40.7573 70.0527C41.0495 70.5365 43.5411 73.8489 44.6772 75.7909C45.8068 77.7276 47.3768 80.7839 49.3838 83.6886C50.3144 85.0335 51.1072 85.6734 52.0626 87.1415C52.7335 88.1718 53.2853 89.5773 54.124 90.9024C54.9591 92.2262 57.019 94.9538 57.3674 95.4763C58.6201 97.3604 57.0802 95.3844 57.9204 96.6851C61.8923 102.833 66.7102 110.136 70.9617 115.96C71.4889 116.684 70.9765 115.531 71.0514 115.624C74.7893 120.43 72.6683 117.955 73.4393 119.425C74.181 120.876 81.1023 130.245 81.5058 130.049C81.2922 130.649 83.1553 132.496 83.5708 133.027C85.1853 135.097 84.5123 134.957 86.157 136.912C86.7612 137.63 85.9107 135.988 86.5086 136.797C87.9912 138.803 88.9215 140.848 90.8933 143.491C91.369 144.128 91.7005 144.198 92.5611 145.321C93.4158 146.446 96.885 151.293 95.5518 148.846C97.4981 151.916 98.1015 152.351 100.711 155.613C101.373 156.439 101.954 157.724 103.468 159.403C103.981 159.971 104.231 159.737 104.963 160.624C106.637 162.647 107.959 164.796 110.088 167.343C114.075 172.114 118.638 176.992 122.897 181.873C124.059 183.203 123.506 183.107 125.227 185.016C125.48 185.296 127.786 187.383 128.973 188.705C129.681 189.507 133.313 193.693 134.074 194.51C135.326 195.868 135.796 195.875 136.448 196.65C138.34 198.887 136.358 197.542 139.289 199.602C139.828 200.691 141.296 202.133 141.434 202.923C142.632 203.424 143.382 204.868 145.148 206.39C146.915 207.912 148.954 208.549 148.626 209.688C149.487 210.361 152.961 213.414 153.538 213.936C155.231 215.486 154.143 214.85 155.428 216.012C155.654 216.217 155.555 215.855 156.971 217.211C157.886 218.119 164.828 224.483 165.241 224.861C169.819 229.357 162.501 222.686 161.345 221.888C161.202 221.681 161.061 221.476 160.906 221.258C158.88 219.27 159.766 220.692 160.645 221.639C161.523 222.586 163.438 224.054 164.136 224.876C164.483 225.286 163.879 225.466 162.725 224.336C163.896 225.615 162.029 224.164 162.432 224.737C162.866 225.38 168.637 230.565 168.877 230.364C167.787 229.399 166.429 228.217 165.342 227.233C164.259 225.578 169.736 228.144 173.333 232.131C175.951 235.016 170.816 231.225 178.094 236.779C177.026 235.865 176.146 235.064 175.184 234.223C175.327 233.842 176.639 235.501 177.539 236.09C177.97 236.373 175.721 234.138 177.883 235.828C179.348 237.761 181.084 238.485 184.182 240.971C183.262 240.358 182.34 239.737 181.426 239.118C186.378 243.654 174.206 233.939 184.198 242.325C182.962 241.359 181.743 240.366 180.509 239.393C180.972 240.032 179.652 239.717 180.102 240.246C181.285 241.638 183.491 243.163 185.194 244.547C185.94 245.152 185.374 244.908 185.436 244.959C186.459 245.788 186.375 245.424 187.293 246.124C188.444 247.009 191.628 249.739 192.187 250.125C193.626 251.131 191.576 248.999 191.733 249.072C192.757 249.574 194.468 251.092 194.548 250.785C190.007 247.705 177.758 237.604 189.315 246.112C186.496 243.305 187.789 243.521 192.301 246.927C196.047 249.724 193.487 248.107 195.258 249.802C195.481 250.03 200.471 253.875 200.856 253.888C200.377 254.12 201.797 255.654 200.399 255.242C200.193 255.183 198.115 253.637 198.617 254.482C198.867 254.907 199.67 256.012 199.355 256.09C199.889 256.263 200.455 256.431 201 256.6C204.188 258.814 204.535 259.271 206.093 260.746C206.09 260.58 204.803 259.004 207.148 260.833C207.269 260.928 207.257 261.168 208.454 262.106C210.881 263.997 211.385 264.402 209.094 263.579C214.57 266.84 215.355 268.144 220.972 271.431C220.281 270.093 218.236 269.08 213.164 265.934C213.047 265.639 213.045 265.422 212.924 265.122C219.338 269.798 216.083 267.628 220.064 269.717C221.025 270.229 225.99 273.368 224.584 271.908C224.247 271.568 221.146 269.672 221.605 269.728C221.682 269.741 225.505 271.975 225.817 272.212C229.717 275.221 221.935 271.218 233.716 277.757C234.042 277.934 234.265 277.804 234.911 278.13C236.127 278.741 236.017 278.975 237.11 279.508C238.212 280.045 239.864 280.546 241.336 281.687C244.043 283.778 236.834 280.362 233.948 278.352C232.199 278.486 254.621 290.147 256.211 290.508C262.557 293.079 252.125 288.517 251.702 288.027C251.522 287.839 252.122 286.879 249.23 286.283C248.371 286.107 251.429 287.922 249.476 287.102C247.521 286.276 248.423 286.344 248.296 286.256C247.859 285.953 245.789 285.052 245.551 284.876C241.879 282.177 242.733 281.423 247.316 285.541C249.794 286.374 244.742 283.195 247.727 284.418C251.345 285.895 253.702 287.568 254.142 287.803C259.386 290.537 253.514 287.022 259.974 290.21C263.587 291.952 254.278 288.249 262.681 291.89C269.747 294.837 266.042 292.972 266.782 292.642C266.956 292.562 270.882 293.999 265.605 291.88C265.396 291.962 265.037 292.034 264.648 292.025C263.402 291.377 261.579 289.732 260.915 289.406C257.661 287.815 257.653 288.243 255.912 286.914C257.079 288.03 254.954 286.699 254.064 286.396C250.763 285.258 254.767 287.401 248.042 283.501C248.837 284.172 249.55 284.793 250.323 285.443C249.483 285.041 248.643 284.635 247.805 284.225C246.799 283.127 242.369 280.922 246.603 282.485C241.878 279.899 239.916 278.934 238.671 278.741C238.436 278.704 237.703 278.342 236.871 277.89C236.971 278.08 236.997 278.51 236.844 278.477C235.479 278.174 233.997 276.561 234.742 276.683C234.169 276.346 233.718 276.074 233.559 275.977C232.555 275.36 234.679 276.296 233.888 275.755C233.626 275.582 230.723 273.97 230.717 273.852C230.686 273.107 235.152 276.304 225.899 270.381C225.38 270.725 229.83 273.237 228.403 273.072C226.864 272.902 224.837 270.684 223.896 271.016C223.763 270.785 223.73 270.64 223.634 270.411C219.671 268.365 219.98 267.769 218.91 266.925C216.825 265.312 206.693 258.614 215.478 265.099C214.112 264.276 212.739 263.399 211.391 262.555C211.75 261.383 212.235 262.335 206.087 257.864C204.736 256.872 204.586 256.142 202.894 255.682C203.419 255.333 199.183 252.723 198.855 252.382C196.731 250.265 206.026 256.2 206.6 257.829C208.359 258.552 208.04 258.991 209.798 260.104C212.349 261.709 212.749 261.855 215.512 264.147C218.733 265.638 204.221 256.296 213.321 261.509C221.719 267.923 275.857 295.218 289.973 297.572C314.408 304.608 327.785 306.553 350.512 307.576C352.722 307.828 369.734 307.302 366.217 308.022C365.753 308.158 358.372 308.64 364.717 308.939C363.437 308.691 367.093 308.341 367.399 308.285C374.374 307.104 370.347 307.355 381.215 306.188C381.295 306.178 381.376 306.169 381.458 306.159ZM415.56 308.922C400.936 309.733 411.705 309.458 408.738 310.641C410.617 310.508 412.478 310.387 414.335 310.275C413.843 310.244 413.357 310.213 412.864 310.183C412.862 310.183 412.859 310.183 412.857 310.183C413.757 309.761 414.624 309.342 415.56 308.922ZM642.835 368.977C642.32 368.713 641.806 368.455 641.25 368.16C639.787 366.902 638.27 365.641 636.804 364.456C637.039 364.526 637.267 364.591 637.501 364.662C639.238 366.021 641.112 367.541 642.835 368.977ZM232.071 277.453C229.839 275.758 229.731 276.445 226.693 274.308C226.841 274.947 227.04 275.602 227.215 276.249C229.69 277.62 230.333 277.786 232.942 279.395C232.706 279.087 232.464 278.775 232.237 278.47C231.777 278.247 231.288 278.01 230.845 277.789C230.376 277.035 234.651 279.392 232.08 277.457C232.077 277.456 232.074 277.454 232.071 277.453ZM207.79 262.475C206.583 261.593 201.873 258.011 201.106 257.69C198.467 256.672 212.414 265.906 201.973 259.33C201.966 259.438 201.867 259.48 201.813 259.556C203.634 260.884 205.457 262.185 207.318 263.485C207.424 263.112 207.696 262.858 207.79 262.475ZM362.073 313.437C359.74 313.528 348.734 313.692 352.313 314.159C353.369 314.316 358.3 313.733 360.177 313.709C361.394 313.701 360.035 314.065 362.438 313.882C362.328 313.74 362.258 313.58 362.066 313.438C362.068 313.438 362.07 313.437 362.073 313.437ZM366.317 311.359C363.989 311.528 361.538 311.677 359.155 311.771C360.907 312.132 364.351 311.778 364.576 312.294C363.918 312.359 363.268 312.421 362.61 312.481C362.103 312.38 361.604 312.277 361.106 312.172C359.053 312.496 360.298 312.637 356.465 312.573C358.777 313.35 359.254 313.847 365.804 312.783C364.59 313.264 365.814 314.655 369.397 313.433C370.064 313.207 367.223 313.245 367.19 313.213C366.737 312.865 368.292 312.546 367.807 312.22C367.589 312.075 365.872 312.161 365.607 311.95C365.484 311.849 367.098 311.467 366.317 311.359ZM371.138 312.965C370.416 313.239 372.974 313.606 375.165 313.302C378.575 312.823 373.128 312.82 371.138 312.965ZM642.845 368.985C642.841 368.983 642.838 368.98 642.835 368.977C642.837 368.978 642.839 368.979 642.84 368.98C642.842 368.982 642.843 368.984 642.845 368.985ZM214.081 266.986C212.497 266.184 210.333 264.706 210.326 265.066C209.643 264.537 208.953 264.002 208.273 263.469C208.229 263.549 208.191 263.634 208.147 263.713C210.262 265.217 212.384 266.694 214.524 268.15C214.384 267.768 214.267 267.399 214.081 266.986ZM191.227 250.589C188.672 248.601 190.578 250.577 189.892 250.304C189.204 250.033 187.016 248.134 187.11 248.568C188.613 249.75 190.187 250.971 191.724 252.144C191.505 251.588 191.413 251.12 191.222 250.585C191.223 250.587 191.225 250.588 191.227 250.589ZM475.749 309.371C473.532 309.136 474.496 308.87 470.2 308.994C470.203 308.995 470.207 308.995 470.21 308.995C474.19 309.468 479.572 310.073 484.043 310.221C481.334 309.651 479.208 309.749 475.749 309.371ZM238.353 282.002C239.291 282.228 235.569 279.971 234.634 279.706C233.1 279.284 236.906 281.664 238.353 282.002ZM562.737 323.323C566.177 323.652 560.362 320.766 553.923 319.292C553.368 319.158 557.399 320.609 556.142 320.392C556.018 320.369 553.771 319.686 553.176 319.628C552.585 319.569 553.106 319.978 552.156 319.815C550.468 319.516 546.942 318.203 545.683 318.125C545.52 318.113 547.672 319.032 547.805 319.083C550.027 319.892 552.445 320.134 552.79 320.231C554.637 320.75 554.259 320.999 554.7 321.212C555.53 321.613 557.094 321.929 557.197 321.973C559.852 323.094 553.608 321.106 552.689 320.987C550.286 320.652 552.295 321.513 546.734 320.189C546.21 320.064 539.948 318.388 547.735 320.853C531.984 317.533 555.515 323.331 557.981 324.121C559.148 324.397 557.513 323.55 558.25 323.625C559.921 323.787 562.749 324.64 562.635 324.109C562.409 322.987 558.571 322.441 556.163 321.55C556.486 321.422 556.646 321.25 557.19 321.195C556.358 321.225 562.474 323.281 562.736 323.325C562.737 323.325 562.737 323.324 562.737 323.323ZM522.689 314.264C519.185 313.298 519.325 313.962 516.074 313.029C513.048 313.081 518.833 314.037 519.478 314.198C522.479 314.897 522.293 315.484 525.373 315.902C524.401 315.338 523.615 314.811 522.689 314.264ZM553.382 321.898C550.954 321.522 555.141 322.735 555.283 322.848C556.972 323.988 544.425 320.258 553.382 321.898ZM347.79 312.084C346.543 312.011 347.322 312.348 346.216 312.388C345.105 312.436 341.359 311.942 341.442 312.131C341.518 312.338 348.412 313.241 341.459 312.921C341.687 313.043 341.602 313.117 341.709 313.22C343.619 313.352 345.551 313.462 347.471 313.543C346.43 313.194 345.369 312.82 344.38 312.469C345.463 312.285 346.05 312.624 346.107 312.627C346.107 312.627 346.107 312.626 346.107 312.626C348.12 312.698 350.563 312.231 347.79 312.084ZM445.271 307.764C445.636 307.002 442.763 307.855 441.575 307.961C440.39 308.063 438.746 307.803 439.366 308.123C441.302 308.32 445.234 307.846 445.271 307.763C445.271 307.763 445.271 307.764 445.271 307.764ZM503.161 311.071C500.044 310.839 500.585 311.104 496.919 310.428C497.04 310.627 497.16 310.831 497.28 311.028C500.211 311.394 499.988 310.824 503.429 311.505C503.986 311.619 502.729 311.871 505.277 312.092C504.574 311.762 503.862 311.407 503.161 311.071ZM488.051 309.99C491.578 310.314 494.527 309.126 487.967 309.133C487.019 309.142 485.471 309.763 488.051 309.99ZM380.235 310.875C375.03 311.388 379.472 311.115 381.794 311.03C382.151 311.018 382.457 311.013 382.669 311.018C382.368 311.058 382.081 311.096 381.807 311.132C373.122 312.189 377.737 311.643 381.835 311.369C383.616 311.242 385.283 311.191 385.719 311.368C387.396 310.96 390.513 310.126 386.973 310.379C385.492 310.488 386.055 310.654 385.966 310.662C383.756 310.867 383.524 310.642 381.76 310.744C381.349 310.768 380.856 310.809 380.235 310.875ZM528.89 315.472C528.666 315.437 528.961 315.761 528.244 315.663C527.53 315.565 525.941 315.059 525.767 315.186C525.562 315.303 528.777 316.086 529.771 316.185C530.773 316.281 530.916 315.8 528.89 315.472ZM506.482 310.861C503.491 310.617 508.203 312.251 508.829 312.349C514.421 313.164 506.296 311.12 506.482 310.861ZM393.938 307.755C386.834 308.961 392.18 309.236 396.65 309.319C397.225 309.163 397.815 309.006 398.381 308.854C395.812 309.716 391.104 310.744 401.567 309.267C395.727 309.631 400.595 309.037 400.629 309C401.117 307.805 392.732 309.116 393.944 307.754C393.942 307.754 393.94 307.755 393.938 307.755ZM538.245 317.854C541.364 318.57 549.187 320.455 545.681 319.012C543.229 318.604 540.756 318.219 538.245 317.854ZM278.166 296.458C275.865 295.321 273.665 294.499 270.728 293.355C273.217 294.778 271.465 294.141 270.537 293.881C269.129 293.486 272.409 294.771 272.41 294.796C272.21 295.132 270.084 294.395 274.87 296.21C273.639 295.892 272.422 295.572 271.192 295.234C274.829 296.67 275.603 297.217 277.828 298.359C275.826 296.818 278.638 298.368 281.474 298.944C282.886 299.232 279.331 297.044 278.157 296.455C278.16 296.456 278.163 296.457 278.166 296.458ZM386.506 308.379C385.777 308.598 385.116 308.859 384.412 309.098C383.628 309.203 382.839 309.308 382.051 309.417C381.939 309.308 381.842 309.192 381.714 309.09C381.66 309.094 381.61 309.099 381.564 309.104C380.721 309.189 381.085 309.3 380.796 309.348C380.796 309.348 380.796 309.347 380.796 309.346C376.44 310.063 374.64 310.185 371.204 310.062C371.23 310.433 371.256 310.803 371.282 311.174C372.049 311.085 372.825 310.991 373.593 310.894C373.987 310.662 374.381 310.428 374.773 310.194C375.673 310.226 376.566 310.252 377.47 310.273C378.179 310.13 379.032 309.964 379.644 309.826C383.332 310.468 375.134 310.644 375.106 311.044C375.089 311.24 378.935 310.945 381.737 310.554C383.024 310.378 384.083 310.214 384.447 310.111C384.613 310.065 382.752 309.497 385.8 309.556C386.275 309.568 386.628 311.205 389.692 309.516C390.128 309.276 388.425 308.409 386.506 308.379ZM356.959 309.915C361.517 311.044 344.709 309.68 351.945 310.691C349.864 311.134 350.241 311.14 352.328 311.62C352.512 311.664 351.061 311.768 351.183 311.787C353.138 312.079 355.512 311.962 355.527 312.398C356.061 312.377 356.562 312.356 357.096 312.331C354.874 311.922 358.405 311.645 359.762 311.267C360.38 311.099 358.953 311.073 359.473 310.927C359.665 310.876 361.658 310.936 361.737 310.787C361.898 310.455 360.635 310.054 358.527 309.836C358.527 309.836 358.527 309.835 358.527 309.835C358 309.862 357.487 309.891 356.959 309.915ZM455.028 305.463C455.793 306.074 458.911 306.302 452.906 306.475C453.202 306.596 453.507 306.717 453.801 306.839C454.814 306.847 455.791 306.858 456.812 306.874C459.873 305.196 465.563 307.391 461.937 306.016C461.541 305.867 459.091 305.935 461.518 305.652C461.515 305.652 461.511 305.651 461.508 305.651C458.171 305.651 457.798 305.854 455.028 305.463ZM432.757 305.936C425.058 307.365 443.419 306.409 440.328 306.165C440.071 306.122 432.184 306.539 432.757 305.936ZM494.288 307.361C490.852 306.958 490.54 307.613 490.867 307.888C491.193 308.164 493.601 308.177 493.901 308.251C494.884 308.488 492.76 308.334 494.036 308.651C494.472 308.745 500.339 309.697 500.596 309.712C502.102 309.746 500.002 308.914 500.434 308.906C501.82 308.873 503.768 309.43 504.209 309.195C505.196 308.695 501.455 308.849 500.892 308.792C499.096 308.59 499.296 308.26 497.952 308.023C496.607 307.788 495.703 307.804 494.501 307.643C494.101 307.589 494.462 307.383 494.288 307.361ZM482.835 307.659C486.447 307.451 477.797 306.175 476.71 306.242C473.607 306.378 481.135 307.74 482.835 307.659ZM368.457 311.186C371.676 310.632 364.136 310.77 361.918 310.939C362.336 311.096 367.349 311.393 368.457 311.186ZM395.91 307.567C392.959 307.966 396.94 308.411 399.458 308.178C400.908 307.503 399.485 307.734 397.861 307.859C396.247 307.986 398.215 307.261 395.91 307.567ZM531.03 313.944C530.364 313.757 520.027 312.166 525.852 313.511C526.294 313.594 533.567 315.059 534.096 315.113C535.22 315.193 532.678 314.322 531.03 313.944ZM410.307 305.582C408.755 306.161 407.19 306.271 408.69 306.717C408.692 306.717 408.695 306.717 408.697 306.717C404.69 307.179 404.408 306.076 403.537 306.168C400.476 306.505 403.45 307.069 401.547 307.494C405.995 306.876 404.758 307.524 408.127 307.306C408.883 307.257 411.862 306.727 412.285 306.499C412.709 306.268 411.141 305.762 410.307 305.582ZM545.492 317.273C542.116 316.205 538.749 316.167 543.507 317.487C545.81 318.14 547.542 317.929 545.492 317.273ZM205.135 257.362C205.46 257.835 205.799 258.316 206.16 258.809C205.065 258.107 203.971 257.398 202.88 256.683C203.756 257.228 204.635 257.771 205.52 258.313C203.559 256.854 202.862 255.909 205.13 257.358C205.132 257.36 205.133 257.361 205.135 257.362ZM139.403 200.558C138.777 199.642 136.85 198.509 137.006 198.737C138.187 200.462 140.273 201.832 139.403 200.558ZM363.576 309.59C359.516 309.623 362.329 310.531 364.833 310.499C363.304 310.372 365.884 309.553 363.576 309.59ZM161.345 221.888C161.558 222.196 161.773 222.506 162.02 222.843C161.147 221.891 161.036 221.682 161.345 221.888ZM529.562 312.754C528.948 312.54 524.426 311.565 523.814 311.549C522.535 311.5 525.866 312.685 528.03 312.968C528.267 312.997 530.161 312.956 529.553 312.752C529.556 312.752 529.559 312.753 529.562 312.754ZM200.88 253.872C200.88 253.884 200.872 253.889 200.856 253.888C200.865 253.884 200.869 253.876 200.88 253.872ZM81.5207 129.994C81.5233 130.023 81.5191 130.043 81.5058 130.049C81.5115 130.033 81.512 130.009 81.5207 129.994ZM497.519 306.653C496.111 305.546 492.507 305.639 495.251 306.411C495.406 306.452 497.152 306.606 497.519 306.653Z" fill="#B59F84"/>
</svg>
