<svg width="334" height="512" viewBox="0 0 334 512" fill="none" xmlns="http://www.w3.org/2000/svg">
<path opacity="0.6" d="M211.712 367.854C214.4 399.227 208.083 436.648 187.174 462.288C184.675 465.41 184.609 464.986 183.865 465.826C181.793 468.087 180.765 469.644 179.193 471.233C171.538 478.912 163.351 485.091 154.229 490.377C144.693 495.644 148.783 492.325 145.364 493.898C138.576 496.742 144.685 495.011 142.164 496.478C134.522 499.962 126.44 502.768 118.324 504.946C120.252 504.293 122.195 503.601 124.152 502.87C120.609 503.997 115.608 505.237 121.353 503.251C120.031 503.572 118.82 503.831 117.467 504.131C117.228 504.64 110.962 506.297 110.418 506.637C109.894 507.009 113.447 506.089 113.425 506.107C113.251 506.595 98.5905 509.297 97.4957 509.305C94.697 509.677 97.0617 508.797 94.6955 509.203C90.6097 509.86 93.4824 510.487 87.7144 509.889C85.5463 510.582 85.3465 510.383 82.5405 510.638C82.1711 510.671 82.482 510.892 82.3201 510.914C78.0785 511.496 81.3112 510.73 81.2855 510.707C80.8642 510.327 76.3025 510.895 75.3218 510.909C63.2792 511.164 54.3324 510.846 41.7049 510.066C38.9192 509.915 30.6292 509.426 27.9626 509.051C25.3501 508.707 26.7853 508.546 25.4355 508.252C23.1834 508.744 21.0868 508.602 16.2518 507.443C14.3559 507.721 14.6268 507.33 11.1452 506.907C8.24942 506.558 3.08715 506.333 -0.00130129 505.178C3.64334 505.906 3.31462 505.582 7.44573 506.12C8.79173 506.374 23.137 508.352 22.1291 507.607C21.6113 507.264 16.8389 506.908 16.6604 506.822C15.6361 506.366 18.3344 506.363 20.6552 506.787C20.0644 506.776 19.3534 506.748 18.7175 506.727C23.9302 507.782 20.4915 505.855 24.3294 507.619C24.8048 507.833 24.5948 507.977 25.39 508.236C25.5648 508.185 24.5889 507.902 25.4493 507.966C26.3319 508.033 27.9807 508.536 28.2579 508.283C28.6742 507.923 24.9916 507.695 24.7344 507.636C24.7312 507.638 24.728 507.641 24.7248 507.643C22.3381 507.157 27.3788 507.7 27.6362 507.678C29.2317 507.587 28.1828 507.291 30.5519 507.309C31.9034 507.323 35.2997 507.678 36.5539 507.728C37.8006 507.78 35.8797 507.447 36.7195 507.468C37.5585 507.489 38.5879 507.706 39.5892 507.723C40.0158 507.729 40.0072 507.514 40.2133 507.52C42.4209 507.57 40.9507 507.929 42.949 508.012C44.2474 508.07 48.5812 507.83 45.6105 507.584C47.0432 507.604 48.4359 507.622 49.8528 507.629C48.9616 507.54 48.0389 507.466 47.1681 507.358C49.8356 507.559 51.0449 507.219 52.7402 507.225C54.4274 507.228 55.9347 507.681 57.7818 507.468C61.72 507.018 51.9655 507.21 50.7305 507.053C50.2558 507.009 52.0887 506.711 52.3685 506.705C53.6147 506.687 55.0814 506.949 56.0379 506.943C59.471 506.918 61.5025 506.572 64.7838 506.423C75.831 505.957 89.526 504.405 99.7217 502.384C103.555 501.643 105.894 501.488 107.58 501.096C111.542 500.146 111.978 499.699 115.384 498.758C120.424 497.372 127.589 495.238 131.695 493.639C134.56 492.552 136.937 491.156 137.647 490.827C147.681 486.318 158.965 479.171 165.803 473.298C169.048 470.566 170.711 469.398 171.346 468.791C174.016 466.13 173.085 466.632 175.209 464.449C176.341 463.256 176.751 463.208 176.908 463.052C178.272 461.66 178.247 461.112 179.202 459.953C184.687 453.238 189.433 446.178 193.144 438.429C193.416 437.861 193.54 437.98 193.705 437.605C194.399 435.986 193.834 436.62 194.55 434.936C195.984 431.513 197.411 427.807 198.639 423.984C198.759 423.609 199.014 423.504 199.274 422.637C199.533 421.767 199.535 421.052 199.924 419.669C200.944 416.015 201.981 412.472 202.69 408.554C202.807 407.902 202.696 407.049 202.855 406.06C203.382 402.866 204.116 398.516 204.345 395.796C205.119 386.945 204.945 378.689 204.45 370.513C204.331 368.554 204.425 366.772 204.342 365.729C204.148 363.394 204.082 365.106 203.865 362.839C201.967 343.809 197.724 325.045 191.922 306.581C189.54 298.988 186.424 290.812 183.742 283.613C182.626 280.62 182.765 280.146 181.975 278.132C180.568 274.586 179.943 274.088 178.336 270.311C177.37 268.05 176.489 265.427 175.497 262.896C175.16 262.035 174.818 261.191 174.466 260.379C173.074 257.159 172.104 255.821 170.601 252.182C169.38 249.22 167.92 244.9 166.671 241.491C155.538 211.124 148.507 178.37 152.507 145.229C153.892 133.619 156.863 120.769 161.712 109.598C162.168 108.56 161.847 110.291 163.156 106.917C163.887 105.085 164.676 102.414 166.69 98.3663C178.683 73.9763 200.164 53.5038 222.899 38.8615C256.896 16.5964 297.776 2.07547 332.942 0.00572813C334.659 -0.0933602 333.896 0.971163 332.935 1.40126C331.969 1.37619 331.066 1.30767 330.048 1.27407C329.017 2.63618 329.188 2.2784 324.59 3.05268C321.768 3.5394 324.106 3.58351 322.642 4.01604C320.745 4.545 311.81 7.09501 313.386 5.97163C312.857 6.22729 312.37 6.4689 311.855 6.72087C305.357 8.34156 299.102 10.1692 292.88 12.2137C291.806 12.5682 291.824 12.8129 290.718 13.1834C287.749 14.185 285.331 14.7795 282.272 15.8133C280.612 16.379 280.469 16.7164 278.295 17.4464C276.126 18.1844 276.043 17.8104 273.245 19.261C275.315 18.9872 266.676 21.831 263.722 23.1169C263.287 23.293 259.898 25.1585 258.018 25.9357C256.126 26.7083 253.183 27.733 250.385 29.2369C249.076 29.9414 248.411 30.629 246.991 31.3536C245.992 31.8642 244.664 32.2075 243.387 32.8548C242.11 33.4951 239.51 35.1607 239.022 35.4373C237.249 36.4285 239.114 35.1691 237.892 35.8305C231.986 39.027 225.274 43.0487 219.938 46.9562C219.283 47.4343 220.341 46.9901 220.257 47.0587C215.937 50.4719 218.153 48.5297 216.815 49.2214C215.464 49.8407 207.256 56.4799 207.514 56.9094C206.924 56.7122 205.402 58.5425 204.96 58.9561C203.227 60.5643 203.274 59.9107 201.669 61.5694C201.084 62.1792 202.499 61.2923 201.827 61.8997C200.172 63.4019 198.37 64.4328 196.239 66.5175C195.725 67.0226 195.72 67.3392 194.828 68.2577C193.917 69.1591 190.122 72.9615 192.126 71.4358C189.683 73.6098 189.398 74.237 186.995 77.151C186.392 77.8926 185.337 78.6332 184.186 80.325C183.798 80.8979 184.082 81.0865 183.466 81.9197C182.063 83.8293 180.484 85.4382 178.812 87.952C175.688 92.6508 172.928 98.0083 170.337 103.232C169.634 104.661 169.483 104.15 168.52 106.274C168.375 106.583 167.524 109.292 166.919 110.749C166.525 111.615 164.588 116.239 164.266 117.216C163.699 118.813 163.936 119.182 163.599 120.027C162.647 122.478 162.779 120.319 162.533 123.554C161.886 124.457 161.438 126.277 160.848 126.75C161.061 127.943 160.252 129.191 159.964 131.266C159.676 133.349 160.31 135.227 159.189 135.536C159.113 136.528 158.641 140.741 158.577 141.406C158.333 143.451 158.198 142.32 158.034 143.875C158.007 144.151 158.232 143.884 158.005 145.646C157.791 146.819 157.124 155.311 157.13 155.813C156.581 161.625 157.054 152.623 156.992 151.406C157.064 151.192 157.137 150.981 157.211 150.754C157.525 148.158 156.951 149.603 156.751 150.774C156.553 151.909 156.612 154.079 156.418 155.04C156.321 155.52 155.796 155.191 155.947 153.736C155.691 155.287 155.642 153.145 155.451 153.753C155.201 154.396 154.915 161.547 155.245 161.609C155.27 160.258 155.301 158.591 155.365 157.248C155.952 155.487 157.439 160.999 156.824 165.69C156.4 169.197 155.798 163.395 156.525 171.742C156.484 170.447 156.492 169.358 156.481 168.196C156.86 168.06 156.495 169.958 156.662 170.937C156.74 171.402 156.895 168.5 157.088 171.007C156.64 173.197 157.277 174.877 157.573 178.382C157.392 177.404 157.219 176.429 157.054 175.458C157.093 181.47 155.94 167.545 156.597 179.244C156.454 177.831 156.351 176.434 156.231 175.034C156.075 175.728 155.412 174.677 155.328 175.296C155.106 176.922 155.496 179.305 155.668 181.305C155.743 182.181 155.53 181.655 155.537 181.728C155.642 182.931 155.848 182.641 155.979 183.696C156.133 185.018 156.414 188.949 156.526 189.499C156.813 191.053 156.903 188.387 156.961 188.535C157.315 189.494 157.433 191.558 157.708 191.408C156.669 186.586 155.568 171.966 157.391 185.011C157.46 181.348 158.176 182.302 158.89 187.505C159.503 191.64 158.872 189 158.904 191.208C158.889 191.48 159.69 197.149 159.964 197.417C159.46 197.269 159.395 199.21 158.69 198.044C158.583 197.872 158.198 195.521 157.96 196.406C157.838 196.848 157.633 198.105 157.354 197.959C157.612 198.415 157.897 198.889 158.167 199.35C158.907 202.953 158.813 203.326 158.9 205.302C159.014 205.188 159.193 203.339 159.592 206.004C159.613 206.142 159.436 206.3 159.641 207.667C160.066 210.437 160.152 211.036 159.078 209.064C160.753 214.675 160.446 216.123 162.211 221.722C162.621 220.334 161.888 218.585 160.379 213.202C160.497 212.924 160.645 212.771 160.764 212.487C162.189 219.76 161.309 216.139 162.734 219.99C163.07 220.912 164.493 226.091 164.481 224.225C164.47 223.781 163.542 220.605 163.834 220.919C163.88 220.975 165.096 224.821 165.162 225.184C165.911 229.644 163.069 222.211 167.053 233.827C167.165 234.142 167.413 234.182 167.652 234.792C168.102 235.941 167.864 236.04 168.282 237.068C168.701 238.098 169.54 239.438 169.814 241.138C170.323 244.257 167.496 237.474 166.811 234.378C165.484 233.375 173.488 255.074 174.272 256.286C176.959 261.993 172.775 252.377 172.819 251.83C172.823 251.593 173.909 251.271 172.283 249.139C171.8 248.506 172.699 251.588 171.89 249.855C171.084 248.123 171.672 248.706 171.643 248.569C171.544 248.095 170.715 246.276 170.662 245.998C169.856 241.779 171.027 241.863 171.448 247.496C172.617 249.526 171.258 244.366 172.514 246.958C174.042 250.104 174.545 252.711 174.691 253.136C176.489 258.242 174.788 252.171 177.132 258.402C178.471 261.891 174.474 253.449 177.876 261.29C177.949 261.457 178.02 261.617 178.088 261.77C180.694 267.684 179.48 264.208 180.22 264.447C180.397 264.504 182.093 268.042 179.939 263.155C179.736 263.078 179.435 262.897 179.168 262.641C179.054 262.298 178.959 261.876 178.875 261.428C178.653 260.24 178.531 258.893 178.353 258.423C177.161 255.272 176.859 255.581 176.554 253.585C176.601 255.077 176.027 252.851 175.611 252.106C174.076 249.346 175.412 253.194 173.371 246.506C173.466 247.437 173.539 248.29 173.635 249.202C173.32 248.423 173.009 247.645 172.703 246.87C172.785 245.598 171.066 241.184 173.054 244.948C171.419 240.165 170.682 238.346 169.923 237.461C169.78 237.294 169.506 236.606 169.218 235.79C169.16 235.983 168.884 236.3 168.797 236.185C168.026 235.155 168.075 233.159 168.523 233.684C168.344 233.111 168.21 232.658 168.163 232.497C167.87 231.481 168.743 233.376 168.55 232.537C168.479 232.253 167.525 229.477 167.586 229.343C168.077 228.814 169.113 233.765 166.473 223.951C165.861 223.869 167.359 228.349 166.442 227.365C165.443 226.297 165.501 223.519 164.597 223.19C164.66 222.949 164.736 222.828 164.824 222.611C163.377 218.809 164.014 218.598 163.829 217.385C163.458 215.116 160.757 204.101 162.621 214.057C162.199 212.63 161.815 211.173 161.432 209.767C162.505 209.189 162.169 210.103 160.904 203.358C160.637 201.872 161.05 201.338 160.159 199.927C160.771 200.012 159.592 195.572 159.606 195.149C159.58 192.361 162.027 202.325 161.293 203.644C162.04 205.192 161.508 205.299 161.989 207.122C162.701 209.765 162.884 210.104 163.3 213.412C164.572 216.391 160.626 201.103 163.539 210.23C165.257 216.265 172.936 241.262 181.718 260.193C186.377 270.633 189.625 278.874 191.364 283.404C199.65 305.457 203.48 317.884 207.776 338.839C208.311 340.884 210.79 356.717 209.622 353.529C209.482 353.073 208.196 346.169 208.575 352.188C208.703 350.942 209.389 354.393 209.451 354.674C210.966 361.268 210.801 357.138 211.712 367.854ZM205.584 398.66C206.841 385.237 205.605 395.085 204.843 392.227C204.733 393.964 204.595 395.672 204.431 397.365C204.534 396.926 204.636 396.491 204.736 396.048C204.736 396.046 204.736 396.044 204.736 396.042C205.026 396.912 205.309 397.789 205.584 398.66ZM43.3296 506.85C43.8603 506.748 44.3838 506.644 44.9557 506.543C46.7231 506.665 48.4793 506.768 50.2372 506.856C50.025 506.938 49.8195 507.021 49.6066 507.103C47.5223 507.038 45.4367 506.949 43.3296 506.85ZM166.087 232.649C165.665 230.193 165.1 230.557 164.362 227.191C164.033 227.732 163.73 228.317 163.416 228.883C164.284 231.409 164.615 231.849 165.376 234.51C165.419 234.157 165.46 233.797 165.507 233.452C165.333 233.027 165.146 232.577 164.982 232.167C165.164 231.366 166.598 235.508 166.091 232.657C166.089 232.655 166.088 232.652 166.087 232.649ZM158.911 207.514C158.649 206.142 157.818 200.957 157.482 200.165C156.319 197.92 159.796 212.622 156.961 201.852C156.88 201.922 156.78 201.888 156.69 201.906C157.051 203.894 157.443 205.883 157.873 207.914C158.207 207.725 158.577 207.718 158.911 207.514ZM203.833 350.267C203.611 348.143 201.529 338.642 201.695 341.846C201.76 342.804 203.116 346.987 203.337 348.594C203.49 349.661 202.977 348.506 203.433 350.656C203.562 350.538 203.712 350.454 203.832 350.262C203.832 350.263 203.833 350.265 203.833 350.267ZM206.308 353.929C205.957 351.797 205.529 349.479 205.126 347.422C205.004 348.952 205.732 352.18 205.226 352.412C205.1 351.82 204.973 351.233 204.842 350.638C204.887 350.161 204.931 349.688 204.973 349.215C204.389 347.403 204.447 348.568 203.953 345.191C203.507 347.38 203.18 347.696 204.848 353.591C204.256 352.528 203.028 353.792 204.442 356.904C204.707 357.49 204.505 354.932 204.527 354.895C204.843 354.452 205.266 355.841 205.558 355.373C205.692 355.164 205.477 353.596 205.66 353.328C205.752 353.204 206.262 354.66 206.308 353.929ZM204.985 358.432C204.684 357.805 204.424 360.104 204.724 361.998C205.187 364.955 205.235 360.22 204.985 358.432ZM43.3178 506.85C43.3218 506.85 43.3257 506.85 43.3296 506.85C43.3276 506.85 43.3256 506.85 43.3237 506.851C43.3217 506.85 43.3198 506.85 43.3178 506.85ZM160.319 214.51C159.722 212.954 159.187 210.598 158.934 210.843C158.808 210.057 158.684 209.266 158.567 208.487C158.48 208.514 158.394 208.549 158.307 208.576C158.779 210.898 159.289 213.236 159.841 215.605C160.002 215.249 160.169 214.915 160.319 214.51ZM155.525 189.2C155.162 186.288 155.082 188.795 154.798 188.179C154.506 187.536 154.34 184.831 154.095 185.181C154.293 186.96 154.527 188.815 154.764 190.524C155.006 190.023 155.276 189.661 155.524 189.194C155.524 189.196 155.524 189.198 155.525 189.2ZM188.517 449.727C189.616 448.1 189.507 448.971 191.123 445.391C191.122 445.393 191.12 445.396 191.119 445.398C189.074 448.547 186.393 452.346 184.175 455.787C185.917 453.952 186.758 452.262 188.517 449.727ZM167.461 239.559C167.977 240.277 166.862 236.468 166.373 235.729C165.564 234.52 166.658 238.451 167.461 239.559ZM127.274 498.967C124.645 500.673 130.407 499.717 135.953 496.988C136.432 496.763 132.686 498.019 133.713 497.441C133.819 497.386 135.826 496.587 136.273 496.278C136.721 495.972 136.111 495.961 136.87 495.523C138.203 494.766 141.461 493.651 142.404 492.921C142.528 492.83 140.439 493.448 140.31 493.488C138.258 494.216 136.49 495.439 136.177 495.574C134.573 496.264 134.683 495.841 134.245 495.936C133.419 496.112 132.107 496.79 132.006 496.816C129.421 497.503 135.108 495.374 135.789 494.918C137.663 493.743 135.713 494.309 140.372 491.975C140.826 491.749 146.201 489.204 139.26 492.071C152.122 485.006 132.524 494.878 130.156 495.574C129.144 496.044 130.835 495.752 130.256 496.128C128.95 496.988 126.519 497.91 126.891 498.277C127.704 499.05 130.705 497.281 133.002 496.538C132.848 496.831 132.836 497.062 132.477 497.429C133.036 496.928 127.467 498.867 127.273 498.966C127.273 498.966 127.273 498.967 127.274 498.967ZM160.057 481.097C162.928 479.412 162.361 479.046 164.966 477.481C166.702 475.395 162.615 478.665 162.087 478.98C159.751 480.515 159.454 479.977 157.205 481.733C158.218 481.489 159.089 481.334 160.057 481.097ZM134.756 494.612C136.673 493.468 133.027 494.994 132.849 494.988C131.026 495.091 141.908 490.592 134.756 494.612ZM202.794 337.375C202.582 336.246 202.433 337.022 202.138 336.047C201.843 335.057 201.349 331.628 201.188 331.789C201.015 331.849 201.894 338.142 200.434 332.024C200.375 332.248 200.283 332.198 200.211 332.316C200.569 333.919 200.961 335.751 201.305 337.438C201.412 336.439 201.522 335.405 201.614 334.43C202.062 335.35 201.87 335.958 201.881 336.009C201.881 336.009 201.881 336.009 201.882 336.009C202.285 337.803 203.256 339.902 202.794 337.375ZM200.493 424.998C201.122 425.543 201.086 422.802 201.282 421.74C201.49 420.683 202.144 419.314 201.683 419.77C201.026 421.412 200.432 424.94 200.494 424.998C200.494 424.998 200.493 424.998 200.493 424.998ZM173.85 469.648C175.683 467.566 175.239 467.759 177.71 465.441C177.486 465.413 177.259 465.382 177.037 465.355C175.208 467.297 175.725 467.544 173.367 469.569C172.976 469.895 173.468 468.843 171.907 470.517C172.547 470.227 173.21 469.941 173.85 469.648ZM182.467 459.035C180.529 461.504 180.065 464.414 183.226 459.435C183.683 458.686 183.904 457.148 182.467 459.035ZM207.059 366.566C206.625 361.008 206.946 367.355 206.796 368.777C205.546 355.918 207.041 370.281 206.267 371.507C206.571 373.028 207.184 375.857 207.174 372.678C207.161 371.344 206.959 371.841 206.956 371.761C206.869 369.297 207.264 369.577 207.059 366.566ZM155.305 484.319C155.471 484.2 155.065 484.155 155.582 483.764C156.101 483.374 157.42 482.719 157.452 482.506C157.487 482.3 154.973 483.801 154.263 484.368C153.559 484.941 153.797 485.387 155.305 484.319ZM172.185 472.159C174.04 470.176 170.161 472.504 169.72 472.873C165.874 476.299 172.114 471.881 172.185 472.159ZM209.27 379.142C208.622 372.565 207.962 377.327 207.474 381.556C207.577 382.105 207.677 382.667 207.774 383.206C207.148 380.701 206.6 376.409 207.04 386.015C207.272 380.781 207.372 385.172 207.404 385.207C208.564 385.838 208.034 377.924 209.27 379.148C209.27 379.146 209.27 379.144 209.27 379.142ZM147.583 488.537C145.145 489.928 138.497 493.279 141.846 492.236C143.808 491.042 145.716 489.811 147.583 488.537ZM184.97 274.44C184.367 272.181 183.548 270.184 182.403 267.495C183.035 270.078 182.327 268.503 181.892 267.725C181.234 266.543 182.501 269.542 182.475 269.558C182.087 269.651 181.256 267.777 183.042 272.1C182.48 271.085 181.918 270.08 181.346 269.058C182.702 272.373 182.77 273.236 183.314 275.423C183.211 273.128 183.844 275.961 185.131 278.204C185.776 279.327 185.282 275.595 184.967 274.432C184.968 274.435 184.969 274.437 184.97 274.44ZM209.2 372.357C209.028 371.688 208.809 371.078 208.613 370.431C208.555 369.716 208.494 368.996 208.428 368.275C208.543 368.178 208.664 368.094 208.773 367.981C208.738 367.024 208.597 367.408 208.56 367.125C208.56 367.125 208.561 367.125 208.561 367.125C208.009 362.997 207.868 361.495 207.885 358.334C207.516 358.377 207.147 358.421 206.778 358.464C206.895 359.154 207.008 359.85 207.116 360.536C207.354 360.881 207.592 361.228 207.828 361.574C207.801 362.392 207.764 363.142 207.733 364.009C207.866 364.674 208.011 365.472 208.128 366.044C207.367 369.451 207.434 361.812 206.979 361.892C206.718 361.769 207.384 369.393 207.599 370.418C207.635 370.571 208.316 368.915 208.07 371.663C208.026 372.092 206.38 372.328 207.846 375.156C208.052 375.56 209.045 374.09 209.2 372.357ZM206.647 345.179C206.354 349.483 204.644 334.067 205.021 340.812C204.175 339.023 204.252 339.378 204.184 341.346C204.177 341.519 203.796 340.242 203.799 340.355C203.907 342.169 204.407 344.245 203.978 344.336C204.084 344.802 204.182 345.24 204.286 345.704C204.352 343.679 205.17 346.743 205.702 347.879C205.946 348.398 205.79 347.138 206.001 347.575C206.077 347.717 206.268 349.554 206.422 349.617C206.77 349.734 207.023 348.454 206.953 346.57C206.953 346.57 206.954 346.57 206.954 346.57C206.854 346.102 206.751 345.648 206.647 345.179ZM199.767 434.137C198.942 434.576 197.749 437.149 199.491 431.966C199.285 432.178 199.077 432.396 198.87 432.605C198.545 433.464 198.221 434.29 197.872 435.148C198.42 438.429 194.327 442.337 196.891 439.848C197.17 439.578 197.963 437.485 197.374 439.64C197.375 439.637 197.377 439.635 197.378 439.632C198.565 436.774 198.503 436.358 199.767 434.137ZM205.342 414.5C205.648 407.468 202.44 423.77 203.326 421.148C203.464 420.957 204.926 413.783 205.342 414.5ZM181.568 465.241C183.668 462.839 183.241 462.238 182.861 462.333C182.478 462.426 181.261 464.246 181.04 464.434C180.342 465.045 181.556 463.519 180.645 464.306C180.367 464.595 176.482 468.445 176.306 468.618C175.447 469.723 177.267 468.658 177.035 468.986C176.276 470.07 174.808 471.103 174.739 471.576C174.592 472.6 176.503 469.812 176.872 469.399C178.024 468.171 178.176 468.519 179.094 467.643C180.007 466.763 180.471 466.065 181.227 465.241C181.479 464.966 181.46 465.361 181.568 465.241ZM186.922 456.163C185.43 459.153 190.512 452.907 190.86 451.99C192.054 449.453 187.686 454.777 186.922 456.163ZM206.63 355.887C207.379 358.821 206.787 351.839 206.293 349.806C206.212 350.217 206.388 354.893 206.63 355.887ZM209.287 381.012C209.146 378.196 208.367 381.951 208.341 384.239C208.865 385.593 208.783 384.329 208.814 382.812C208.84 381.293 209.38 383.199 209.287 381.012ZM154.972 486.817C155.537 486.576 163.246 480.807 158.563 483.757C158.238 484.013 152.598 487.645 152.167 487.942C151.362 488.608 153.649 487.612 154.972 486.817ZM209.648 394.347C209.286 392.822 209.375 391.348 208.738 392.689C208.738 392.691 208.738 392.693 208.738 392.695C208.792 388.914 209.893 388.907 209.906 388.089C209.908 385.315 209.023 387.917 208.806 386.174C208.931 390.224 208.429 388.965 208.228 392.089C208.184 392.801 208.302 395.63 208.463 396.052C208.63 396.477 209.357 395.101 209.648 394.347ZM143.075 493.458C146.103 492.189 148.366 490.129 144.31 492.066C142.32 492.989 141.223 494.219 143.075 493.458ZM160.58 202.449C160.479 202.96 160.384 203.487 160.297 204.036C160.006 202.888 159.737 201.816 159.451 200.606C159.703 201.566 159.936 202.409 160.188 203.316C159.816 201.159 159.987 200.122 160.579 202.444C160.579 202.446 160.579 202.448 160.58 202.449ZM161.781 124.063C162.23 123.158 162.213 121.124 162.099 121.346C161.224 123.032 161.156 125.325 161.781 124.063ZM207.815 351.19C207.319 347.377 206.77 350.152 207.034 352.461C207.014 351.022 208.08 353.34 207.815 351.19ZM156.992 151.406C156.884 151.725 156.776 152.047 156.667 152.407C156.864 151.265 156.961 151.076 156.992 151.406ZM156.73 486.73C157.266 486.501 160.843 484.197 161.261 483.769C162.132 482.924 159.093 484.401 157.562 485.576C157.394 485.71 156.209 486.973 156.738 486.725C156.735 486.727 156.733 486.728 156.73 486.73ZM159.991 197.421C159.983 197.429 159.974 197.427 159.964 197.417C159.973 197.42 159.982 197.417 159.991 197.421ZM207.567 56.9229C207.54 56.9258 207.521 56.9221 207.514 56.9094C207.53 56.9146 207.553 56.9147 207.567 56.9229ZM180.431 468.124C182.096 467.7 183.91 464.855 181.839 466.527C181.726 466.623 180.67 467.872 180.431 468.124Z" fill="#B59F84"/>
</svg>
