<svg width="379" height="471" viewBox="0 0 379 471" fill="none" xmlns="http://www.w3.org/2000/svg">
<path d="M178.868 335.307C180.075 335.421 181.296 335.521 182.53 335.607C209.223 337.43 237.76 341.937 263.185 350.209C266.43 351.267 266.106 351.459 266.996 351.789C269.428 352.707 271.092 352.957 272.878 353.624C281.525 356.867 289.658 360.359 297.752 364.51C306.123 368.92 301.68 367.603 304.492 369.335C309.905 372.824 305.679 369.198 307.995 370.23C314.263 373.894 320.53 378.109 326.293 382.557C324.785 381.561 323.311 380.62 321.761 379.652C324.387 381.509 327.872 384.318 323.454 381.434C324.365 382.186 325.161 382.884 326.115 383.695C326.65 383.571 331.129 387.022 331.644 387.169C332.194 387.306 329.701 385.375 329.721 385.373C330.115 385.156 339.84 393.975 340.43 394.766C342.176 396.544 340.263 395.396 341.798 396.831C344.392 399.317 343.467 396.935 345.925 401.396C347.573 402.518 347.518 402.778 349.175 404.671C349.391 404.919 349.408 404.562 349.51 404.666C352.134 407.379 349.876 405.504 349.871 405.537C349.794 406.078 352.502 408.971 353.02 409.698C359.268 418.336 363.292 425.039 368.114 435.075C369.22 437.278 372.189 443.936 372.851 446.232C373.539 448.438 372.842 447.367 373.079 448.544C374.367 450.14 375.05 451.882 375.604 456.259C376.487 457.715 376.043 457.567 376.733 460.633C377.297 463.069 378.514 467.655 378.042 470.477C377.914 467.277 377.68 467.532 377.071 463.955C377.101 462.701 374.137 450.323 373.712 451.452C373.598 451.997 374.918 455.954 374.885 456.143C374.803 457.146 373.896 454.895 373.479 452.937C373.677 453.414 373.891 453.961 374.095 454.497C373.251 449.957 372.697 453.45 372.909 449.664C372.929 449.201 373.141 449.315 373.082 448.586C372.97 448.469 373.074 449.348 372.813 448.647C372.55 447.935 372.378 446.434 372.039 446.317C371.561 446.148 372.742 449.112 372.776 449.338C372.779 449.339 372.782 449.341 372.785 449.343C373.225 451.423 371.858 447.245 371.728 447.057C371.032 445.844 371.17 446.781 370.26 444.922C369.763 443.903 368.701 441.093 368.219 440.104C367.756 439.137 368.244 440.741 367.92 440.097C367.597 439.454 367.362 438.57 366.957 437.808C366.784 437.482 366.598 437.589 366.516 437.43C365.622 435.732 366.556 436.655 365.779 435.121C365.29 434.139 363.163 430.987 364.259 433.346C363.655 432.271 363.022 431.164 362.41 430.139C362.726 430.833 363.081 431.573 363.376 432.286C362.345 430.148 361.535 429.483 360.772 428.226C360.009 426.981 359.697 425.626 358.67 424.406C356.468 421.771 361.144 428.798 361.523 429.785C361.696 430.153 360.628 428.972 360.495 428.769C359.925 427.873 359.456 426.623 359.024 425.947C357.458 423.508 356.127 422.093 354.498 419.886C348.865 412.164 340.688 403.445 333.875 397.466C331.372 395.243 330.044 393.667 328.848 392.687C326.072 390.448 325.567 390.464 323.067 388.579C319.4 385.811 314.153 381.916 310.908 379.838C308.622 378.355 306.417 377.419 305.813 377.076C297.433 372.247 286.735 367.192 279.33 364.229C275.805 362.801 274.225 361.855 273.515 361.595C270.379 360.474 271.118 361.062 268.553 360.116C267.158 359.61 266.981 359.253 266.796 359.177C265.136 358.511 264.748 358.773 263.465 358.363C256.067 356.008 248.871 353.745 241.397 351.915C240.856 351.783 240.942 351.635 240.589 351.56C239.067 351.243 239.714 351.658 238.119 351.311C234.763 350.587 231.396 349.832 227.895 349.119C227.546 349.048 227.43 348.811 226.627 348.658C225.821 348.505 225.174 348.586 223.9 348.343C220.495 347.697 217.464 346.949 213.906 346.394C213.322 346.304 212.56 346.446 211.679 346.315C208.842 345.889 204.97 345.148 202.591 344.855C195.328 343.957 188.922 343.484 182.006 343.011C181.373 342.968 180.742 342.921 180.112 342.869C178.305 342.72 176.748 342.322 175.825 342.215C173.747 341.966 175.287 342.372 173.188 342.115C156.001 339.961 139.091 334.691 123.582 326.466C117.491 323.283 110.245 318.949 104.946 314.919C102.74 313.244 102.537 312.686 101.003 311.477C98.2861 309.297 97.5363 309.189 94.735 306.816C92.5027 304.908 90.2984 302.335 88.0982 300.214C85.9094 298.092 84.6584 297.37 82.219 294.844C80.2125 292.763 77.6536 289.618 75.6335 287.245C56.9419 265.298 43.4604 240.025 33.2868 213.256C29.6871 203.772 26.0042 193.176 23.3615 183.064C23.1147 182.113 23.8928 183.446 22.9255 180.454C22.4108 178.85 21.4426 176.678 20.3889 172.921C14.1167 150.571 9.99692 126.145 6.6775 102.865C1.65233 68.0675 -2.76969 31.2835 2.12995 0.793044C2.36939 -0.659189 3.26411 0.164176 3.49667 1.04624C3.28193 1.8518 3.03563 2.60103 2.79918 3.45783C3.92477 4.58592 3.61799 4.34859 3.43132 8.46437C3.32257 11.0171 3.85081 8.98367 3.96904 10.3512C4.10751 12.0153 4.65261 20.1257 3.89618 18.5743C4.02885 19.0825 4.15658 19.5529 4.28775 20.0505C4.42007 25.8472 4.72175 31.7176 5.12318 37.3106C5.19386 38.2937 5.43504 38.331 5.50942 39.3507C5.71215 42.0718 5.65139 44.3739 5.80846 47.1297C5.8962 48.6482 6.18253 48.8437 6.27252 50.8479C6.36609 52.856 5.98764 52.8315 6.56193 55.5691C6.91549 53.7676 7.08075 61.721 7.33975 64.5387C7.37287 64.9472 8.05827 68.2886 8.16669 70.1023C8.27167 71.9015 8.24106 74.6048 8.66205 77.3648C8.85954 78.6569 9.26458 79.4138 9.42665 80.8185C9.54044 81.803 9.37612 83.0395 9.49759 84.2788C9.61672 85.5127 10.1564 88.165 10.2183 88.657C10.4395 90.431 10.0085 88.4951 10.1394 89.7115C10.7781 95.6178 11.564 102.409 12.56 108.183C12.682 108.893 12.7754 107.872 12.7974 107.966C13.8133 112.758 13.1174 110.221 13.0997 111.553C13.0637 112.83 14.6882 122.007 15.1319 122.006C14.6606 122.377 15.4155 124.363 15.5245 124.882C15.9497 126.923 15.4289 126.602 15.9325 128.568C16.1177 129.29 16.1581 127.811 16.294 128.598C16.6307 130.542 16.4739 132.382 16.9332 134.98C17.0444 135.608 17.3 135.768 17.5147 136.88C17.726 138.003 18.4227 142.682 18.434 140.451C18.6566 143.338 18.9752 143.863 19.6824 147.132C19.8624 147.96 19.7521 149.103 20.2616 150.84C20.4343 151.427 20.7637 151.334 20.9731 152.227C21.4539 154.266 21.5646 156.271 22.1867 158.862C23.35 163.706 24.9362 168.775 26.2561 173.793C26.616 175.157 26.187 174.913 26.7477 176.887C26.8304 177.178 27.8057 179.463 28.1883 180.833C28.4112 181.658 29.5093 185.951 29.7671 186.804C30.1853 188.219 30.5837 188.368 30.7681 189.156C31.3076 191.431 30.262 189.807 31.7734 192.262C31.7092 193.255 32.27 194.808 32.007 195.453C32.7896 196.2 32.7349 197.532 33.5075 199.23C34.2807 200.927 35.709 202.023 34.8795 202.8C35.2889 203.573 36.7701 206.948 37.012 207.53C37.7059 209.234 37.0865 208.418 37.6195 209.699C37.7138 209.924 37.8041 209.616 38.353 211.082C38.6964 212.058 41.5038 219.003 41.6737 219.425C43.3927 224.28 40.3985 216.925 39.8081 215.985C39.7866 215.783 39.7661 215.582 39.7394 215.368C38.9814 213.236 39.0467 214.597 39.3354 215.587C39.6235 216.578 40.5365 218.273 40.7302 219.113C40.8281 219.536 40.2291 219.496 39.7971 218.286C40.1718 219.619 39.2914 217.951 39.3567 218.513C39.4096 219.124 41.8192 224.893 42.1119 224.792C41.6548 223.725 41.0721 222.401 40.6232 221.313C40.4989 219.7 43.9077 223.311 45.0195 227.45C45.8411 230.459 43.3351 226.02 46.7998 232.454C46.3331 231.418 45.982 230.551 45.5749 229.616C45.8784 229.358 46.1848 231.029 46.6598 231.749C46.8857 232.091 46.0656 229.698 47.075 231.639C47.3873 233.588 48.5101 234.671 49.9185 237.497C49.4399 236.754 48.9639 236.007 48.4907 235.258C50.4872 240.246 44.8945 229.119 49.288 238.577C48.7117 237.465 48.1646 236.342 47.5895 235.217C47.6754 235.857 46.7148 235.232 46.8419 235.78C47.1754 237.222 48.298 239.046 49.0659 240.62C49.4024 241.308 49.0447 240.957 49.073 241.015C49.5346 241.958 49.6374 241.645 50.0721 242.455C50.6105 243.469 51.9885 246.549 52.2766 247.017C53.0072 248.228 52.2947 245.94 52.3913 246.043C53.0125 246.731 53.7292 248.428 53.9403 248.202C51.569 244.417 46.1538 233.06 51.7663 242.999C50.7463 239.993 51.7171 240.505 53.8757 244.473C55.6908 247.758 54.312 245.75 54.9944 247.603C55.0751 247.849 57.4135 252.285 57.7262 252.396C57.2196 252.456 57.6785 254.074 56.7119 253.369C56.5687 253.268 55.5684 251.463 55.5887 252.281C55.5973 252.69 55.7464 253.799 55.4483 253.779C55.8107 254.061 56.2018 254.348 56.5744 254.629C58.1765 257.259 58.2704 257.754 58.8805 259.376C58.9543 259.238 58.6132 257.602 59.7169 259.729C59.773 259.839 59.6542 260.037 60.2115 261.12C61.3445 263.304 61.5748 263.769 60.0603 262.495C63.0846 266.603 63.1165 267.858 66.2812 272.07C66.3205 270.783 65.0592 269.365 62.3367 265.487C62.376 265.215 62.474 265.035 62.512 264.757C65.6455 270.251 63.9685 267.64 66.3047 270.404C66.8727 271.088 69.529 274.953 69.0342 273.38C68.9131 273.015 67.2205 270.647 67.5713 270.809C67.6338 270.846 69.7593 273.667 69.9072 273.941C71.7521 277.431 67.1542 272.125 73.8997 280.56C74.0896 280.791 74.329 280.735 74.7154 281.172C75.4425 281.991 75.2503 282.163 75.9114 282.885C76.5743 283.607 77.698 284.427 78.3964 285.75C79.6844 288.174 75.3259 283.567 73.8281 281.123C72.3418 280.831 85.5902 296.206 86.7246 296.857C90.7779 300.538 84.2535 294.193 84.1183 293.667C84.0508 293.46 84.9413 292.767 82.842 291.572C82.2177 291.216 83.9406 293.512 82.6968 292.34C81.4546 291.162 82.1601 291.434 82.0934 291.328C81.8659 290.962 80.5626 289.69 80.4431 289.48C78.6231 286.295 79.622 285.83 81.599 290.476C83.2618 291.784 80.5016 287.838 82.4102 289.601C84.7257 291.734 85.9273 293.725 86.1832 294.028C89.2678 297.595 86.0006 293.207 89.878 297.439C92.0825 299.786 86.0807 294.431 91.3793 299.529C95.8885 303.71 93.6514 301.233 94.3792 301.104C94.5523 301.072 97.1289 303.205 93.7378 300.17C93.5377 300.196 93.2196 300.18 92.9098 300.086C92.1669 299.236 91.3669 297.378 90.9656 296.943C89.0049 294.824 88.8264 295.201 87.9803 293.652C88.4514 294.886 87.2995 293.251 86.7098 292.787C84.5279 291.049 86.8596 293.829 83.057 288.882C83.4163 289.649 83.7323 290.354 84.0856 291.098C83.5731 290.554 83.0631 290.005 82.5563 289.453C82.199 288.26 79.562 285.334 82.321 287.666C79.609 284.345 78.4465 283.067 77.5179 282.606C77.3425 282.518 76.9076 282.037 76.4237 281.448C76.4223 281.634 76.2553 282.007 76.145 281.941C75.1605 281.35 74.6562 279.613 75.2128 279.901C74.8918 279.474 74.6428 279.132 74.5559 279.01C74.0056 278.239 75.3313 279.557 74.9225 278.904C74.7838 278.691 73.1207 276.611 73.1735 276.516C73.4811 275.882 75.6915 279.653 70.8003 272.431C70.2202 272.591 72.7262 275.785 71.6351 275.298C70.4537 274.778 69.7945 272.421 68.8731 272.464C68.8683 272.238 68.9071 272.109 68.9323 271.893C66.5968 269.181 67.1161 268.756 66.6172 267.779C65.6288 265.898 60.3812 257.815 64.6258 265.392C63.8807 264.366 63.1533 263.293 62.4311 262.252C63.2641 261.375 63.245 262.315 60.2085 257.013C59.5461 255.84 59.7582 255.199 58.5746 254.386C59.1723 254.242 56.8857 251.012 56.7717 250.648C56.0101 248.385 60.9128 255.606 60.6509 257.122C61.7757 258.181 61.3104 258.459 62.2494 259.832C63.6128 261.805 63.8748 262.027 65.0921 264.616C67.0568 266.664 59.4143 255.278 64.5053 261.89C68.4834 269.414 100.512 305.447 110.912 310.351C127.591 321.605 137.511 325.856 154.76 330.943C156.431 331.583 169.592 334.183 166.762 334.248C166.339 334.288 160.547 333.397 165.385 334.862C164.432 334.379 167.383 334.725 167.637 334.729C173.332 334.884 170.028 334.345 178.868 335.307ZM205.166 343.661C193.465 342.107 202.029 343.569 199.48 344.256C200.994 344.43 202.49 344.61 203.98 344.798C203.596 344.688 203.216 344.58 202.83 344.471C202.829 344.471 202.827 344.47 202.825 344.47C203.605 344.198 204.389 343.929 205.166 343.661ZM364.6 435.401C364.286 435.059 363.971 434.722 363.637 434.346C362.986 432.984 362.267 431.561 361.575 430.249C361.74 430.364 361.902 430.473 362.067 430.588C362.937 432.16 363.799 433.807 364.6 435.401ZM72.6835 279.893C71.5955 277.893 71.2139 278.462 69.6819 275.913C69.5165 276.486 69.3855 277.085 69.2399 277.673C70.6521 279.436 71.1081 279.739 72.5448 281.76C72.4859 281.439 72.4244 281.113 72.372 280.797C72.0929 280.493 71.795 280.17 71.5284 279.871C71.4758 279.114 73.9478 282.182 72.6891 279.898C72.6872 279.896 72.6854 279.894 72.6835 279.893ZM59.4916 261.249C58.8992 260.207 56.6283 255.987 56.1525 255.541C54.4186 253.981 61.7557 265.313 56.1067 257.103C56.0496 257.189 55.9481 257.197 55.8687 257.244C56.7696 258.825 57.6892 260.39 58.634 261.953C58.8941 261.675 59.2365 261.538 59.4916 261.249ZM162.35 338.76C160.506 338.409 151.938 336.561 154.608 337.67C155.387 338.013 159.346 338.349 160.813 338.674C161.763 338.891 160.623 338.994 162.537 339.262C162.482 339.103 162.463 338.934 162.345 338.76C162.346 338.76 162.348 338.76 162.35 338.76ZM166.13 337.527C164.234 337.247 162.328 336.944 160.455 336.596C161.729 337.269 164.486 337.564 164.55 338.11C164.023 338.051 163.503 337.991 162.979 337.927C162.606 337.734 162.241 337.541 161.878 337.347C160.213 337.284 161.144 337.649 158.191 336.885C159.807 338.067 160.045 338.63 165.418 338.82C164.348 339.059 165.028 340.649 168.138 340.138C168.719 340.044 166.448 339.541 166.429 339.503C166.142 339.076 167.447 339.061 167.13 338.65C166.987 338.467 165.605 338.225 165.44 337.969C165.364 337.848 166.726 337.78 166.13 337.527ZM169.576 340.006C168.962 340.138 170.861 340.976 172.621 341.095C175.361 341.275 171.136 340.234 169.576 340.006ZM364.605 435.409C364.603 435.407 364.602 435.404 364.6 435.401C364.601 435.402 364.602 435.403 364.604 435.405C364.604 435.406 364.604 435.408 364.605 435.409ZM62.6097 266.591C61.672 265.523 60.565 263.745 60.393 264.038C60.0721 263.426 59.7487 262.806 59.4326 262.19C59.3587 262.244 59.2881 262.304 59.2149 262.358C60.2714 264.147 61.3445 265.913 62.4408 267.665C62.5009 267.314 62.5731 266.979 62.6097 266.591ZM51.2548 247.126C50.049 244.809 50.7174 246.935 50.2708 246.523C49.8187 246.106 48.8873 243.983 48.7611 244.357C49.452 245.705 50.2074 247.148 50.9413 248.519C51.0188 248.009 51.1617 247.606 51.2523 247.121C51.2532 247.123 51.254 247.124 51.2548 247.126ZM252.201 353.312C250.555 352.765 251.334 352.639 247.894 352.109C247.896 352.109 247.899 352.11 247.901 352.111C251.073 353.208 254.852 354.508 258.489 355.359C256.434 354.386 254.772 354.177 252.201 353.312ZM75.8332 285.309C76.4988 285.727 74.4526 282.908 73.7971 282.445C72.7229 281.705 74.8067 284.68 75.8332 285.309ZM317.175 379.79C319.803 380.645 316.194 377.082 311.365 374.588C310.956 374.371 313.781 376.406 312.827 375.992C312.734 375.949 311.121 374.933 310.656 374.78C310.203 374.631 310.49 375.095 309.794 374.798C308.583 374.276 306.148 372.475 305.145 372.192C305.016 372.155 306.484 373.371 306.575 373.441C308.135 374.571 309.91 375.133 310.162 375.282C311.495 376.073 311.115 376.246 311.406 376.518C311.954 377.032 313.121 377.588 313.191 377.646C314.989 379.137 310.557 376.237 309.847 375.974C308.051 375.29 309.43 376.437 305.382 374.309C304.996 374.106 300.449 371.515 305.989 375.097C294.347 369.463 311.365 378.59 313.15 379.782C314.004 380.234 312.953 379.172 313.524 379.364C314.835 379.803 316.743 381.003 316.837 380.5C317.031 379.431 314.18 378.328 312.486 377.078C312.786 377.012 312.97 376.879 313.428 376.918C312.764 376.819 317.008 379.726 317.174 379.791C317.174 379.791 317.174 379.79 317.175 379.79ZM287.95 364.995C285.389 363.523 285.317 364.179 283.047 362.822C280.694 362.441 284.907 364.176 285.388 364.433C287.616 365.569 287.311 366.102 289.667 366.978C289.039 366.289 288.549 365.663 287.95 364.995ZM310.129 376.942C308.282 376.19 311.293 378.017 311.371 378.146C312.332 379.459 303.557 374.029 310.129 376.942ZM151.527 334.812C150.57 334.513 151.096 334.983 150.222 334.819C149.341 334.661 146.551 333.5 146.567 333.698C146.569 333.91 151.72 336.045 146.377 334.463C146.523 334.623 146.438 334.679 146.495 334.798C147.951 335.275 149.434 335.735 150.918 336.167C150.188 335.638 149.452 335.081 148.769 334.561C149.661 334.581 150.034 335.016 150.078 335.03C150.078 335.029 150.078 335.029 150.078 335.029C151.625 335.465 153.683 335.471 151.527 334.812ZM228.654 347.155C229.09 346.464 226.643 346.855 225.678 346.774C224.716 346.69 223.455 346.178 223.889 346.588C225.395 347.085 228.609 347.23 228.654 347.154C228.654 347.155 228.654 347.155 228.654 347.155ZM273.351 359.017C271.013 358.354 271.319 358.67 268.56 357.461C268.61 357.673 268.658 357.888 268.708 358.098C270.948 358.892 270.978 358.333 273.451 359.475C273.853 359.663 272.821 359.729 274.733 360.303C274.273 359.885 273.81 359.442 273.351 359.017ZM261.739 355.742C264.386 356.563 266.946 355.834 261.866 354.896C261.107 354.761 259.732 355.131 261.739 355.742ZM177.031 339.689C172.257 339.115 177.647 339.974 178.9 340.3C167.705 339.277 180.125 340.428 181.255 341.198C181.521 341.177 181.831 341.149 182.14 341.115C183.453 340.965 184.739 340.713 182.42 340.436C182.335 340.426 182.259 340.418 182.19 340.412C181.276 340.33 181.637 340.551 181.57 340.546C179.357 340.315 179.654 339.974 177.031 339.689ZM292.53 367.081C292.365 367.015 292.505 367.366 291.974 367.17C291.445 366.973 290.358 366.266 290.175 366.355C289.997 366.444 292.269 367.648 293.016 367.886C293.767 368.121 294.014 367.685 292.53 367.081ZM275.97 359.287C273.714 358.625 276.96 360.874 277.47 361.078C281.755 362.724 275.727 359.497 275.97 359.287ZM188.379 339.009C182.538 339.019 186.747 340.18 190.275 340.997C190.756 340.938 191.249 340.881 191.722 340.824C189.517 341.247 185.743 341.5 194.093 341.744C189.576 341.163 193.389 341.362 193.421 341.331C194.047 340.24 187.21 340.153 188.384 339.009C188.382 339.009 188.381 339.009 188.379 339.009ZM299.321 370.791C301.469 371.88 307.3 374.967 304.881 373.029C303.012 372.24 301.161 371.496 299.321 370.791ZM101.976 306.937C100.574 305.429 99.1406 304.23 97.2523 302.587C98.675 304.384 97.5302 303.445 96.8912 303.015C95.923 302.363 98.0342 304.208 98.0255 304.23C97.7352 304.488 96.3237 303.377 99.4375 306.017C98.5755 305.469 97.7321 304.927 96.881 304.362C99.2208 306.418 99.6356 307.078 100.98 308.58C99.9661 306.765 101.625 308.761 103.674 309.876C104.691 310.431 102.678 307.709 101.97 306.933C101.972 306.934 101.974 306.936 101.976 306.937ZM182.367 338.388C182.356 338.39 182.344 338.392 182.333 338.394C181.737 338.488 181.185 338.628 180.605 338.735C179.974 338.698 179.343 338.656 178.716 338.613C178.65 338.485 178.597 338.352 178.518 338.227C177.7 338.113 178.004 338.312 177.758 338.303C177.758 338.303 177.758 338.302 177.758 338.301C174.243 338.163 172.831 337.942 170.219 337.178C170.164 337.546 170.108 337.913 170.053 338.281C170.66 338.337 171.276 338.391 171.887 338.441C172.237 338.288 172.587 338.134 172.936 337.978C173.623 338.18 174.308 338.376 175.003 338.569C175.579 338.565 176.272 338.566 176.773 338.549C179.511 339.887 173.119 338.483 173.025 338.874C172.931 339.173 179.468 339.886 180.457 339.737C180.597 339.719 179.229 338.837 181.619 339.428C181.792 339.471 181.887 339.851 182.21 340.134C182.584 340.464 183.263 340.66 184.72 340.039C185.106 339.876 183.892 338.739 182.367 338.388ZM159.181 334.388C162.456 336.319 149.731 331.92 155.142 334.233C153.394 334.276 153.689 334.352 155.222 335.206C155.36 335.284 154.185 335.114 154.278 335.156C155.761 335.804 157.587 336.114 157.506 336.543C157.923 336.62 158.315 336.691 158.734 336.764C157.111 335.96 159.902 336.335 161.037 336.217C161.553 336.167 160.455 335.879 160.89 335.833C161.049 335.818 162.579 336.243 162.673 336.113C162.871 335.819 161.98 335.194 160.406 334.596C160.406 334.596 160.406 334.596 160.406 334.595C159.994 334.525 159.592 334.46 159.181 334.388ZM236.695 346.371C237.185 347.087 239.63 347.792 234.8 347.034C235.012 347.199 235.232 347.364 235.443 347.53C236.25 347.694 237.028 347.855 237.839 348.028C240.669 346.869 244.558 349.841 242.058 347.967C241.786 347.762 239.88 347.468 241.81 347.549C241.807 347.548 241.805 347.547 241.803 347.546C239.197 347.047 238.822 347.179 236.695 346.371ZM219.151 343.424C212.957 343.65 227.325 345.523 225.023 344.815C224.782 344.727 218.576 343.927 219.151 343.424ZM267.167 354.085C264.606 353.202 264.212 353.792 264.401 354.106C264.589 354.42 266.445 354.778 266.66 354.892C267.363 355.262 265.759 354.81 266.669 355.299C266.985 355.452 271.475 357.276 271.673 357.328C272.871 357.591 271.388 356.465 271.736 356.524C272.879 356.713 274.215 357.516 274.623 357.355C275.505 357.011 272.595 356.635 272.13 356.483C270.738 356.013 270.977 355.724 269.954 355.288C268.929 354.854 268.199 354.731 267.27 354.389C266.965 354.277 267.298 354.131 267.167 354.085ZM258.092 352.68C261.015 353.024 254.422 350.477 253.622 350.399C251.222 350.09 256.632 352.477 258.092 352.68ZM167.865 337.763C170.542 337.835 164.494 336.531 162.78 336.295C163.055 336.521 166.929 337.752 167.865 337.763ZM189.975 339.149C187.559 339.055 190.685 340.154 192.661 340.332C193.872 339.9 192.774 339.901 191.474 339.759C190.174 339.618 191.854 339.228 189.975 339.149ZM294.622 365.937C294.205 365.685 286.388 362.578 290.692 364.767C291.032 364.919 296.306 367.373 296.769 367.535C297.655 367.791 295.838 366.552 294.622 365.937ZM201.589 339.529C200.255 339.848 198.991 339.702 200.109 340.385C200.111 340.386 200.112 340.386 200.114 340.386C196.851 340.192 196.793 339.056 196.106 339.007C193.712 338.849 195.891 339.881 194.368 339.994C197.846 340.096 196.87 340.544 199.561 340.874C200.171 340.948 202.629 340.908 203.004 340.751C203.381 340.593 202.221 339.841 201.589 339.529ZM305.241 371.357C302.794 369.782 300.181 369.257 303.572 371.236C305.243 372.227 306.706 372.311 305.241 371.357ZM59.6502 256.347C59.7007 256.821 59.7599 257.306 59.8316 257.806C59.2486 256.941 58.6598 256.054 58.0942 255.194C58.5623 255.861 59.0456 256.549 59.5292 257.228C58.5749 255.508 58.4346 254.55 59.6476 256.343C59.6485 256.344 59.6494 256.346 59.6502 256.347ZM31.4097 193.026C31.3169 192.138 30.2156 190.691 30.2389 190.912C30.416 192.582 31.5402 194.264 31.4097 193.026ZM164.359 335.285C161.214 334.568 163.181 335.971 165.14 336.407C163.975 335.997 166.157 335.677 164.359 335.285ZM39.8081 215.985C39.8402 216.285 39.8735 216.588 39.9195 216.921C39.6391 215.929 39.6459 215.735 39.8081 215.985ZM293.808 364.59C293.405 364.305 290.081 362.688 289.574 362.569C288.543 362.315 290.971 363.999 292.553 364.571C292.73 364.633 294.219 364.87 293.801 364.587C293.803 364.588 293.806 364.589 293.808 364.59ZM57.7529 252.389C57.7477 252.399 57.7385 252.401 57.7262 252.396C57.7356 252.395 57.7428 252.389 57.7529 252.389ZM15.1709 121.971C15.1594 121.993 15.1465 122.006 15.1319 122.006C15.1445 121.996 15.1565 121.979 15.1709 121.971ZM269.928 353.893C269.046 352.6 266.153 352.146 268.159 353.309C268.274 353.372 269.643 353.79 269.928 353.893Z" fill="#B59F84"/>
</svg>
